{"glyphs":{"0":{"ha":724,"x_min":90,"x_max":633,"o":"m 90 278 l 90 729 q 164 947 90 878 q 361 1015 238 1015 q 559 947 485 1015 q 633 729 633 878 l 633 278 q 559 60 633 129 q 361 -8 485 -8 q 164 60 238 -8 q 90 278 90 129 m 140 278 q 197 101 140 160 q 361 42 254 42 q 526 101 468 42 q 583 278 583 160 l 583 729 q 526 906 583 847 q 361 965 468 965 q 197 906 254 965 q 140 729 140 847 l 140 278 m 331 472 q 325 478 331 472 q 318 503 318 485 q 331 533 318 521 q 363 546 344 546 q 393 533 381 546 q 406 503 406 521 q 393 472 406 485 q 363 458 381 458 q 331 472 344 458 z "},"1":{"ha":290,"x_min":26,"x_max":186,"o":"m 26 782 q 40 814 26 786 l 132 992 q 164 1015 144 1015 q 186 992 186 1015 l 186 25 q 161 0 186 0 q 136 25 136 0 l 136 888 l 76 776 q 51 758 67 758 q 34 765 42 758 q 26 782 26 772 z "},"2":{"ha":640,"x_min":53,"x_max":596,"o":"m 53 25 l 53 160 q 88 267 53 214 q 178 358 124 319 l 292 444 l 408 533 q 497 634 461 576 q 532 754 532 692 q 476 901 532 838 q 318 965 419 965 q 181 917 233 965 q 128 782 128 869 q 101 758 128 758 q 78 797 78 758 q 147 952 78 889 q 321 1015 215 1015 q 510 939 438 1015 q 582 756 582 863 q 533 601 582 674 q 413 475 483 528 l 272 374 q 152 270 201 325 q 103 160 103 215 l 103 50 l 572 50 q 589 42 582 50 q 596 25 596 35 q 589 8 596 15 q 572 0 582 0 l 78 0 q 60 7 68 0 q 53 25 53 14 z "},"3":{"ha":657,"x_min":46,"x_max":589,"o":"m 46 210 q 68 249 46 249 q 94 219 94 249 q 104 167 94 194 q 135 110 114 140 q 203 61 157 81 q 314 42 250 42 q 481 101 422 42 q 539 278 539 160 l 539 304 q 481 460 539 407 q 319 513 422 513 q 293 538 293 513 q 318 563 293 563 q 466 608 418 563 q 514 761 514 654 q 469 915 514 864 q 324 965 424 965 q 219 947 263 965 q 157 901 176 929 q 129 846 138 872 q 121 792 121 819 q 96 758 121 758 q 71 800 71 758 q 81 862 71 829 q 117 931 92 894 q 198 992 143 968 q 328 1015 253 1015 q 564 774 564 1015 q 447 536 564 593 q 589 304 589 476 l 589 278 q 515 61 589 131 q 319 -8 440 -8 q 119 59 192 -8 q 46 210 46 126 z "},"4":{"ha":579,"x_min":15,"x_max":558,"o":"m 15 272 q 19 289 15 283 l 376 996 q 404 1015 386 1015 q 421 1009 414 1015 q 428 993 428 1003 q 424 978 428 986 l 79 297 l 401 297 l 401 622 q 426 646 401 646 q 451 622 451 646 l 451 297 l 533 297 q 558 272 558 297 q 533 247 558 247 l 451 247 l 451 25 q 426 0 451 0 q 401 25 401 0 l 401 247 l 39 247 q 15 272 15 247 z "},"5":{"ha":638,"x_min":44,"x_max":588,"o":"m 44 221 q 68 249 44 249 q 94 224 94 249 q 158 91 94 140 q 315 42 221 42 q 480 101 422 42 q 538 278 538 160 l 538 304 q 480 475 538 418 q 317 532 422 532 l 129 532 q 94 551 94 532 q 95 563 94 553 q 96 575 96 574 l 121 990 q 146 1015 124 1015 l 517 1015 q 538 990 538 1015 q 517 965 538 965 l 171 965 l 144 582 l 317 582 q 514 515 440 582 q 588 304 588 449 l 588 278 q 513 60 588 129 q 315 -8 439 -8 q 117 57 190 -8 q 44 221 44 122 z "},"6":{"ha":700,"x_min":90,"x_max":633,"o":"m 90 278 l 90 729 q 164 947 90 878 q 361 1015 238 1015 q 559 949 485 1015 q 633 786 633 882 q 610 758 633 758 q 583 783 583 758 q 519 915 583 864 q 361 965 456 965 q 197 906 254 965 q 140 729 140 847 l 140 488 q 363 590 213 590 q 633 318 633 590 l 633 278 q 560 60 633 129 q 363 -8 486 -8 q 165 60 239 -8 q 90 278 90 129 m 140 278 q 198 101 140 160 q 363 42 256 42 q 526 101 469 42 q 583 278 583 160 l 583 318 q 527 488 583 435 q 363 540 471 540 q 140 331 140 540 l 140 278 z "},"7":{"ha":614,"x_min":46,"x_max":589,"o":"m 46 783 l 46 990 q 53 1008 46 1000 q 71 1015 61 1015 l 564 1015 q 581 1008 572 1015 q 589 990 589 1000 l 589 890 q 586 879 589 883 l 144 14 q 124 0 138 0 q 96 21 96 0 q 100 36 96 28 l 539 897 l 539 965 l 96 965 l 96 783 q 88 766 96 774 q 71 758 81 758 q 53 765 61 758 q 46 783 46 772 z "},"8":{"ha":679,"x_min":68,"x_max":611,"o":"m 68 278 l 68 294 q 213 553 68 492 q 94 774 94 606 q 340 1015 94 1015 q 586 774 586 1015 q 468 553 586 606 q 611 294 611 493 l 611 278 q 538 61 611 131 q 340 -8 464 -8 q 142 61 217 -8 q 68 278 68 131 m 118 278 q 176 101 118 160 q 342 42 235 42 q 504 101 447 42 q 561 278 561 160 l 561 294 q 503 469 561 411 q 340 526 446 526 q 176 469 235 526 q 118 294 118 411 l 118 278 m 144 774 q 340 578 144 578 q 536 774 536 578 q 340 965 536 965 q 144 774 144 965 z "},"9":{"ha":700,"x_min":67,"x_max":610,"o":"m 67 221 q 90 249 67 249 q 117 224 117 249 q 181 92 117 143 q 339 42 244 42 q 503 101 446 42 q 560 278 560 160 l 560 519 q 338 417 488 417 q 67 689 67 417 l 67 729 q 140 947 67 878 q 338 1015 214 1015 q 535 947 461 1015 q 610 729 610 878 l 610 278 q 536 60 610 129 q 339 -8 463 -8 q 141 58 215 -8 q 67 221 67 125 m 117 689 q 173 519 117 572 q 338 467 229 467 q 560 676 560 467 l 560 729 q 502 906 560 847 q 338 965 444 965 q 174 906 231 965 q 117 729 117 847 l 117 689 z "},"\u0000":{"ha":0,"x_min":0,"x_max":0,"o":""},"\r":{"ha":0,"x_min":0,"x_max":0,"o":""}," ":{"ha":278,"x_min":0,"x_max":0,"o":""},"!":{"ha":268,"x_min":85,"x_max":183,"o":"m 99 6 q 92 14 99 6 q 85 42 85 21 q 99 77 85 63 q 135 92 113 92 q 169 77 154 92 q 183 42 183 63 q 169 7 183 22 q 135 -8 154 -8 q 99 6 114 -8 m 97 996 q 133 1039 97 1039 q 160 1028 150 1039 q 171 996 171 1017 q 163 611 171 871 q 156 226 156 351 q 148 210 156 217 q 133 204 140 204 q 119 210 125 204 q 113 226 113 217 q 105 611 113 351 q 97 996 97 871 z "},"\"":{"ha":354,"x_min":60,"x_max":294,"o":"m 60 1043 q 71 1060 60 1053 q 93 1067 82 1067 q 116 1060 104 1067 q 128 1043 128 1053 l 114 832 q 93 807 114 807 q 74 832 74 807 l 60 1043 m 226 1043 q 238 1060 226 1053 q 260 1067 249 1067 q 283 1060 271 1067 q 294 1043 294 1053 l 281 832 q 260 807 281 807 q 240 832 240 807 l 226 1043 z "},"#":{"ha":760,"x_min":44,"x_max":717,"o":"m 69 372 q 44 393 44 372 q 61 414 44 414 l 222 414 l 258 660 l 113 660 q 88 682 88 660 q 104 701 88 701 l 265 701 l 307 976 q 324 990 310 990 q 350 963 350 990 l 310 701 l 497 701 l 539 976 q 556 990 542 990 q 582 963 582 990 l 542 701 l 690 701 q 717 681 717 701 q 711 667 717 674 q 699 660 706 660 l 536 660 l 499 414 l 647 414 q 674 392 674 414 q 668 378 674 385 q 656 372 663 372 l 492 372 l 447 71 q 424 50 443 50 q 401 76 401 50 l 446 372 l 260 372 l 215 72 q 194 50 211 50 q 171 76 171 50 l 214 372 l 69 372 m 267 414 l 453 414 l 490 660 l 304 660 l 267 414 z "},"$":{"ha":672,"x_min":61,"x_max":604,"o":"m 61 146 q 69 165 61 156 q 85 175 78 175 q 107 156 92 175 q 143 115 122 138 q 214 74 164 93 q 331 56 264 56 l 331 521 q 289 535 297 532 l 253 549 q 213 565 222 560 q 180 585 204 571 q 147 610 156 599 q 124 639 139 621 q 103 676 108 657 q 92 720 97 694 q 86 775 86 746 q 101 865 86 825 q 140 928 117 904 q 197 968 164 951 q 263 992 231 985 q 331 1000 294 999 l 331 1043 q 338 1060 331 1053 q 356 1067 346 1067 q 373 1060 365 1067 q 381 1043 381 1053 l 381 1001 q 518 975 457 999 q 579 929 579 951 q 571 909 579 919 q 554 899 563 899 q 528 910 549 899 q 467 935 507 922 q 381 950 428 947 l 381 558 q 464 522 431 540 q 533 472 497 504 q 586 390 568 440 q 604 271 604 339 q 544 85 604 150 q 381 8 485 21 l 381 -49 q 373 -65 381 -58 q 356 -72 365 -72 q 338 -65 346 -72 q 331 -49 331 -58 l 331 6 q 214 22 268 6 q 128 62 160 39 q 79 108 97 85 q 61 146 61 131 m 136 779 q 151 697 136 732 q 197 640 165 663 q 256 603 228 617 q 331 575 283 590 l 331 950 q 136 779 136 939 m 381 60 q 554 267 554 85 q 509 418 554 367 q 381 503 464 469 l 381 60 z "},"%":{"ha":1029,"x_min":64,"x_max":965,"o":"m 64 651 l 64 867 q 108 979 64 943 q 224 1015 151 1015 q 340 979 296 1015 q 383 867 383 943 l 383 651 q 340 539 383 575 q 224 503 296 503 q 108 539 151 503 q 64 651 64 575 m 111 651 q 224 546 111 546 q 338 651 338 546 l 338 867 q 224 972 338 972 q 111 867 111 972 l 111 651 m 226 -7 q 229 6 226 1 l 772 1056 q 790 1067 778 1067 q 807 1059 799 1067 q 815 1040 815 1051 q 811 1025 815 1033 l 272 -12 q 249 -28 264 -28 q 226 -7 226 -28 m 646 144 l 646 360 q 690 472 646 436 q 806 508 733 508 q 922 472 878 508 q 965 360 965 436 l 965 144 q 922 32 965 68 q 806 -4 878 -4 q 690 32 733 -4 q 646 144 646 68 m 693 144 q 806 39 693 39 q 919 144 919 39 l 919 360 q 806 465 919 465 q 693 360 693 465 l 693 144 z "},"&":{"ha":826,"x_min":57,"x_max":800,"o":"m 57 276 q 113 448 57 379 q 253 551 169 517 q 194 625 215 596 q 153 706 174 654 q 133 810 133 757 q 200 978 133 917 q 365 1039 267 1039 q 458 1024 415 1039 q 523 989 500 1010 q 558 949 546 968 q 571 918 571 931 q 547 896 571 896 q 528 911 539 896 l 500 944 q 451 979 486 964 q 371 994 417 994 q 240 943 288 994 q 192 806 192 892 q 223 681 192 736 q 315 557 254 625 l 625 214 q 679 499 676 331 q 703 528 679 528 q 724 496 724 528 q 658 176 724 310 l 793 29 q 800 14 800 19 q 793 -2 800 4 q 778 -8 786 -8 q 761 0 769 -8 l 636 135 q 361 -14 542 -14 q 138 70 219 -14 q 57 276 57 154 m 108 282 q 178 107 108 179 q 369 35 249 35 q 603 169 526 35 l 282 515 q 224 481 246 496 q 171 438 201 467 q 124 369 140 408 q 108 282 108 331 z "},"'":{"ha":188,"x_min":60,"x_max":128,"o":"m 60 1043 q 71 1060 60 1053 q 93 1067 82 1067 q 116 1060 104 1067 q 128 1043 128 1053 l 114 832 q 93 807 114 807 q 74 832 74 807 l 60 1043 z "},"(":{"ha":386,"x_min":93,"x_max":358,"o":"m 93 199 l 93 821 q 162 993 93 919 q 335 1067 231 1067 q 351 1060 344 1067 q 358 1043 358 1053 q 351 1026 358 1033 q 335 1018 344 1018 q 195 958 247 1018 q 143 821 143 899 l 143 199 q 199 60 143 100 q 335 21 256 21 q 358 -3 358 21 q 351 -21 358 -14 q 335 -28 343 -28 q 159 33 225 -28 q 93 199 93 93 z "},")":{"ha":386,"x_min":28,"x_max":293,"o":"m 28 -3 q 51 21 28 21 q 187 60 131 21 q 243 199 243 100 l 243 821 q 191 958 243 899 q 51 1018 139 1018 q 35 1026 42 1018 q 28 1043 28 1033 q 35 1060 28 1053 q 51 1067 42 1067 q 224 993 156 1067 q 293 821 293 919 l 293 199 q 227 33 293 93 q 51 -28 161 -28 q 35 -21 43 -28 q 28 -3 28 -14 z "},"*":{"ha":578,"x_min":54,"x_max":524,"o":"m 54 836 q 61 856 54 847 q 79 864 68 864 q 86 863 83 864 l 271 797 l 264 992 q 289 1015 264 1015 q 314 992 314 1015 l 307 796 l 492 863 q 500 864 494 864 q 517 855 510 864 q 524 836 524 846 q 507 814 524 818 l 322 760 l 440 604 q 444 592 444 597 q 436 573 444 581 q 417 565 428 565 q 399 575 407 565 l 289 735 l 178 574 q 163 565 172 565 q 143 572 153 565 q 133 590 133 579 q 139 606 133 599 l 256 758 l 69 814 q 54 836 54 818 z "},"+":{"ha":593,"x_min":50,"x_max":543,"o":"m 50 333 q 74 358 50 358 l 272 358 l 272 556 q 280 573 272 565 q 297 581 288 581 q 314 573 307 581 q 321 556 321 565 l 321 358 l 518 358 q 535 351 528 358 q 543 333 543 343 q 535 317 543 324 q 518 310 528 310 l 321 310 l 321 111 q 297 88 321 88 q 272 111 272 88 l 272 310 l 74 310 q 50 333 50 310 z "},",":{"ha":225,"x_min":63,"x_max":161,"o":"m 63 42 q 76 77 63 63 q 111 92 90 92 q 146 78 131 92 q 161 40 161 65 q 118 -92 161 19 q 96 -107 111 -107 q 74 -89 74 -107 q 75 -78 74 -82 l 100 -7 q 63 42 63 3 z "},"-":{"ha":549,"x_min":69,"x_max":479,"o":"m 69 333 q 93 358 69 358 l 454 358 q 472 351 464 358 q 479 333 479 343 q 472 317 479 324 q 454 310 464 310 l 93 310 q 69 333 69 310 z "},".":{"ha":224,"x_min":63,"x_max":161,"o":"m 77 6 q 70 14 77 6 q 63 42 63 21 q 76 77 63 63 q 113 92 90 92 q 147 77 132 92 q 161 42 161 63 q 147 7 161 22 q 113 -8 132 -8 q 77 6 92 -8 z "},"/":{"ha":650,"x_min":31,"x_max":619,"o":"m 31 -7 q 33 6 31 1 l 576 1056 q 594 1067 582 1067 q 611 1059 603 1067 q 619 1040 619 1051 q 615 1025 619 1033 l 76 -12 q 53 -28 69 -28 q 31 -7 31 -28 z "},":":{"ha":268,"x_min":85,"x_max":183,"o":"m 99 6 q 92 14 99 6 q 85 42 85 21 q 99 77 85 63 q 135 92 113 92 q 169 77 154 92 q 183 42 183 63 q 169 7 183 22 q 135 -8 154 -8 q 99 6 114 -8 m 99 501 q 92 508 99 501 q 85 536 85 515 q 99 572 85 557 q 135 586 113 586 q 169 572 154 586 q 183 536 183 557 q 169 501 183 517 q 135 486 154 486 q 99 501 114 486 z "},";":{"ha":271,"x_min":85,"x_max":185,"o":"m 85 42 q 99 77 85 63 q 133 92 113 92 q 168 78 153 92 q 183 40 183 65 q 140 -92 183 19 q 118 -107 133 -107 q 96 -89 96 -107 q 97 -78 96 -82 l 122 -7 q 85 42 85 3 m 101 501 q 93 508 101 501 q 86 536 86 515 q 100 572 86 557 q 136 586 114 586 q 170 572 156 586 q 185 536 185 557 q 170 501 185 517 q 136 486 156 486 q 101 501 115 486 z "},"<":{"ha":549,"x_min":42,"x_max":476,"o":"m 42 385 q 56 411 42 400 l 438 664 q 450 668 444 668 q 468 661 460 668 q 476 644 476 654 q 464 624 476 631 l 106 385 l 464 147 q 476 126 476 140 q 468 110 476 117 q 450 103 460 103 q 438 107 444 103 l 56 360 q 42 385 42 368 z "},"=":{"ha":599,"x_min":101,"x_max":497,"o":"m 101 244 q 125 269 101 269 l 472 269 q 490 262 482 269 q 497 244 497 254 q 490 228 497 235 q 472 221 482 221 l 125 221 q 101 244 101 221 m 101 526 q 125 551 101 551 l 472 551 q 490 544 482 551 q 497 526 497 536 q 490 510 497 517 q 472 503 482 503 l 125 503 q 101 526 101 503 z "},">":{"ha":549,"x_min":72,"x_max":507,"o":"m 72 126 q 85 147 72 140 l 443 385 l 85 624 q 72 644 72 631 q 81 661 72 654 q 99 668 89 668 q 111 664 106 668 l 493 411 q 507 385 507 400 q 493 360 507 368 l 111 107 q 99 103 106 103 q 81 110 89 103 q 72 126 72 117 z "},"?":{"ha":532,"x_min":35,"x_max":479,"o":"m 35 958 q 95 1013 35 986 q 228 1039 156 1039 q 415 968 351 1039 q 479 786 479 897 q 456 664 479 721 q 404 576 432 607 q 337 507 376 546 q 283 451 297 468 q 252 374 258 419 q 246 228 246 328 q 222 204 246 204 q 199 228 199 204 q 210 397 199 346 q 247 479 221 447 q 300 533 260 494 q 364 597 340 571 q 409 675 388 624 q 431 785 431 726 q 378 936 431 882 q 222 990 325 990 q 134 976 171 990 q 79 949 97 963 q 54 935 61 935 q 41 942 47 935 q 35 958 35 949 m 187 6 q 180 14 187 6 q 172 42 172 21 q 187 77 172 63 q 222 92 201 92 q 256 77 242 92 q 271 42 271 63 q 257 6 271 21 q 222 -8 243 -8 q 187 6 201 -8 z "},"@":{"ha":982,"x_min":85,"x_max":915,"o":"m 85 306 q 108 485 85 403 q 181 631 132 567 q 312 731 229 694 q 504 767 394 767 q 810 654 704 767 q 915 325 915 542 q 765 57 915 57 q 681 83 718 57 q 635 142 644 108 q 560 88 594 104 q 467 72 525 72 q 292 219 292 72 q 357 340 292 308 q 561 371 422 371 l 629 371 l 629 400 q 593 496 629 465 q 481 526 557 526 q 390 510 426 526 q 351 494 354 494 q 334 503 340 494 q 328 519 328 511 q 381 558 328 542 q 493 575 433 575 q 631 530 583 575 q 678 401 678 485 l 678 174 q 708 124 681 144 q 768 103 736 103 q 845 168 822 103 q 868 324 868 233 q 776 613 868 510 q 500 715 683 715 q 326 682 400 715 q 212 590 253 649 q 151 460 171 531 q 132 307 132 390 q 149 163 132 229 q 203 42 167 97 q 305 -44 240 -12 q 457 -76 369 -76 q 557 -65 513 -76 q 627 -42 601 -53 q 660 -31 653 -31 q 674 -37 668 -31 q 681 -50 681 -43 q 608 -99 681 -74 q 453 -125 535 -125 q 191 -16 297 -125 q 85 306 85 93 m 340 218 q 464 118 340 118 q 584 153 539 118 q 629 231 629 189 l 629 324 l 563 324 q 474 321 507 324 q 406 308 440 318 q 356 276 372 299 q 340 218 340 254 z "},"A":{"ha":724,"x_min":35,"x_max":689,"o":"m 35 22 q 36 31 35 28 l 338 1004 q 363 1024 343 1024 q 389 1004 382 1024 l 688 31 q 688 27 688 29 q 689 24 689 25 q 681 7 689 14 q 661 0 672 0 q 639 18 644 0 l 568 246 l 154 246 l 85 18 q 60 0 79 0 q 35 22 35 0 m 169 296 l 553 296 l 363 918 l 169 296 z "},"B":{"ha":732,"x_min":115,"x_max":658,"o":"m 115 24 l 115 990 q 140 1015 115 1015 l 349 1015 q 560 967 486 1015 q 633 783 633 918 q 601 635 633 696 q 515 550 569 574 q 658 306 658 490 l 658 282 q 584 67 658 135 q 386 0 510 0 l 140 0 q 115 24 115 0 m 165 50 l 386 50 q 608 282 608 50 l 608 306 q 551 474 608 422 q 386 525 494 525 l 165 525 l 165 50 m 165 575 l 358 575 q 531 621 478 575 q 583 783 583 667 q 524 928 583 890 q 351 965 465 965 l 165 965 l 165 575 z "},"C":{"ha":711,"x_min":106,"x_max":649,"o":"m 106 278 l 106 729 q 183 946 106 876 q 382 1015 260 1015 q 578 951 508 1015 q 649 797 649 886 q 624 758 649 758 q 599 783 599 758 q 588 841 597 814 q 556 899 578 868 q 490 947 535 929 q 381 965 444 965 q 156 729 156 965 l 156 278 q 386 42 156 42 q 478 55 439 42 q 537 84 517 68 q 572 129 557 100 q 590 176 586 158 q 599 224 594 193 q 624 249 601 249 q 649 208 649 249 q 576 57 649 122 q 378 -8 504 -8 q 181 61 257 -8 q 106 278 106 131 z "},"D":{"ha":764,"x_min":115,"x_max":658,"o":"m 115 24 l 115 992 q 140 1015 115 1015 l 386 1015 q 584 947 510 1015 q 658 729 658 878 l 658 286 q 584 69 658 138 q 386 0 510 0 l 140 0 q 115 24 115 0 m 165 50 l 386 50 q 551 109 493 50 q 608 286 608 168 l 608 729 q 551 906 608 847 q 386 965 493 965 l 165 965 l 165 50 z "},"E":{"ha":692,"x_min":115,"x_max":658,"o":"m 115 25 l 115 990 q 140 1015 115 1015 l 635 1015 q 658 992 658 1015 q 635 965 658 965 l 165 965 l 165 533 l 388 533 q 411 507 411 533 q 388 483 411 483 l 165 483 l 165 50 l 635 50 q 658 24 658 50 q 635 0 658 0 l 140 0 q 115 25 115 0 z "},"F":{"ha":679,"x_min":115,"x_max":658,"o":"m 115 24 l 115 990 q 140 1015 115 1015 l 635 1015 q 658 992 658 1015 q 635 965 658 965 l 165 965 l 165 533 l 388 533 q 411 507 411 533 q 388 483 411 483 l 165 483 l 165 24 q 140 0 165 0 q 115 24 115 0 z "},"G":{"ha":738,"x_min":106,"x_max":649,"o":"m 106 278 l 106 729 q 179 947 106 878 q 376 1015 253 1015 q 575 950 501 1015 q 649 786 649 885 q 624 758 649 758 q 599 783 600 758 q 528 920 586 875 q 376 965 471 965 q 213 906 269 965 q 156 729 156 847 l 156 278 q 213 101 156 160 q 376 42 269 42 q 541 101 483 42 q 599 278 599 160 l 599 483 l 378 483 q 354 508 354 483 q 378 533 354 533 l 625 533 q 649 507 649 533 l 649 278 q 574 60 649 129 q 376 -8 500 -8 q 179 60 253 -8 q 106 278 106 129 z "},"H":{"ha":774,"x_min":115,"x_max":658,"o":"m 115 25 l 115 992 q 140 1015 115 1015 q 165 992 165 1015 l 165 551 l 608 551 l 608 992 q 633 1015 608 1015 q 658 992 658 1015 l 658 25 q 633 0 658 0 q 608 25 608 0 l 608 501 l 165 501 l 165 25 q 140 0 165 0 q 115 25 115 0 z "},"I":{"ha":281,"x_min":115,"x_max":165,"o":"m 115 25 l 115 992 q 140 1015 115 1015 q 165 992 165 1015 l 165 25 q 140 0 165 0 q 115 25 115 0 z "},"J":{"ha":689,"x_min":36,"x_max":579,"o":"m 36 221 q 60 249 36 249 q 86 224 86 249 q 149 88 86 135 q 308 42 211 42 q 472 101 415 42 q 529 278 529 160 l 529 965 l 308 965 q 285 992 285 965 q 308 1015 285 1015 l 554 1015 q 579 990 579 1015 l 579 278 q 506 60 579 129 q 308 -8 432 -8 q 110 57 183 -8 q 36 221 36 122 z "},"K":{"ha":706,"x_min":115,"x_max":694,"o":"m 115 25 l 115 992 q 140 1015 115 1015 q 165 992 165 1015 l 165 447 l 614 1007 q 633 1015 619 1015 q 651 1007 643 1015 q 658 989 658 999 q 653 975 658 981 l 332 576 l 690 38 q 694 25 694 31 q 687 8 694 15 q 668 0 679 0 q 647 13 656 0 l 299 535 l 165 368 l 165 25 q 140 0 165 0 q 115 25 115 0 z "},"L":{"ha":628,"x_min":115,"x_max":608,"o":"m 115 25 l 115 992 q 140 1015 115 1015 q 165 992 165 1015 l 165 50 l 588 50 q 608 25 608 50 q 588 0 608 0 l 140 0 q 115 25 115 0 z "},"M":{"ha":907,"x_min":115,"x_max":792,"o":"m 115 25 l 115 992 q 140 1015 115 1015 q 183 965 156 1015 l 453 435 l 724 965 q 767 1015 751 1015 q 792 992 792 1015 l 792 25 q 767 0 792 0 q 742 25 742 0 l 742 893 l 479 388 q 453 361 465 361 q 426 388 439 361 l 165 893 l 165 25 q 140 0 165 0 q 115 25 115 0 z "},"N":{"ha":774,"x_min":115,"x_max":658,"o":"m 115 25 l 115 992 q 140 1015 115 1015 q 183 965 156 1015 l 608 124 l 608 992 q 633 1015 608 1015 q 658 992 658 1015 l 658 25 q 633 0 658 0 q 593 50 618 0 l 165 893 l 165 25 q 140 0 165 0 q 115 25 115 0 z "},"O":{"ha":754,"x_min":106,"x_max":649,"o":"m 106 278 l 106 729 q 179 947 106 878 q 376 1015 253 1015 q 574 947 500 1015 q 649 729 649 878 l 649 278 q 574 60 649 129 q 376 -8 500 -8 q 179 60 253 -8 q 106 278 106 129 m 156 278 q 213 101 156 160 q 376 42 269 42 q 541 101 483 42 q 599 278 599 160 l 599 729 q 541 906 599 847 q 376 965 483 965 q 213 906 269 965 q 156 729 156 847 l 156 278 z "},"P":{"ha":713,"x_min":115,"x_max":658,"o":"m 115 25 l 115 992 q 140 1015 115 1013 l 386 1015 q 584 947 510 1015 q 658 729 658 878 l 658 713 q 584 494 658 564 q 386 425 510 425 l 165 425 l 165 25 q 140 0 165 0 q 115 25 115 0 m 165 475 l 386 475 q 551 535 493 475 q 608 713 608 594 l 608 729 q 551 906 608 847 q 386 965 493 965 l 165 965 l 165 475 z "},"Q":{"ha":754,"x_min":106,"x_max":649,"o":"m 106 278 l 106 729 q 179 947 106 878 q 376 1015 253 1015 q 574 947 500 1015 q 649 729 649 878 l 649 278 q 582 68 649 138 q 403 -7 515 -1 l 403 -126 q 378 -151 403 -151 q 353 -126 353 -151 l 353 -7 q 172 67 239 -1 q 106 278 106 136 m 156 278 q 353 42 156 54 l 353 158 q 378 182 353 182 q 403 158 403 182 l 403 43 q 599 278 599 57 l 599 729 q 541 906 599 847 q 376 965 483 965 q 213 906 269 965 q 156 729 156 847 l 156 278 z "},"R":{"ha":707,"x_min":115,"x_max":658,"o":"m 115 25 l 115 992 q 140 1015 115 1013 l 372 1015 q 579 953 500 1015 q 658 750 658 890 q 425 486 658 514 l 654 40 q 658 25 658 32 q 651 7 658 14 q 633 0 644 0 q 623 3 628 0 q 613 13 618 6 q 606 24 608 19 l 600 39 q 593 50 594 50 l 371 483 l 165 483 l 165 25 q 140 0 165 0 q 115 25 115 0 m 165 533 l 372 533 q 545 586 482 533 q 608 750 608 639 q 545 913 608 861 q 372 965 482 965 l 165 965 l 165 533 z "},"S":{"ha":668,"x_min":58,"x_max":601,"o":"m 58 132 q 67 151 58 142 q 82 161 75 161 q 104 142 89 161 q 140 101 119 124 q 208 60 160 79 q 319 42 256 42 q 492 99 433 42 q 551 267 551 157 q 526 388 551 339 q 458 463 500 438 q 367 507 417 489 l 268 542 q 176 584 218 558 q 109 658 135 610 q 83 775 83 706 q 109 897 83 846 q 178 972 135 947 q 265 1006 222 996 q 357 1015 308 1015 q 508 992 440 1015 q 576 943 576 968 q 568 923 576 933 q 551 913 560 913 q 522 926 546 913 q 455 952 499 939 q 356 965 411 965 q 251 951 297 965 q 169 894 204 938 q 133 779 133 850 q 159 678 133 719 q 226 617 185 638 q 317 579 268 596 q 417 542 367 563 q 508 493 467 522 q 576 408 550 464 q 601 271 601 351 q 527 60 601 129 q 326 -8 453 -8 q 210 8 264 -8 q 125 48 157 25 q 76 94 93 71 q 58 132 58 117 z "},"T":{"ha":632,"x_min":19,"x_max":613,"o":"m 26 973 q 23 977 26 973 q 19 990 19 981 q 26 1008 19 1000 q 44 1015 33 1015 l 588 1015 q 613 992 613 1015 q 588 965 613 965 l 342 965 l 342 25 q 317 0 342 0 q 292 25 292 0 l 292 965 l 44 965 q 26 973 33 965 z "},"U":{"ha":763,"x_min":110,"x_max":653,"o":"m 110 278 l 110 992 q 135 1015 110 1015 q 160 992 160 1015 l 160 278 q 217 101 160 160 q 381 42 274 42 q 545 101 488 42 q 603 278 603 160 l 603 992 q 628 1015 603 1015 q 653 992 653 1015 l 653 278 q 578 60 653 129 q 381 -8 504 -8 q 183 60 257 -8 q 110 278 110 129 z "},"V":{"ha":721,"x_min":33,"x_max":688,"o":"m 33 993 q 58 1015 33 1015 q 83 997 78 1015 l 361 97 l 638 997 q 660 1015 643 1015 q 679 1008 671 1015 q 688 992 688 1001 q 687 988 688 990 q 686 985 686 986 l 388 11 q 361 -8 381 -8 q 336 11 342 -8 l 35 985 q 33 993 33 988 z "},"W":{"ha":1026,"x_min":36,"x_max":990,"o":"m 36 993 q 60 1015 36 1015 q 86 997 82 1015 l 336 97 l 483 632 q 514 656 490 656 q 542 632 535 656 l 692 97 l 940 997 q 967 1015 944 1015 q 990 993 990 1015 q 989 985 990 989 l 718 11 q 692 -8 711 -8 q 667 11 671 -8 l 514 556 l 363 11 q 336 -8 356 -8 q 311 11 315 -8 l 38 985 q 36 993 36 989 z "},"X":{"ha":621,"x_min":39,"x_max":582,"o":"m 39 25 q 43 40 39 32 l 282 508 l 46 972 q 39 996 39 986 q 64 1015 39 1015 q 106 965 81 1015 l 310 563 l 515 965 q 557 1015 540 1015 q 582 996 582 1015 q 575 972 582 986 l 338 508 l 578 40 q 582 25 582 32 q 574 7 582 14 q 557 0 567 0 q 547 3 551 0 q 536 13 542 6 q 531 24 533 19 l 522 39 l 517 50 l 310 454 l 104 50 q 97 39 103 50 l 92 24 q 84 13 89 19 q 74 3 79 6 q 64 0 69 0 q 46 7 53 0 q 39 25 39 14 z "},"Y":{"ha":707,"x_min":31,"x_max":675,"o":"m 31 993 q 49 1015 31 1015 q 76 992 64 1015 l 353 435 l 631 992 q 658 1015 642 1015 q 675 993 675 1015 q 668 965 675 979 l 379 388 q 378 379 378 385 l 378 25 q 353 0 378 0 q 328 25 328 0 l 328 379 q 326 388 328 385 l 39 965 q 31 993 31 982 z "},"Z":{"ha":644,"x_min":38,"x_max":608,"o":"m 38 24 q 42 40 38 32 l 528 965 l 76 965 q 51 990 51 965 q 76 1015 51 1015 l 569 1015 q 594 994 594 1015 q 588 972 594 983 l 103 50 l 583 50 q 608 25 608 50 q 583 0 608 0 l 63 0 q 38 24 38 0 z "},"[":{"ha":396,"x_min":103,"x_max":368,"o":"m 103 -6 l 103 1043 q 110 1060 103 1053 q 128 1067 118 1067 l 344 1067 q 361 1060 354 1067 q 368 1043 368 1053 q 361 1026 368 1033 q 344 1018 354 1018 l 153 1018 l 153 19 l 344 19 q 361 12 354 19 q 368 -6 368 4 q 361 -22 368 -15 q 344 -29 354 -29 l 128 -29 q 110 -22 118 -29 q 103 -6 103 -15 z "},"\\":{"ha":472,"x_min":39,"x_max":435,"o":"m 39 1021 q 47 1040 39 1033 q 64 1047 54 1047 q 83 1035 79 1047 l 433 29 q 435 21 435 26 q 411 0 435 0 q 388 17 393 0 l 40 1010 q 39 1021 39 1014 z "},"]":{"ha":396,"x_min":28,"x_max":293,"o":"m 35 -22 q 31 -19 35 -22 q 28 -6 28 -15 q 35 12 28 4 q 51 19 42 19 l 243 19 l 243 1018 l 51 1018 q 35 1026 42 1018 q 28 1043 28 1033 q 35 1060 28 1053 q 51 1067 42 1067 l 268 1067 q 285 1060 278 1067 q 293 1043 293 1053 l 293 -6 q 285 -22 293 -15 q 268 -29 278 -29 l 51 -29 q 35 -22 42 -29 z "},"^":{"ha":361,"x_min":0,"x_max":361,"o":"m 0 860 q 13 879 0 872 l 157 957 q 181 964 168 964 q 204 957 193 964 l 349 881 q 361 857 361 875 q 354 841 361 847 q 338 835 347 835 l 325 839 l 181 915 l 36 838 q 31 835 35 838 q 25 833 26 833 q 8 841 15 833 q 0 860 0 849 z "},"_":{"ha":479,"x_min":-6,"x_max":488,"o":"m -6 -25 q 18 0 -6 0 l 463 0 q 480 -8 472 0 q 488 -25 488 -15 q 480 -42 488 -35 q 463 -49 472 -49 l 18 -49 q -6 -25 -6 -49 z "},"`":{"ha":185,"x_min":0,"x_max":185,"o":"m 0 939 q 22 964 0 964 q 32 961 26 964 l 174 878 q 185 860 185 872 q 177 842 185 850 q 158 835 169 835 q 146 839 153 835 l 14 914 q 0 939 0 922 z "},"a":{"ha":588,"x_min":49,"x_max":499,"o":"m 49 175 q 131 319 49 279 q 372 358 214 358 l 450 358 l 450 397 q 404 551 450 486 q 267 615 358 615 q 197 606 229 615 q 146 588 164 597 q 122 578 128 578 q 104 588 111 578 q 97 606 97 597 q 152 645 97 626 q 269 664 207 664 q 444 588 389 664 q 499 397 499 513 l 499 25 q 475 0 499 0 q 457 7 464 0 q 450 25 450 14 l 450 97 q 242 -8 358 -8 q 102 38 156 -8 q 49 175 49 85 m 97 175 q 137 74 97 108 q 240 40 176 40 q 383 93 315 40 q 450 193 450 146 l 450 310 l 374 310 q 269 306 311 310 q 183 288 226 301 q 119 247 140 275 q 97 175 97 218 z "},"b":{"ha":650,"x_min":96,"x_max":581,"o":"m 96 25 l 96 1043 q 119 1067 96 1067 q 144 1043 144 1067 l 144 558 q 331 664 204 664 q 507 590 433 664 q 581 414 581 517 l 581 244 q 506 68 581 144 q 333 -8 432 -8 q 220 22 272 -8 q 144 97 168 53 l 144 25 q 137 8 144 15 q 119 0 129 0 q 103 8 110 0 q 96 25 96 15 m 144 193 q 203 95 144 150 q 336 40 261 40 q 473 103 414 40 q 532 244 532 165 l 532 414 q 473 553 532 492 q 335 615 414 615 q 202 560 260 615 q 144 414 144 504 l 144 193 z "},"c":{"ha":558,"x_min":72,"x_max":517,"o":"m 72 244 l 72 411 q 137 594 72 524 q 326 664 201 664 q 456 635 403 664 q 508 582 508 607 q 501 565 508 572 q 483 558 493 558 q 459 572 476 558 q 408 601 442 586 q 326 615 375 615 q 174 561 228 615 q 121 411 121 507 l 121 244 q 174 94 121 149 q 328 40 228 40 q 415 55 379 40 q 467 83 450 69 q 493 97 485 97 q 510 90 503 97 q 517 74 517 83 q 462 19 517 47 q 326 -8 407 -8 q 137 61 201 -8 q 72 244 72 131 z "},"d":{"ha":650,"x_min":69,"x_max":554,"o":"m 69 244 l 69 414 q 143 590 69 517 q 319 664 217 664 q 506 558 446 664 l 506 1043 q 531 1067 506 1067 q 554 1043 554 1067 l 554 25 q 547 8 554 15 q 531 0 540 0 q 513 8 521 0 q 506 25 506 15 l 506 97 q 430 22 482 53 q 317 -8 378 -8 q 144 68 218 -8 q 69 244 69 144 m 118 244 q 177 103 118 165 q 314 40 236 40 q 447 95 389 40 q 506 193 506 150 l 506 414 q 448 560 506 504 q 315 615 390 615 q 177 553 236 615 q 118 414 118 492 l 118 244 z "},"e":{"ha":618,"x_min":71,"x_max":564,"o":"m 71 244 l 71 418 q 144 591 71 518 q 318 664 217 664 q 491 592 418 664 q 564 414 564 521 q 556 356 564 378 q 528 324 547 333 q 492 312 508 314 q 449 310 476 310 l 119 310 l 119 244 q 185 96 119 151 q 354 40 250 40 q 440 55 406 40 q 492 83 475 69 q 518 97 510 97 q 535 89 528 97 q 543 72 543 81 q 521 40 543 58 q 453 6 499 21 q 351 -8 407 -8 q 149 62 228 -8 q 71 244 71 132 m 119 358 l 432 358 q 499 368 483 358 q 515 410 515 378 q 460 552 515 489 q 318 615 404 615 q 177 556 235 615 q 119 418 119 497 l 119 358 z "},"f":{"ha":401,"x_min":96,"x_max":382,"o":"m 96 24 l 96 819 q 169 993 96 919 q 343 1067 243 1067 l 357 1067 q 374 1060 367 1067 q 382 1042 382 1053 q 357 1018 382 1018 l 343 1018 q 203 958 261 1018 q 144 819 146 899 l 144 656 l 357 656 q 374 649 367 656 q 382 632 382 642 q 374 615 382 622 q 357 607 367 607 l 144 607 l 144 24 q 137 7 144 14 q 118 0 129 0 q 96 24 96 0 z "},"g":{"ha":619,"x_min":44,"x_max":604,"o":"m 44 -150 q 171 4 44 -40 q 86 103 86 28 q 154 199 86 167 q 82 374 82 263 l 82 436 q 144 601 82 538 q 306 664 206 664 q 471 597 407 664 q 519 658 490 633 q 575 682 549 682 q 604 654 604 682 q 597 635 604 642 q 579 628 589 628 q 496 564 529 628 q 531 436 531 515 l 531 374 q 467 208 531 274 q 304 143 404 143 q 190 172 240 143 q 135 106 135 147 q 167 56 135 74 q 249 35 200 39 q 354 23 297 31 q 460 3 411 15 q 541 -47 508 -10 q 574 -142 574 -83 q 504 -280 574 -231 q 314 -329 435 -329 q 118 -281 192 -329 q 44 -150 44 -232 m 93 -146 q 152 -247 93 -208 q 314 -285 211 -285 q 470 -247 415 -285 q 525 -143 525 -208 q 509 -88 525 -111 q 471 -53 493 -65 q 415 -32 449 -40 q 353 -21 381 -24 q 290 -15 326 -18 q 239 -10 254 -12 q 93 -146 93 -51 m 131 375 q 178 243 131 294 q 307 192 225 192 q 434 243 386 192 q 482 374 482 294 l 482 436 q 435 565 482 514 q 306 615 388 615 q 178 565 225 615 q 131 436 131 514 l 131 375 z "},"h":{"ha":669,"x_min":96,"x_max":581,"o":"m 96 25 l 96 1043 q 119 1067 96 1067 q 144 1043 144 1067 l 144 558 q 331 664 204 664 q 507 590 433 664 q 581 414 581 517 l 581 25 q 556 0 581 0 q 532 25 532 0 l 532 414 q 473 553 532 492 q 335 615 414 615 q 202 560 260 615 q 144 414 144 504 l 144 25 q 137 8 144 15 q 119 0 129 0 q 103 8 110 0 q 96 25 96 15 z "},"i":{"ha":238,"x_min":74,"x_max":161,"o":"m 87 885 q 80 892 87 885 q 74 917 74 899 q 87 947 74 935 q 118 960 100 960 q 149 947 136 960 q 161 917 161 935 q 149 885 161 899 q 118 872 136 872 q 87 885 100 872 m 94 25 l 94 632 q 101 649 94 642 q 118 656 108 656 q 143 632 143 656 l 143 25 q 135 8 143 15 q 118 0 128 0 q 101 8 108 0 q 94 25 94 15 z "},"j":{"ha":240,"x_min":-50,"x_max":163,"o":"m -50 -304 q -25 -281 -50 -281 q 72 -227 49 -281 q 96 -67 96 -174 l 96 632 q 119 656 96 656 q 144 632 144 656 l 144 -67 q -25 -329 144 -329 q -42 -322 -35 -329 q -50 -304 -50 -314 m 88 885 q 82 892 88 885 q 75 917 75 899 q 88 947 75 935 q 119 960 101 960 q 150 947 138 960 q 163 917 163 935 q 150 885 163 899 q 119 872 138 872 q 88 885 101 872 z "},"k":{"ha":607,"x_min":96,"x_max":589,"o":"m 96 25 l 96 1043 q 119 1067 96 1067 q 144 1043 144 1067 l 144 324 l 519 650 q 533 656 528 656 q 560 633 560 656 q 551 613 560 619 l 328 418 l 585 39 q 589 25 589 33 q 582 8 589 15 q 565 0 575 0 q 546 13 554 0 l 290 386 l 144 258 l 144 25 q 137 8 144 15 q 119 0 129 0 q 103 8 110 0 q 96 25 96 15 z "},"l":{"ha":263,"x_min":107,"x_max":156,"o":"m 107 25 l 107 1043 q 131 1067 107 1067 q 156 1043 156 1067 l 156 25 q 148 8 156 15 q 131 0 140 0 q 114 8 121 0 q 107 25 107 15 z "},"m":{"ha":1065,"x_min":94,"x_max":976,"o":"m 94 25 l 94 632 q 118 656 94 656 q 143 632 143 656 l 143 558 q 329 664 203 664 q 455 626 400 664 q 538 525 510 588 q 629 628 572 593 q 749 664 686 664 q 909 596 842 664 q 976 414 976 528 l 976 25 q 969 8 976 15 q 951 0 961 0 q 935 8 942 0 q 928 25 928 15 l 928 414 q 873 562 928 508 q 747 615 818 615 q 617 560 674 615 q 560 422 560 506 l 560 24 q 535 0 560 0 q 511 24 511 0 l 511 421 q 459 559 511 503 q 332 615 407 615 q 200 560 257 615 q 143 414 143 504 l 143 25 q 135 8 143 15 q 118 0 128 0 q 101 8 108 0 q 94 25 94 15 z "},"n":{"ha":668,"x_min":94,"x_max":579,"o":"m 94 25 l 94 632 q 118 656 94 656 q 143 632 143 656 l 143 558 q 329 664 203 664 q 506 590 432 664 q 579 414 579 517 l 579 25 q 554 0 579 0 q 531 25 531 0 l 531 414 q 472 553 531 492 q 333 615 413 615 q 201 560 258 615 q 143 414 143 504 l 143 25 q 135 8 143 15 q 118 0 128 0 q 101 8 108 0 q 94 25 94 15 z "},"o":{"ha":632,"x_min":69,"x_max":563,"o":"m 69 244 l 69 414 q 142 589 69 514 q 315 664 215 664 q 489 590 415 664 q 563 414 563 517 l 563 244 q 488 68 563 144 q 315 -8 414 -8 q 143 68 217 -8 q 69 244 69 144 m 118 244 q 176 103 118 165 q 315 40 235 40 q 455 103 396 40 q 514 244 514 165 l 514 414 q 456 553 514 492 q 315 615 397 615 q 176 553 233 615 q 118 414 118 492 l 118 244 z "},"p":{"ha":650,"x_min":96,"x_max":581,"o":"m 96 -304 l 96 632 q 119 656 96 656 q 144 632 144 656 l 144 558 q 331 664 204 664 q 507 590 433 664 q 581 414 581 517 l 581 244 q 506 68 581 144 q 333 -8 432 -8 q 220 22 272 -8 q 144 97 168 53 l 144 -304 q 137 -322 144 -314 q 119 -329 129 -329 q 103 -322 110 -329 q 96 -304 96 -314 m 144 193 q 203 95 144 150 q 336 40 261 40 q 473 103 414 40 q 532 244 532 165 l 532 414 q 473 553 532 492 q 335 615 414 615 q 202 560 260 615 q 144 414 144 504 l 144 193 z "},"q":{"ha":650,"x_min":69,"x_max":554,"o":"m 69 244 l 69 414 q 143 590 69 517 q 319 664 217 664 q 506 558 446 664 l 506 632 q 531 656 506 656 q 554 632 554 656 l 554 -304 q 547 -322 554 -314 q 531 -329 540 -329 q 513 -322 521 -329 q 506 -304 506 -314 l 506 97 q 430 22 482 53 q 317 -8 378 -8 q 144 68 218 -8 q 69 244 69 144 m 118 244 q 177 103 118 165 q 314 40 236 40 q 447 95 389 40 q 506 193 506 150 l 506 414 q 448 560 506 504 q 315 615 390 615 q 177 553 236 615 q 118 414 118 492 l 118 244 z "},"r":{"ha":428,"x_min":94,"x_max":411,"o":"m 94 25 l 94 632 q 118 656 94 656 q 143 632 143 656 l 143 558 q 336 664 206 664 l 388 664 q 404 656 397 664 q 411 639 411 649 q 404 622 411 629 q 388 615 397 615 l 336 615 q 201 560 258 615 q 143 414 143 504 l 143 25 q 135 8 143 15 q 118 0 128 0 q 101 8 108 0 q 94 25 94 15 z "},"s":{"ha":518,"x_min":53,"x_max":465,"o":"m 53 82 q 59 99 53 92 q 72 106 65 106 q 93 94 79 106 l 122 72 q 174 51 139 61 q 254 40 210 40 q 376 72 336 40 q 417 156 417 104 q 381 249 417 215 q 293 299 344 283 l 190 331 q 103 384 139 347 q 67 483 67 421 q 119 609 67 554 q 272 664 172 664 q 388 644 333 664 q 442 606 442 625 q 434 588 442 597 q 418 578 426 578 q 370 597 417 578 q 274 615 324 615 q 154 574 193 615 q 115 485 115 533 q 151 406 115 435 q 239 363 188 376 q 342 332 290 349 q 429 272 393 315 q 465 158 465 229 q 410 36 465 81 q 256 -8 354 -8 q 111 22 169 -8 q 53 82 53 53 z "},"t":{"ha":378,"x_min":92,"x_max":351,"o":"m 92 193 l 92 953 q 99 969 92 963 q 115 976 107 976 q 133 969 125 976 q 140 953 140 963 l 140 656 l 328 656 q 344 648 338 656 q 351 631 351 640 q 344 614 351 621 q 328 607 338 607 l 140 607 l 140 193 q 175 81 140 114 q 294 49 210 49 l 326 49 q 343 42 336 49 q 350 25 350 35 q 343 8 350 15 q 326 0 336 0 l 294 0 q 92 193 92 0 z "},"u":{"ha":671,"x_min":89,"x_max":582,"o":"m 89 242 l 89 631 q 97 648 89 640 q 114 656 104 656 q 131 648 124 656 q 138 631 138 640 l 138 242 q 196 101 138 163 q 336 40 254 40 q 475 101 417 40 q 533 242 533 163 l 533 632 q 541 649 533 642 q 558 656 549 656 q 575 649 568 656 q 582 632 582 642 l 582 242 q 509 67 582 142 q 336 -8 436 -8 q 162 67 235 -8 q 89 242 89 142 z "},"v":{"ha":544,"x_min":26,"x_max":518,"o":"m 26 631 q 34 649 26 642 q 51 656 42 656 q 75 640 68 656 l 272 94 l 468 632 l 469 639 q 473 645 472 644 q 476 650 474 646 q 483 655 479 654 q 492 656 486 656 q 510 649 501 656 q 518 632 518 642 q 513 611 518 628 l 296 8 q 272 -8 289 -8 q 249 8 256 -8 l 32 611 q 26 631 26 628 z "},"w":{"ha":908,"x_min":26,"x_max":882,"o":"m 26 631 q 34 649 26 642 q 51 656 42 656 q 75 640 68 656 l 271 97 l 431 600 q 456 618 438 618 q 481 600 474 618 l 635 90 l 835 640 q 857 656 839 656 q 882 632 882 656 q 876 613 882 624 l 658 8 q 638 -8 653 -8 q 618 7 625 -8 l 456 528 l 296 15 q 272 -8 288 -8 q 258 -4 263 -8 q 249 15 254 0 l 32 613 q 26 631 26 624 z "},"x":{"ha":529,"x_min":38,"x_max":493,"o":"m 38 15 q 42 29 38 22 l 235 331 l 42 626 q 38 639 38 633 q 45 657 38 650 q 63 664 53 664 q 83 653 76 664 l 265 375 l 449 653 q 468 664 456 664 q 485 657 478 664 q 493 639 493 650 q 489 626 493 633 l 294 331 l 489 29 q 493 15 493 22 q 485 -1 493 6 q 468 -8 478 -8 q 449 3 456 -8 l 265 285 l 83 3 q 63 -8 75 -8 q 45 -1 53 -8 q 38 15 38 6 z "},"y":{"ha":549,"x_min":25,"x_max":522,"o":"m 25 640 q 33 657 25 650 q 51 664 40 664 q 74 649 69 664 l 275 93 l 475 649 q 497 664 482 664 q 522 640 522 664 q 521 632 522 635 l 299 18 l 271 -58 q 241 -132 263 -81 q 202 -210 219 -183 q 160 -268 185 -236 q 108 -315 136 -300 q 50 -329 81 -329 q 33 -322 40 -329 q 26 -306 26 -315 q 47 -281 26 -281 q 93 -269 71 -281 q 135 -231 115 -258 q 167 -183 154 -204 q 199 -117 181 -162 q 225 -53 218 -71 l 250 18 l 28 632 q 25 640 25 638 z "},"z":{"ha":535,"x_min":36,"x_max":499,"o":"m 36 22 q 42 39 36 33 l 413 607 l 75 607 q 58 614 65 607 q 50 631 50 621 q 57 649 50 642 q 75 656 64 656 l 460 656 q 477 649 469 656 q 485 631 485 642 q 481 617 485 622 l 108 49 l 474 49 q 491 41 483 49 q 499 24 499 33 q 491 7 499 14 q 474 0 483 0 l 61 0 q 36 22 36 0 z "},"{":{"ha":396,"x_min":47,"x_max":368,"o":"m 60 512 q 54 515 60 512 q 47 533 47 518 q 60 554 47 549 q 89 560 74 560 q 117 566 104 560 q 131 586 131 572 q 116 708 131 597 q 101 843 101 819 q 173 1000 101 933 q 344 1067 244 1067 q 361 1060 354 1067 q 368 1043 368 1053 q 361 1026 368 1033 q 344 1018 354 1018 q 206 964 261 1018 q 151 839 151 910 q 166 706 151 815 q 181 586 181 597 q 165 551 181 565 q 133 533 150 538 q 181 482 181 518 q 166 337 181 468 q 151 176 151 206 q 172 101 151 133 q 225 52 193 68 q 288 28 257 36 q 344 21 318 21 q 368 -3 368 21 q 360 -21 368 -14 q 344 -28 353 -28 q 171 30 240 -28 q 101 179 101 88 q 116 338 101 204 q 131 482 131 471 q 117 501 131 496 q 89 506 104 507 q 60 512 74 506 z "},"|":{"ha":256,"x_min":103,"x_max":153,"o":"m 103 -6 l 103 1043 q 110 1060 103 1053 q 128 1067 118 1067 q 145 1060 138 1067 q 153 1043 153 1053 l 153 -6 q 145 -22 153 -15 q 128 -29 138 -29 q 110 -22 118 -29 q 103 -6 103 -15 z "},"}":{"ha":396,"x_min":28,"x_max":349,"o":"m 28 -3 q 51 21 28 21 q 108 28 78 21 q 171 52 139 36 q 224 101 203 68 q 244 176 244 133 q 230 337 244 206 q 215 482 215 468 q 230 515 215 501 q 263 533 244 528 q 231 551 246 538 q 215 586 215 565 q 230 706 215 597 q 244 839 244 815 q 190 964 244 910 q 51 1018 135 1018 q 35 1026 42 1018 q 28 1043 28 1033 q 35 1060 28 1053 q 51 1067 42 1067 q 223 1000 151 1067 q 294 843 294 933 q 280 708 294 819 q 265 586 265 597 q 278 566 265 572 q 307 560 292 560 q 335 554 322 560 q 349 533 349 549 q 335 512 349 518 q 307 506 322 506 q 278 501 292 507 q 265 482 265 496 q 280 338 265 471 q 294 179 294 204 q 225 30 294 88 q 51 -28 156 -28 q 35 -21 43 -28 q 28 -3 28 -14 z "},"~":{"ha":556,"x_min":74,"x_max":483,"o":"m 74 336 q 116 385 74 363 q 197 408 158 408 q 284 383 231 408 q 374 357 338 357 q 419 368 401 357 q 446 390 436 379 q 464 401 456 401 q 483 381 483 401 q 444 331 483 351 q 367 310 404 310 q 281 335 335 310 q 188 361 228 361 q 142 349 161 361 q 110 324 122 336 q 92 313 99 313 q 74 336 74 313 z "}," ":{"ha":278,"x_min":0,"x_max":0,"o":""},"¡":{"ha":268,"x_min":85,"x_max":183,"o":"m 99 953 q 92 961 99 953 q 85 989 85 968 q 99 1024 85 1010 q 135 1039 114 1039 q 169 1024 154 1039 q 183 989 183 1008 q 169 953 183 968 q 135 939 154 939 q 99 953 113 939 m 97 35 q 105 419 97 160 q 113 804 113 679 q 119 820 113 814 q 133 826 125 826 q 148 820 140 826 q 156 804 156 814 q 163 419 156 679 q 171 35 171 160 q 160 3 171 14 q 133 -8 150 -8 q 97 35 97 -8 z "},"¢":{"ha":564,"x_min":57,"x_max":501,"o":"m 57 494 l 57 522 q 106 688 57 621 q 254 771 156 754 l 254 940 q 262 957 254 950 q 279 964 269 964 q 297 957 289 964 q 304 940 304 950 l 304 775 q 442 750 382 775 q 501 694 501 725 q 493 676 501 683 q 475 669 485 669 q 449 683 467 669 q 395 712 432 697 q 304 726 358 726 l 304 290 q 395 305 358 290 q 449 333 432 319 q 475 347 467 347 q 493 340 485 347 q 501 322 501 333 q 440 266 501 290 q 304 242 378 242 l 304 79 q 297 63 304 69 q 279 56 289 56 q 262 63 269 56 q 254 79 254 69 l 254 246 q 108 328 158 261 q 57 494 57 396 m 106 494 q 254 296 106 325 l 254 721 q 106 522 106 690 l 106 494 z "},"£":{"ha":640,"x_min":35,"x_max":582,"o":"m 60 0 q 35 25 35 0 q 60 50 35 50 l 147 50 l 211 510 l 92 510 q 68 533 68 510 q 92 558 68 558 l 218 558 l 256 819 q 353 994 271 921 q 538 1067 435 1067 l 554 1067 q 582 1042 582 1067 q 574 1025 582 1032 q 554 1018 567 1018 l 531 1018 q 382 958 449 1018 q 304 819 315 899 l 267 558 l 493 558 q 515 533 515 558 q 493 510 515 510 l 260 510 l 194 50 l 560 50 q 582 25 582 50 q 560 0 582 0 l 60 0 z "},"¤":{"ha":679,"x_min":94,"x_max":589,"o":"m 101 422 q 98 426 101 422 q 94 439 94 429 q 101 456 94 449 l 149 503 q 96 656 96 571 q 147 807 96 740 l 111 844 q 104 863 104 851 q 112 879 104 872 q 129 886 119 886 q 146 879 139 886 l 181 843 q 342 906 250 906 q 494 850 425 906 l 533 889 q 551 896 540 896 q 568 889 561 896 q 575 872 575 882 q 568 854 575 861 l 529 815 q 589 656 589 747 q 528 496 589 568 l 568 456 q 575 439 575 446 q 568 423 575 431 q 551 415 561 415 q 535 422 540 415 l 494 461 q 342 403 425 403 q 181 468 253 403 l 135 422 q 118 415 128 415 q 101 422 108 415 m 149 656 q 206 517 149 578 q 342 456 263 456 q 478 517 421 456 q 536 656 536 578 q 478 792 536 732 q 342 853 421 853 q 206 792 263 853 q 149 656 149 732 z "},"¥":{"ha":665,"x_min":38,"x_max":629,"o":"m 38 992 q 44 1008 38 1000 q 63 1015 51 1015 q 86 1001 78 1015 l 328 521 l 583 1001 q 607 1015 592 1015 q 629 992 629 1015 q 628 982 629 985 l 364 479 l 533 479 q 551 472 543 479 q 558 454 558 464 q 551 438 558 444 q 533 431 543 431 l 351 431 l 351 322 l 533 322 q 551 315 543 322 q 558 297 558 307 q 551 281 558 288 q 533 274 543 274 l 351 274 l 351 24 q 344 7 351 14 q 328 0 338 0 q 310 7 318 0 q 303 24 303 14 l 303 274 l 131 274 q 107 297 107 274 q 131 322 107 322 l 303 322 l 303 431 l 131 431 q 107 454 107 431 q 131 479 107 479 l 290 479 l 40 982 q 38 992 38 988 z "},"¦":{"ha":258,"x_min":104,"x_max":154,"o":"m 104 -6 l 104 386 q 112 403 104 396 q 129 410 119 410 q 147 403 139 410 q 154 386 154 396 l 154 -6 q 147 -22 154 -15 q 129 -29 139 -29 q 112 -22 119 -29 q 104 -6 104 -15 m 104 651 l 104 1043 q 112 1060 104 1053 q 129 1067 119 1067 q 147 1060 139 1067 q 154 1043 154 1053 l 154 651 q 147 635 154 642 q 129 628 139 628 q 112 635 119 628 q 104 651 104 642 z "},"§":{"ha":640,"x_min":72,"x_max":560,"o":"m 72 138 q 99 165 72 165 q 122 140 122 165 q 166 17 122 76 q 311 -42 210 -42 q 458 10 406 -42 q 510 157 510 61 q 487 245 510 210 q 428 299 464 281 q 348 331 392 317 q 260 360 304 344 q 179 400 215 376 q 120 468 143 424 q 97 576 97 513 l 97 760 q 119 886 97 833 q 176 965 140 939 q 247 1003 211 992 q 324 1015 283 1015 q 480 956 425 1015 q 535 796 535 896 q 508 765 535 765 q 482 800 482 765 q 447 913 482 860 q 326 965 411 965 q 201 917 254 965 q 147 760 147 868 q 190 649 147 689 q 292 589 232 608 l 414 550 q 517 478 475 529 q 560 340 560 426 l 560 160 q 493 -28 560 35 q 319 -92 426 -92 q 141 -26 210 -92 q 72 138 72 40 m 147 579 q 174 478 147 518 q 246 417 201 438 q 337 383 290 397 q 433 347 383 369 q 510 292 482 324 l 510 338 q 483 439 510 399 q 411 499 456 479 q 320 532 367 518 q 224 569 274 546 q 147 624 175 592 l 147 579 z "},"¨":{"ha":236,"x_min":0,"x_max":236,"o":"m 12 845 q 6 851 12 845 q 0 875 0 857 q 12 904 0 893 q 42 915 24 915 q 71 904 60 915 q 82 875 82 893 q 71 845 82 857 q 42 833 60 833 q 12 845 24 833 m 166 845 q 160 851 166 845 q 154 875 154 857 q 166 904 154 893 q 196 915 178 915 q 225 904 214 915 q 236 875 236 893 q 225 845 236 857 q 196 833 214 833 q 166 845 178 833 z "},"©":{"ha":1011,"x_min":79,"x_max":932,"o":"m 79 497 q 119 698 79 608 q 222 841 158 788 q 360 923 286 894 q 510 951 435 951 q 658 923 585 951 q 794 841 732 894 q 894 699 856 788 q 932 503 932 611 q 892 302 932 392 q 789 159 853 213 q 651 77 725 106 q 501 49 576 49 q 353 77 426 49 q 217 159 279 106 q 117 301 156 213 q 79 497 79 389 m 128 497 q 231 210 128 322 q 501 97 335 97 q 776 210 668 97 q 883 503 883 324 q 780 790 883 678 q 510 903 676 903 q 235 790 343 903 q 128 497 128 676 m 371 393 l 371 625 q 409 747 371 707 q 507 786 447 786 q 606 749 569 786 q 643 660 643 713 q 638 635 643 642 q 618 629 632 629 q 593 649 593 629 q 508 739 589 739 q 421 625 421 739 l 421 393 q 510 279 421 279 q 552 288 535 279 q 577 313 569 296 q 588 342 585 331 q 593 372 590 353 q 618 392 596 392 q 643 361 643 392 q 606 270 643 307 q 506 233 568 233 q 408 272 446 233 q 371 393 371 311 z "},"ª":{"ha":425,"x_min":54,"x_max":350,"o":"m 54 711 q 106 802 54 776 q 256 828 157 828 l 300 828 l 300 849 q 274 935 300 899 q 196 971 249 971 q 133 958 161 971 q 104 946 106 946 q 83 972 83 946 q 120 1001 83 988 q 197 1015 157 1015 q 313 968 276 1015 q 350 849 350 921 l 350 624 q 325 603 350 603 q 308 609 315 603 q 301 624 301 615 l 301 663 q 181 599 249 603 q 146 600 157 599 q 54 711 54 614 m 104 714 q 126 659 104 678 q 182 640 147 640 q 263 671 225 640 q 300 732 300 701 l 300 790 l 257 790 q 144 775 185 790 q 104 714 104 760 z "},"«":{"ha":501,"x_min":56,"x_max":444,"o":"m 63 361 q 56 385 56 372 q 63 408 56 397 l 196 656 q 219 668 203 668 q 235 661 229 668 q 242 644 242 654 q 238 632 242 639 l 104 385 l 238 139 q 242 126 242 133 q 234 110 242 117 q 217 103 226 103 q 196 115 203 103 l 63 361 m 265 361 q 258 385 258 372 q 265 408 258 397 l 399 656 q 422 668 406 668 q 438 661 432 668 q 444 644 444 654 q 440 632 444 639 l 307 385 l 440 139 q 444 126 444 133 q 437 110 444 117 q 419 103 429 103 q 399 115 406 103 l 265 361 z "},"¬":{"ha":665,"x_min":85,"x_max":564,"o":"m 85 333 q 108 358 85 358 l 539 358 q 556 351 549 358 q 564 333 564 343 l 564 111 q 540 88 564 88 q 515 111 515 88 l 515 310 l 108 310 q 85 333 85 310 z "},"­":{"ha":632,"x_min":69,"x_max":563,"o":"m 69 333 q 93 358 69 358 l 538 358 q 555 351 547 358 q 563 333 563 343 q 555 317 563 324 q 538 310 547 310 l 93 310 q 69 333 69 310 z "},"®":{"ha":1011,"x_min":79,"x_max":932,"o":"m 79 497 q 119 698 79 608 q 222 841 158 788 q 360 923 286 894 q 510 951 435 951 q 658 923 585 951 q 794 841 732 894 q 894 699 856 788 q 932 503 932 611 q 892 302 932 392 q 789 159 853 213 q 651 77 725 106 q 501 49 576 49 q 353 77 426 49 q 217 159 279 106 q 117 301 156 213 q 79 497 79 389 m 128 497 q 231 210 128 322 q 501 97 335 97 q 776 210 668 97 q 883 503 883 324 q 780 790 883 678 q 510 903 676 903 q 235 790 343 903 q 128 497 128 676 m 382 254 l 382 764 q 400 783 382 781 l 517 783 q 657 635 657 783 q 560 490 657 510 l 656 269 q 658 260 658 261 q 649 242 658 250 q 629 233 640 233 q 606 260 617 233 l 504 485 l 432 485 l 432 254 q 407 235 432 235 q 382 254 382 235 m 432 528 l 517 528 q 607 632 607 528 q 517 736 607 736 l 432 736 l 432 528 z "},"¯":{"ha":354,"x_min":0,"x_max":354,"o":"m 0 922 q 24 947 0 947 l 329 947 q 347 940 339 947 q 354 922 354 932 q 347 906 354 913 q 329 899 339 899 l 24 899 q 0 922 0 899 z "},"°":{"ha":596,"x_min":51,"x_max":544,"o":"m 125 640 q 88 678 125 640 q 51 817 51 717 q 124 992 51 917 q 297 1067 197 1067 q 471 993 397 1067 q 544 817 544 919 q 470 640 544 717 q 297 564 396 564 q 125 640 199 564 m 104 817 q 161 678 104 739 q 297 617 218 617 q 434 678 376 617 q 492 817 492 739 q 434 953 492 893 q 297 1014 376 1014 q 161 953 218 1014 q 104 817 104 893 z "},"±":{"ha":663,"x_min":85,"x_max":578,"o":"m 85 118 q 108 143 85 143 l 553 143 q 570 135 563 143 q 578 118 578 128 q 570 101 578 108 q 553 94 563 94 l 108 94 q 85 118 85 94 m 85 479 q 108 504 85 504 l 307 504 l 307 701 q 315 719 307 711 q 332 726 322 726 q 349 719 342 726 q 356 701 356 711 l 356 504 l 553 504 q 570 497 563 504 q 578 479 578 489 q 570 463 578 469 q 553 456 563 456 l 356 456 l 356 257 q 332 233 356 233 q 307 257 307 233 l 307 456 l 108 456 q 85 479 85 456 z "},"²":{"ha":415,"x_min":51,"x_max":368,"o":"m 51 525 l 51 592 q 78 653 51 624 q 144 708 106 683 l 222 758 q 288 815 261 783 q 315 879 315 846 q 287 943 315 915 q 207 971 258 971 q 138 950 164 971 q 111 889 111 929 q 86 871 111 871 q 64 899 64 871 q 105 983 64 950 q 208 1015 146 1015 q 318 976 275 1015 q 361 881 361 938 q 320 786 361 831 q 230 715 279 742 q 140 656 181 689 q 99 592 99 622 l 99 550 l 350 550 q 368 529 368 550 q 363 514 368 521 q 350 507 357 507 l 74 507 q 51 525 51 507 z "},"³":{"ha":425,"x_min":47,"x_max":367,"o":"m 47 618 q 68 642 47 642 q 93 622 93 642 q 119 570 93 594 q 206 546 146 546 q 321 650 321 546 l 321 663 q 207 754 321 754 q 188 774 188 754 q 207 794 188 794 q 281 815 257 794 q 306 883 306 835 q 210 972 306 972 q 130 950 153 972 q 107 899 107 928 q 85 876 107 876 q 66 882 71 876 q 61 903 61 888 q 95 979 61 943 q 211 1015 129 1015 q 351 893 351 1015 q 288 775 351 801 q 367 663 367 746 l 367 650 q 323 538 367 574 q 207 503 279 503 q 90 538 132 503 q 47 618 47 574 z "},"´":{"ha":185,"x_min":0,"x_max":185,"o":"m 0 860 q 11 878 0 872 l 153 961 q 163 964 158 964 q 185 939 185 964 q 171 914 185 922 l 39 839 q 26 835 33 835 q 8 842 15 835 q 0 860 0 850 z "},"µ":{"ha":663,"x_min":107,"x_max":592,"o":"m 107 -306 l 107 631 q 114 648 107 640 q 131 656 121 656 q 148 648 140 656 q 156 631 156 640 l 156 208 q 219 99 156 158 q 356 40 283 40 q 486 103 429 40 q 543 242 543 165 l 543 631 q 567 656 543 656 q 592 631 592 656 l 592 242 q 523 65 592 138 q 353 -8 454 -8 q 233 22 286 -8 q 156 97 181 53 l 156 -306 q 131 -329 156 -329 q 107 -306 107 -329 z "},"¶":{"ha":711,"x_min":53,"x_max":596,"o":"m 53 713 l 53 729 q 127 947 53 878 q 325 1015 201 1015 l 571 1015 q 596 990 596 1015 l 596 24 q 571 0 596 0 q 546 24 546 0 l 546 965 l 442 965 l 442 25 q 417 0 442 0 q 392 25 392 0 l 392 425 l 325 425 q 127 494 201 425 q 53 713 53 564 z "},"·":{"ha":244,"x_min":74,"x_max":172,"o":"m 88 381 q 81 389 88 381 q 74 417 74 396 q 88 452 74 438 q 124 467 101 467 q 158 452 143 467 q 172 417 172 438 q 158 382 172 397 q 124 367 143 367 q 88 381 103 367 z "},"¸":{"ha":217,"x_min":0,"x_max":217,"o":"m 0 -254 q 6 -238 0 -247 q 17 -229 11 -229 l 42 -239 q 94 -247 67 -247 q 171 -190 171 -247 q 74 -128 171 -135 l 33 -125 l 67 13 l 111 13 l 86 -90 q 185 -120 153 -92 q 217 -187 217 -149 q 185 -258 217 -228 q 103 -287 154 -287 q 35 -278 71 -287 q 0 -254 0 -269 z "},"¹":{"ha":219,"x_min":32,"x_max":143,"o":"m 32 903 q 42 924 32 914 l 104 1006 q 124 1015 111 1015 q 143 997 143 1015 l 143 525 q 121 507 143 507 q 97 525 97 507 l 97 936 l 65 892 q 51 883 60 883 q 38 890 43 883 q 32 903 32 896 z "},"º":{"ha":444,"x_min":61,"x_max":383,"o":"m 61 758 l 61 856 q 108 967 61 919 q 222 1015 156 1015 q 335 968 288 1015 q 383 856 383 921 l 383 758 q 335 646 383 694 q 222 597 286 597 q 110 646 158 597 q 61 758 61 694 m 111 758 q 144 678 111 714 q 222 643 176 643 q 300 678 267 643 q 333 758 333 714 l 333 856 q 301 934 333 900 q 222 968 268 968 q 144 934 176 968 q 111 856 111 900 l 111 758 z "},"»":{"ha":501,"x_min":57,"x_max":446,"o":"m 57 126 q 61 139 57 133 l 194 385 l 61 632 q 57 644 57 639 q 63 661 57 654 q 79 668 69 668 q 103 656 97 668 l 236 408 q 243 385 243 397 q 236 361 243 372 l 103 115 q 82 103 96 103 q 65 110 72 103 q 57 126 57 117 m 260 126 q 264 139 260 133 l 397 385 l 264 632 q 260 644 260 639 q 266 661 260 654 q 282 668 272 668 q 306 656 300 668 l 439 408 q 446 385 446 397 q 439 361 446 372 l 306 115 q 285 103 299 103 q 267 110 275 103 q 260 126 260 117 z "},"¼":{"ha":804,"x_min":49,"x_max":765,"o":"m 49 903 q 58 924 49 914 l 121 1006 q 140 1015 128 1015 q 160 997 160 1015 l 160 525 q 138 507 160 507 q 114 525 114 507 l 114 936 l 82 892 q 68 883 76 883 q 54 890 60 883 q 49 903 49 896 m 96 -7 q 99 6 96 1 l 642 1056 q 660 1067 647 1067 q 676 1059 668 1067 q 685 1040 685 1051 q 681 1025 685 1033 l 142 -12 q 118 -28 133 -28 q 96 -7 96 -28 m 439 139 q 442 150 439 142 l 638 493 q 660 508 646 508 q 676 503 668 508 q 683 489 683 497 q 681 479 683 485 l 499 164 l 657 164 l 657 297 q 679 314 657 314 q 703 297 703 314 l 703 164 l 746 164 q 765 142 765 164 q 760 126 765 133 q 746 119 754 119 l 703 119 l 703 18 q 679 0 703 0 q 657 18 657 0 l 657 119 l 457 119 q 439 139 439 119 z "},"½":{"ha":844,"x_min":54,"x_max":793,"o":"m 54 903 q 64 924 54 914 l 126 1006 q 146 1015 133 1015 q 165 997 165 1015 l 165 525 q 143 507 165 507 q 119 525 119 507 l 119 936 l 88 892 q 74 883 82 883 q 60 890 65 883 q 54 903 54 896 m 79 -7 q 82 6 79 1 l 625 1056 q 643 1067 631 1067 q 660 1059 651 1067 q 668 1040 668 1051 q 664 1025 668 1033 l 125 -12 q 101 -28 117 -28 q 79 -7 79 -28 m 476 18 l 476 85 q 503 147 476 117 q 569 201 531 176 l 647 251 q 713 308 686 276 q 740 372 740 339 q 712 436 740 408 q 632 464 683 464 q 563 443 589 464 q 536 382 536 422 q 511 364 536 364 q 489 392 489 364 q 530 476 489 443 q 633 508 571 508 q 743 469 700 508 q 786 374 786 431 q 745 279 786 324 q 655 208 704 235 q 565 149 606 182 q 524 85 524 115 l 524 43 l 775 43 q 793 22 793 43 q 788 7 793 14 q 775 0 782 0 l 499 0 q 476 18 476 0 z "},"¾":{"ha":982,"x_min":50,"x_max":944,"o":"m 50 618 q 71 642 50 642 q 96 622 96 642 q 122 570 96 594 q 208 546 149 546 q 324 650 324 546 l 324 663 q 210 754 324 754 q 190 774 190 754 q 210 794 190 794 q 284 815 260 794 q 308 883 308 835 q 213 972 308 972 q 133 950 156 972 q 110 899 110 928 q 88 876 110 876 q 69 882 74 876 q 64 903 64 888 q 98 979 64 943 q 214 1015 132 1015 q 354 893 354 1015 q 290 775 354 801 q 369 663 369 746 l 369 650 q 326 538 369 574 q 210 503 282 503 q 92 538 135 503 q 50 618 50 574 m 267 -7 q 269 6 267 1 l 813 1056 q 831 1067 818 1067 q 847 1059 839 1067 q 856 1040 856 1051 q 851 1025 856 1033 l 313 -12 q 289 -28 306 -28 q 267 -7 267 -28 m 618 139 q 621 150 618 142 l 817 493 q 839 508 825 508 q 855 503 847 508 q 863 489 863 497 q 860 479 863 485 l 678 164 l 836 164 l 836 297 q 858 314 836 314 q 882 297 882 314 l 882 164 l 925 164 q 944 142 944 164 q 939 126 944 133 q 925 119 933 119 l 882 119 l 882 18 q 858 0 882 0 q 836 18 836 0 l 836 119 l 636 119 q 618 139 618 119 z "},"¿":{"ha":532,"x_min":53,"x_max":497,"o":"m 53 244 q 76 367 53 310 q 128 454 100 424 q 195 524 156 485 q 249 579 235 563 q 280 657 274 611 q 286 803 286 703 q 310 826 286 826 q 333 803 333 826 q 322 634 333 685 q 285 551 311 583 q 232 497 271 535 q 169 433 193 460 q 123 355 144 406 q 101 246 101 304 q 154 94 101 149 q 310 40 207 40 q 398 54 361 40 q 453 82 435 68 q 478 96 471 96 q 491 89 485 96 q 497 72 497 82 q 437 18 497 44 q 304 -8 376 -8 q 117 63 181 -8 q 53 244 53 133 m 276 953 q 268 961 276 953 q 261 989 261 968 q 275 1024 261 1010 q 310 1039 289 1039 q 345 1024 331 1039 q 360 989 360 1010 q 345 953 360 968 q 310 939 331 939 q 276 953 290 939 z "},"À":{"ha":724,"x_min":35,"x_max":689,"o":"m 35 22 q 36 31 35 28 l 338 1004 q 363 1024 343 1024 q 389 1004 382 1024 l 688 31 q 688 27 688 29 q 689 24 689 25 q 681 7 689 14 q 661 0 672 0 q 639 18 644 0 l 568 246 l 154 246 l 85 18 q 60 0 79 0 q 35 22 35 0 m 169 296 l 553 296 l 363 918 l 169 296 m 269 1299 q 292 1324 269 1324 q 301 1321 296 1324 l 443 1238 q 454 1219 454 1232 q 447 1202 454 1210 q 428 1194 439 1194 q 415 1199 422 1194 l 283 1274 q 269 1299 269 1282 z "},"Á":{"ha":724,"x_min":35,"x_max":689,"o":"m 35 22 q 36 31 35 28 l 338 1004 q 363 1024 343 1024 q 389 1004 382 1024 l 688 31 q 688 27 688 29 q 689 24 689 25 q 681 7 689 14 q 661 0 672 0 q 639 18 644 0 l 568 246 l 154 246 l 85 18 q 60 0 79 0 q 35 22 35 0 m 169 296 l 553 296 l 363 918 l 169 296 m 269 1219 q 281 1238 269 1232 l 422 1321 q 432 1324 428 1324 q 454 1299 454 1324 q 440 1274 454 1282 l 308 1199 q 296 1194 303 1194 q 277 1202 285 1194 q 269 1219 269 1210 z "},"Â":{"ha":724,"x_min":35,"x_max":689,"o":"m 35 22 q 36 31 35 28 l 338 1004 q 363 1024 343 1024 q 389 1004 382 1024 l 688 31 q 688 27 688 29 q 689 24 689 25 q 681 7 689 14 q 661 0 672 0 q 639 18 644 0 l 568 246 l 154 246 l 85 18 q 60 0 79 0 q 35 22 35 0 m 169 296 l 553 296 l 363 918 l 169 296 m 181 1219 q 193 1239 181 1233 l 338 1317 q 361 1324 349 1324 q 385 1317 374 1324 l 529 1240 q 542 1217 542 1233 q 535 1201 542 1207 q 518 1194 528 1194 l 506 1199 l 361 1275 l 217 1197 q 211 1195 215 1197 q 206 1193 207 1193 q 188 1201 196 1193 q 181 1219 181 1208 z "},"Ã":{"ha":724,"x_min":35,"x_max":689,"o":"m 35 22 q 36 31 35 28 l 338 1004 q 363 1024 343 1024 q 389 1004 382 1024 l 688 31 q 688 27 688 29 q 689 24 689 25 q 681 7 689 14 q 661 0 672 0 q 639 18 644 0 l 568 246 l 154 246 l 85 18 q 60 0 79 0 q 35 22 35 0 m 157 1246 q 199 1295 157 1272 q 281 1318 242 1318 q 367 1292 314 1318 q 457 1267 421 1267 q 502 1278 485 1267 q 529 1300 519 1289 q 547 1311 539 1311 q 567 1290 567 1311 q 527 1240 567 1261 q 450 1219 488 1219 q 365 1245 418 1219 q 271 1271 311 1271 q 225 1259 244 1271 q 194 1235 206 1247 q 175 1222 182 1222 q 157 1246 157 1222 m 169 296 l 553 296 l 363 918 l 169 296 z "},"Ä":{"ha":724,"x_min":35,"x_max":689,"o":"m 35 22 q 36 31 35 28 l 338 1004 q 363 1024 343 1024 q 389 1004 382 1024 l 688 31 q 688 27 688 29 q 689 24 689 25 q 681 7 689 14 q 661 0 672 0 q 639 18 644 0 l 568 246 l 154 246 l 85 18 q 60 0 79 0 q 35 22 35 0 m 169 296 l 553 296 l 363 918 l 169 296 m 255 1205 q 249 1211 255 1205 q 243 1235 243 1217 q 255 1264 243 1253 q 285 1275 267 1275 q 314 1264 303 1275 q 325 1235 325 1253 q 314 1205 325 1217 q 285 1193 303 1193 q 255 1205 267 1193 m 409 1205 q 403 1211 409 1205 q 397 1235 397 1217 q 409 1264 397 1253 q 439 1275 421 1275 q 468 1264 457 1275 q 479 1235 479 1253 q 468 1205 479 1217 q 439 1193 457 1193 q 409 1205 421 1193 z "},"Å":{"ha":724,"x_min":35,"x_max":689,"o":"m 35 22 q 36 31 35 28 l 338 1004 q 363 1024 343 1024 q 389 1004 382 1024 l 688 31 q 688 27 688 29 q 689 24 689 25 q 681 7 689 14 q 661 0 672 0 q 639 18 644 0 l 568 246 l 154 246 l 85 18 q 60 0 79 0 q 35 22 35 0 m 169 296 l 553 296 l 363 918 l 169 296 m 236 1300 q 273 1388 236 1350 q 361 1426 310 1426 q 448 1388 410 1426 q 486 1300 486 1350 q 448 1210 486 1249 q 361 1171 410 1171 q 273 1210 310 1171 q 236 1300 236 1249 m 269 1300 q 297 1233 269 1263 q 361 1203 325 1203 q 424 1233 397 1203 q 451 1300 451 1263 q 424 1362 451 1333 q 361 1390 397 1390 q 297 1362 324 1390 q 269 1300 269 1333 z "},"Æ":{"ha":944,"x_min":110,"x_max":906,"o":"m 110 32 l 110 729 q 184 947 110 878 q 382 1015 258 1015 l 882 1015 q 906 992 906 1015 q 882 965 906 965 l 553 965 l 553 533 l 775 533 q 799 507 799 533 q 775 483 799 483 l 553 483 l 553 50 l 882 50 q 906 24 906 50 q 882 0 906 0 l 528 0 q 503 25 503 0 l 503 483 l 160 483 l 160 32 q 135 0 160 0 q 110 32 110 0 m 160 533 l 503 533 l 503 965 l 382 965 q 217 906 275 965 q 160 729 160 847 l 160 533 z "},"Ç":{"ha":711,"x_min":106,"x_max":649,"o":"m 106 278 l 106 729 q 183 946 106 876 q 382 1015 260 1015 q 578 951 508 1015 q 649 797 649 886 q 624 758 649 758 q 599 783 599 758 q 588 841 597 814 q 556 899 578 868 q 490 947 535 929 q 381 965 444 965 q 156 729 156 965 l 156 278 q 386 42 156 42 q 478 55 439 42 q 537 84 517 68 q 572 129 557 100 q 590 176 586 158 q 599 224 594 193 q 624 249 601 249 q 649 208 649 249 q 590 69 649 131 q 428 -4 532 8 l 407 -90 q 506 -120 474 -92 q 538 -187 538 -149 q 506 -258 538 -228 q 424 -287 475 -287 q 356 -278 392 -287 q 321 -254 321 -269 q 326 -238 321 -247 q 338 -229 332 -229 l 363 -239 q 415 -247 388 -247 q 492 -190 492 -247 q 394 -128 492 -135 l 354 -125 l 383 -8 l 378 -8 q 181 61 257 -8 q 106 278 106 131 z "},"È":{"ha":692,"x_min":115,"x_max":658,"o":"m 115 25 l 115 990 q 140 1015 115 1015 l 635 1015 q 658 992 658 1015 q 635 965 658 965 l 165 965 l 165 533 l 388 533 q 411 507 411 533 q 388 483 411 483 l 165 483 l 165 50 l 635 50 q 658 24 658 50 q 635 0 658 0 l 140 0 q 115 25 115 0 m 294 1299 q 317 1324 294 1324 q 326 1321 321 1324 l 468 1238 q 479 1219 479 1232 q 472 1202 479 1210 q 453 1194 464 1194 q 440 1199 447 1194 l 308 1274 q 294 1299 294 1282 z "},"É":{"ha":692,"x_min":115,"x_max":658,"o":"m 115 25 l 115 990 q 140 1015 115 1015 l 635 1015 q 658 992 658 1015 q 635 965 658 965 l 165 965 l 165 533 l 388 533 q 411 507 411 533 q 388 483 411 483 l 165 483 l 165 50 l 635 50 q 658 24 658 50 q 635 0 658 0 l 140 0 q 115 25 115 0 m 294 1219 q 306 1238 294 1232 l 447 1321 q 457 1324 453 1324 q 479 1299 479 1324 q 465 1274 479 1282 l 333 1199 q 321 1194 328 1194 q 302 1202 310 1194 q 294 1219 294 1210 z "},"Ê":{"ha":692,"x_min":115,"x_max":658,"o":"m 115 25 l 115 990 q 140 1015 115 1015 l 635 1015 q 658 992 658 1015 q 635 965 658 965 l 165 965 l 165 533 l 388 533 q 411 507 411 533 q 388 483 411 483 l 165 483 l 165 50 l 635 50 q 658 24 658 50 q 635 0 658 0 l 140 0 q 115 25 115 0 m 206 1219 q 218 1239 206 1233 l 363 1317 q 386 1324 374 1324 q 410 1317 399 1324 l 554 1240 q 567 1217 567 1233 q 560 1201 567 1207 q 543 1194 553 1194 l 531 1199 l 386 1275 l 242 1197 q 236 1195 240 1197 q 231 1193 232 1193 q 213 1201 221 1193 q 206 1219 206 1208 z "},"Ë":{"ha":692,"x_min":115,"x_max":658,"o":"m 115 25 l 115 990 q 140 1015 115 1015 l 635 1015 q 658 992 658 1015 q 635 965 658 965 l 165 965 l 165 533 l 388 533 q 411 507 411 533 q 388 483 411 483 l 165 483 l 165 50 l 635 50 q 658 24 658 50 q 635 0 658 0 l 140 0 q 115 25 115 0 m 280 1205 q 274 1211 280 1205 q 268 1235 268 1217 q 280 1264 268 1253 q 310 1275 292 1275 q 339 1264 328 1275 q 350 1235 350 1253 q 339 1205 350 1217 q 310 1193 328 1193 q 280 1205 292 1193 m 434 1205 q 428 1211 434 1205 q 422 1235 422 1217 q 434 1264 422 1253 q 464 1275 446 1275 q 493 1264 482 1275 q 504 1235 504 1253 q 493 1205 504 1217 q 464 1193 482 1193 q 434 1205 446 1193 z "},"Ì":{"ha":281,"x_min":47,"x_max":232,"o":"m 47 1299 q 69 1324 47 1324 q 79 1321 74 1324 l 221 1238 q 232 1219 232 1232 q 224 1202 232 1210 q 206 1194 217 1194 q 193 1199 200 1194 l 61 1274 q 47 1299 47 1282 m 115 25 l 115 992 q 140 1015 115 1015 q 165 992 165 1015 l 165 25 q 140 0 165 0 q 115 25 115 0 z "},"Í":{"ha":281,"x_min":47,"x_max":232,"o":"m 47 1219 q 58 1238 47 1232 l 200 1321 q 210 1324 206 1324 q 232 1299 232 1324 q 218 1274 232 1282 l 86 1199 q 74 1194 81 1194 q 55 1202 63 1194 q 47 1219 47 1210 m 115 25 l 115 992 q 140 1015 115 1015 q 165 992 165 1015 l 165 25 q 140 0 165 0 q 115 25 115 0 z "},"Î":{"ha":281,"x_min":-40,"x_max":321,"o":"m -40 1219 q -28 1239 -40 1233 l 117 1317 q 140 1324 128 1324 q 164 1317 153 1324 l 308 1240 q 321 1217 321 1233 q 314 1201 321 1207 q 297 1194 307 1194 l 285 1199 l 140 1275 l -4 1197 q -10 1195 -6 1197 q -15 1193 -14 1193 q -33 1201 -25 1193 q -40 1219 -40 1208 m 115 25 l 115 992 q 140 1015 115 1015 q 165 992 165 1015 l 165 25 q 140 0 165 0 q 115 25 115 0 z "},"Ï":{"ha":281,"x_min":22,"x_max":258,"o":"m 34 1205 q 28 1211 34 1205 q 22 1235 22 1217 q 34 1264 22 1253 q 64 1275 46 1275 q 93 1264 82 1275 q 104 1235 104 1253 q 93 1205 104 1217 q 64 1193 82 1193 q 34 1205 46 1193 m 115 25 l 115 992 q 140 1015 115 1015 q 165 992 165 1015 l 165 25 q 140 0 165 0 q 115 25 115 0 m 188 1205 q 182 1211 188 1205 q 176 1235 176 1217 q 188 1264 176 1253 q 218 1275 200 1275 q 247 1264 236 1275 q 258 1235 258 1253 q 247 1205 258 1217 q 218 1193 236 1193 q 188 1205 200 1193 z "},"Ð":{"ha":778,"x_min":4,"x_max":672,"o":"m 4 533 q 28 558 4 558 l 129 558 l 129 992 q 154 1015 129 1015 l 400 1015 q 598 947 524 1015 q 672 729 672 878 l 672 286 q 598 69 672 138 q 400 0 524 0 l 154 0 q 129 24 129 0 l 129 510 l 28 510 q 4 533 4 510 m 179 50 l 400 50 q 565 109 507 50 q 622 286 622 168 l 622 729 q 565 906 622 847 q 400 965 507 965 l 179 965 l 179 558 l 361 558 q 378 551 371 558 q 386 533 386 543 q 378 517 386 524 q 361 510 371 510 l 179 510 l 179 50 z "},"Ñ":{"ha":774,"x_min":115,"x_max":658,"o":"m 115 25 l 115 992 q 140 1015 115 1015 q 183 965 156 1015 l 608 124 l 608 992 q 633 1015 608 1015 q 658 992 658 1015 l 658 25 q 633 0 658 0 q 593 50 618 0 l 165 893 l 165 25 q 140 0 165 0 q 115 25 115 0 m 182 1246 q 224 1295 182 1272 q 306 1318 267 1318 q 392 1292 339 1318 q 482 1267 446 1267 q 527 1278 510 1267 q 554 1300 544 1289 q 572 1311 564 1311 q 592 1290 592 1311 q 552 1240 592 1261 q 475 1219 513 1219 q 390 1245 443 1219 q 296 1271 336 1271 q 250 1259 269 1271 q 219 1235 231 1247 q 200 1222 207 1222 q 182 1246 182 1222 z "},"Ò":{"ha":754,"x_min":106,"x_max":649,"o":"m 106 278 l 106 729 q 179 947 106 878 q 376 1015 253 1015 q 574 947 500 1015 q 649 729 649 878 l 649 278 q 574 60 649 129 q 376 -8 500 -8 q 179 60 253 -8 q 106 278 106 129 m 156 278 q 213 101 156 160 q 376 42 269 42 q 541 101 483 42 q 599 278 599 160 l 599 729 q 541 906 599 847 q 376 965 483 965 q 213 906 269 965 q 156 729 156 847 l 156 278 m 285 1299 q 307 1324 285 1324 q 317 1321 311 1324 l 458 1238 q 469 1219 469 1232 q 462 1202 469 1210 q 443 1194 454 1194 q 431 1199 436 1194 l 299 1274 q 285 1299 285 1282 z "},"Ó":{"ha":754,"x_min":106,"x_max":649,"o":"m 106 278 l 106 729 q 179 947 106 878 q 376 1015 253 1015 q 574 947 500 1015 q 649 729 649 878 l 649 278 q 574 60 649 129 q 376 -8 500 -8 q 179 60 253 -8 q 106 278 106 129 m 156 278 q 213 101 156 160 q 376 42 269 42 q 541 101 483 42 q 599 278 599 160 l 599 729 q 541 906 599 847 q 376 965 483 965 q 213 906 269 965 q 156 729 156 847 l 156 278 m 285 1219 q 296 1238 285 1232 l 438 1321 q 447 1324 443 1324 q 469 1299 469 1324 q 456 1274 469 1282 l 324 1199 q 311 1194 317 1194 q 292 1202 300 1194 q 285 1219 285 1210 z "},"Ô":{"ha":754,"x_min":106,"x_max":649,"o":"m 106 278 l 106 729 q 179 947 106 878 q 376 1015 253 1015 q 574 947 500 1015 q 649 729 649 878 l 649 278 q 574 60 649 129 q 376 -8 500 -8 q 179 60 253 -8 q 106 278 106 129 m 156 278 q 213 101 156 160 q 376 42 269 42 q 541 101 483 42 q 599 278 599 160 l 599 729 q 541 906 599 847 q 376 965 483 965 q 213 906 269 965 q 156 729 156 847 l 156 278 m 196 1219 q 208 1239 196 1233 l 353 1317 q 376 1324 364 1324 q 400 1317 389 1324 l 544 1240 q 557 1217 557 1233 q 550 1201 557 1207 q 533 1194 543 1194 l 521 1199 l 376 1275 l 232 1197 q 226 1195 231 1197 q 221 1193 222 1193 q 203 1201 211 1193 q 196 1219 196 1208 z "},"Õ":{"ha":754,"x_min":106,"x_max":649,"o":"m 106 278 l 106 729 q 179 947 106 878 q 376 1015 253 1015 q 574 947 500 1015 q 649 729 649 878 l 649 278 q 574 60 649 129 q 376 -8 500 -8 q 179 60 253 -8 q 106 278 106 129 m 156 278 q 213 101 156 160 q 376 42 269 42 q 541 101 483 42 q 599 278 599 160 l 599 729 q 541 906 599 847 q 376 965 483 965 q 213 906 269 965 q 156 729 156 847 l 156 278 m 172 1246 q 215 1295 172 1272 q 296 1318 257 1318 q 383 1292 329 1318 q 472 1267 436 1267 q 517 1278 500 1267 q 544 1300 535 1289 q 563 1311 554 1311 q 582 1290 582 1311 q 542 1240 582 1261 q 465 1219 503 1219 q 380 1245 433 1219 q 286 1271 326 1271 q 240 1259 260 1271 q 209 1235 221 1247 q 190 1222 197 1222 q 172 1246 172 1222 z "},"Ö":{"ha":754,"x_min":106,"x_max":649,"o":"m 106 278 l 106 729 q 179 947 106 878 q 376 1015 253 1015 q 574 947 500 1015 q 649 729 649 878 l 649 278 q 574 60 649 129 q 376 -8 500 -8 q 179 60 253 -8 q 106 278 106 129 m 156 278 q 213 101 156 160 q 376 42 269 42 q 541 101 483 42 q 599 278 599 160 l 599 729 q 541 906 599 847 q 376 965 483 965 q 213 906 269 965 q 156 729 156 847 l 156 278 m 270 1205 q 264 1211 270 1205 q 258 1235 258 1217 q 270 1264 258 1253 q 300 1275 282 1275 q 329 1264 318 1275 q 340 1235 340 1253 q 329 1205 340 1217 q 300 1193 318 1193 q 270 1205 282 1193 m 424 1205 q 418 1211 424 1205 q 413 1235 413 1217 q 424 1264 413 1253 q 454 1275 436 1275 q 483 1264 472 1275 q 494 1235 494 1253 q 483 1205 494 1217 q 454 1193 472 1193 q 424 1205 436 1193 z "},"×":{"ha":546,"x_min":92,"x_max":454,"o":"m 99 208 q 95 212 99 208 q 92 225 92 215 q 99 242 92 235 l 239 382 l 99 522 q 92 540 92 529 q 99 557 92 550 q 115 564 106 564 q 133 557 126 564 l 272 417 l 413 557 q 431 564 419 564 q 447 557 440 564 q 454 540 454 550 q 447 522 454 529 l 307 382 l 447 242 q 454 225 454 235 q 447 209 454 217 q 431 201 440 201 q 414 208 421 201 l 272 349 l 132 208 q 115 201 125 201 q 99 208 106 201 z "},"Ø":{"ha":754,"x_min":82,"x_max":671,"o":"m 82 -7 q 85 6 82 1 l 140 113 q 106 278 106 179 l 106 729 q 179 947 106 878 q 376 1015 253 1015 q 572 947 500 1015 l 628 1056 q 646 1067 633 1067 q 663 1059 654 1067 q 671 1040 671 1051 q 667 1025 671 1033 l 606 907 q 649 729 649 835 l 649 278 q 574 60 649 129 q 376 -8 500 -8 q 171 69 239 -8 l 128 -12 q 104 -28 119 -28 q 82 -7 82 -28 m 156 278 q 171 172 156 218 l 547 899 q 376 965 489 965 q 213 906 269 965 q 156 729 156 847 l 156 278 m 196 119 q 376 42 251 42 q 541 101 483 42 q 599 278 599 160 l 599 729 q 576 851 599 803 l 196 119 z "},"Ù":{"ha":763,"x_min":110,"x_max":653,"o":"m 110 278 l 110 992 q 135 1015 110 1015 q 160 992 160 1015 l 160 278 q 217 101 160 160 q 381 42 274 42 q 545 101 488 42 q 603 278 603 160 l 603 992 q 628 1015 603 1015 q 653 992 653 1015 l 653 278 q 578 60 653 129 q 381 -8 504 -8 q 183 60 257 -8 q 110 278 110 129 m 289 1299 q 311 1324 289 1324 q 321 1321 315 1324 l 463 1238 q 474 1219 474 1232 q 466 1202 474 1210 q 447 1194 458 1194 q 435 1199 442 1194 l 303 1274 q 289 1299 289 1282 z "},"Ú":{"ha":763,"x_min":110,"x_max":653,"o":"m 110 278 l 110 992 q 135 1015 110 1015 q 160 992 160 1015 l 160 278 q 217 101 160 160 q 381 42 274 42 q 545 101 488 42 q 603 278 603 160 l 603 992 q 628 1015 603 1015 q 653 992 653 1015 l 653 278 q 578 60 653 129 q 381 -8 504 -8 q 183 60 257 -8 q 110 278 110 129 m 289 1219 q 300 1238 289 1232 l 442 1321 q 451 1324 447 1324 q 474 1299 474 1324 q 460 1274 474 1282 l 328 1199 q 315 1194 322 1194 q 297 1202 304 1194 q 289 1219 289 1210 z "},"Û":{"ha":763,"x_min":110,"x_max":653,"o":"m 110 278 l 110 992 q 135 1015 110 1015 q 160 992 160 1015 l 160 278 q 217 101 160 160 q 381 42 274 42 q 545 101 488 42 q 603 278 603 160 l 603 992 q 628 1015 603 1015 q 653 992 653 1015 l 653 278 q 578 60 653 129 q 381 -8 504 -8 q 183 60 257 -8 q 110 278 110 129 m 200 1219 q 213 1239 200 1233 l 357 1317 q 381 1324 368 1324 q 404 1317 393 1324 l 549 1240 q 561 1217 561 1233 q 554 1201 561 1207 q 538 1194 547 1194 l 525 1199 l 381 1275 l 236 1197 q 231 1195 235 1197 q 225 1193 226 1193 q 208 1201 215 1193 q 200 1219 200 1208 z "},"Ü":{"ha":763,"x_min":110,"x_max":653,"o":"m 110 278 l 110 992 q 135 1015 110 1015 q 160 992 160 1015 l 160 278 q 217 101 160 160 q 381 42 274 42 q 545 101 488 42 q 603 278 603 160 l 603 992 q 628 1015 603 1015 q 653 992 653 1015 l 653 278 q 578 60 653 129 q 381 -8 504 -8 q 183 60 257 -8 q 110 278 110 129 m 274 1205 q 268 1211 274 1205 q 263 1235 263 1217 q 274 1264 263 1253 q 304 1275 286 1275 q 333 1264 322 1275 q 344 1235 344 1253 q 333 1205 344 1217 q 304 1193 322 1193 q 274 1205 286 1193 m 428 1205 q 423 1211 428 1205 q 417 1235 417 1217 q 428 1264 417 1253 q 458 1275 440 1275 q 488 1264 476 1275 q 499 1235 499 1253 q 488 1205 499 1217 q 458 1193 476 1193 q 428 1205 440 1193 z "},"Ý":{"ha":707,"x_min":31,"x_max":675,"o":"m 31 993 q 49 1015 31 1015 q 76 992 64 1015 l 353 435 l 631 992 q 658 1015 642 1015 q 675 993 675 1015 q 668 965 675 979 l 379 388 q 378 379 378 385 l 378 25 q 353 0 378 0 q 328 25 328 0 l 328 379 q 326 388 328 385 l 39 965 q 31 993 31 982 m 260 1219 q 271 1238 260 1232 l 413 1321 q 422 1324 418 1324 q 444 1299 444 1324 q 431 1274 444 1282 l 299 1199 q 286 1194 292 1194 q 267 1202 275 1194 q 260 1219 260 1210 z "},"Þ":{"ha":671,"x_min":115,"x_max":600,"o":"m 115 25 l 115 993 q 139 1015 115 1015 q 164 992 164 1015 l 164 753 q 363 858 224 858 q 530 805 460 858 q 600 657 600 751 l 600 390 q 530 241 600 296 q 369 186 460 186 q 241 217 301 186 q 164 294 181 247 l 164 25 q 157 8 164 15 q 140 0 150 0 q 123 8 131 0 q 115 25 115 15 m 164 390 q 222 283 164 332 q 365 235 281 235 q 496 275 440 235 q 551 390 551 315 l 551 657 q 497 770 551 731 q 365 810 442 810 q 224 767 283 810 q 164 657 164 724 l 164 390 z "},"ß":{"ha":733,"x_min":11,"x_max":672,"o":"m 11 631 q 35 656 11 656 l 147 656 l 147 819 q 200 997 147 928 q 360 1067 253 1067 q 519 1004 458 1067 q 579 818 579 942 q 553 666 579 736 q 478 574 526 596 q 611 479 550 560 q 672 299 672 399 l 672 272 q 605 49 672 126 q 443 -28 538 -28 q 344 -16 397 -28 q 292 22 292 -4 q 298 39 292 32 q 313 46 304 46 q 351 31 315 46 q 429 15 388 15 q 574 81 521 15 q 628 272 628 147 l 628 299 q 608 403 628 353 q 533 497 589 454 q 394 544 478 539 q 361 549 371 546 q 351 567 351 553 q 396 593 351 590 q 531 801 531 601 q 487 961 531 904 q 360 1018 443 1018 q 235 962 274 1018 q 196 819 196 906 l 196 24 q 188 7 196 14 q 169 0 181 0 q 147 24 147 0 l 147 607 l 35 607 q 11 631 11 607 z "},"à":{"ha":588,"x_min":49,"x_max":499,"o":"m 49 175 q 131 319 49 279 q 372 358 214 358 l 450 358 l 450 397 q 404 551 450 486 q 267 615 358 615 q 197 606 229 615 q 146 588 164 597 q 122 578 128 578 q 104 588 111 578 q 97 606 97 597 q 152 645 97 626 q 269 664 207 664 q 444 588 389 664 q 499 397 499 513 l 499 25 q 475 0 499 0 q 457 7 464 0 q 450 25 450 14 l 450 97 q 242 -8 358 -8 q 102 38 156 -8 q 49 175 49 85 m 97 175 q 137 74 97 108 q 240 40 176 40 q 383 93 315 40 q 450 193 450 146 l 450 310 l 374 310 q 269 306 311 310 q 183 288 226 301 q 119 247 140 275 q 97 175 97 218 m 181 939 q 203 964 181 964 q 213 961 207 964 l 354 878 q 365 860 365 872 q 358 842 365 850 q 339 835 350 835 q 326 839 333 835 l 194 914 q 181 939 181 922 z "},"á":{"ha":588,"x_min":49,"x_max":499,"o":"m 49 175 q 131 319 49 279 q 372 358 214 358 l 450 358 l 450 397 q 404 551 450 486 q 267 615 358 615 q 197 606 229 615 q 146 588 164 597 q 122 578 128 578 q 104 588 111 578 q 97 606 97 597 q 152 645 97 626 q 269 664 207 664 q 444 588 389 664 q 499 397 499 513 l 499 25 q 475 0 499 0 q 457 7 464 0 q 450 25 450 14 l 450 97 q 242 -8 358 -8 q 102 38 156 -8 q 49 175 49 85 m 97 175 q 137 74 97 108 q 240 40 176 40 q 383 93 315 40 q 450 193 450 146 l 450 310 l 374 310 q 269 306 311 310 q 183 288 226 301 q 119 247 140 275 q 97 175 97 218 m 181 860 q 192 878 181 872 l 333 961 q 343 964 339 964 q 365 939 365 964 q 351 914 365 922 l 219 839 q 207 835 214 835 q 188 842 196 835 q 181 860 181 850 z "},"â":{"ha":588,"x_min":49,"x_max":499,"o":"m 49 175 q 131 319 49 279 q 372 358 214 358 l 450 358 l 450 397 q 404 551 450 486 q 267 615 358 615 q 197 606 229 615 q 146 588 164 597 q 122 578 128 578 q 104 588 111 578 q 97 606 97 597 q 152 645 97 626 q 269 664 207 664 q 444 588 389 664 q 499 397 499 513 l 499 25 q 475 0 499 0 q 457 7 464 0 q 450 25 450 14 l 450 97 q 242 -8 358 -8 q 102 38 156 -8 q 49 175 49 85 m 97 175 q 137 74 97 108 q 240 40 176 40 q 383 93 315 40 q 450 193 450 146 l 450 310 l 374 310 q 269 306 311 310 q 183 288 226 301 q 119 247 140 275 q 97 175 97 218 m 99 860 q 111 879 99 872 l 256 957 q 279 964 267 964 q 303 957 292 964 l 447 881 q 460 857 460 875 q 453 841 460 847 q 436 835 446 835 l 424 839 l 279 915 l 135 838 q 129 835 133 838 q 124 833 125 833 q 106 841 114 833 q 99 860 99 849 z "},"ã":{"ha":588,"x_min":49,"x_max":499,"o":"m 49 175 q 131 319 49 279 q 372 358 214 358 l 450 358 l 450 397 q 404 551 450 486 q 267 615 358 615 q 197 606 229 615 q 146 588 164 597 q 122 578 128 578 q 104 588 111 578 q 97 606 97 597 q 152 645 97 626 q 269 664 207 664 q 444 588 389 664 q 499 397 499 513 l 499 25 q 475 0 499 0 q 457 7 464 0 q 450 25 450 14 l 450 97 q 242 -8 358 -8 q 102 38 156 -8 q 49 175 49 85 m 68 886 q 110 935 68 913 q 192 958 153 958 q 278 933 225 958 q 368 907 332 907 q 413 918 396 907 q 440 940 431 929 q 458 951 450 951 q 478 931 478 951 q 438 881 478 901 q 361 860 399 860 q 276 885 329 860 q 182 911 222 911 q 136 899 156 911 q 105 874 117 886 q 86 863 93 863 q 68 886 68 863 m 97 175 q 137 74 97 108 q 240 40 176 40 q 383 93 315 40 q 450 193 450 146 l 450 310 l 374 310 q 269 306 311 310 q 183 288 226 301 q 119 247 140 275 q 97 175 97 218 z "},"ä":{"ha":588,"x_min":49,"x_max":499,"o":"m 49 175 q 131 319 49 279 q 372 358 214 358 l 450 358 l 450 397 q 404 551 450 486 q 267 615 358 615 q 197 606 229 615 q 146 588 164 597 q 122 578 128 578 q 104 588 111 578 q 97 606 97 597 q 152 645 97 626 q 269 664 207 664 q 444 588 389 664 q 499 397 499 513 l 499 25 q 475 0 499 0 q 457 7 464 0 q 450 25 450 14 l 450 97 q 242 -8 358 -8 q 102 38 156 -8 q 49 175 49 85 m 97 175 q 137 74 97 108 q 240 40 176 40 q 383 93 315 40 q 450 193 450 146 l 450 310 l 374 310 q 269 306 311 310 q 183 288 226 301 q 119 247 140 275 q 97 175 97 218 m 167 845 q 161 851 167 845 q 156 875 156 857 q 167 904 156 893 q 197 915 179 915 q 226 904 215 915 q 238 875 238 893 q 226 845 238 857 q 197 833 215 833 q 167 845 179 833 m 322 845 q 316 851 322 845 q 310 875 310 857 q 322 904 310 893 q 351 915 333 915 q 381 904 369 915 q 392 875 392 893 q 381 845 392 857 q 351 833 369 833 q 322 845 333 833 z "},"å":{"ha":588,"x_min":49,"x_max":499,"o":"m 49 175 q 131 319 49 279 q 372 358 214 358 l 450 358 l 450 397 q 404 551 450 486 q 267 615 358 615 q 197 606 229 615 q 146 588 164 597 q 122 578 128 578 q 104 588 111 578 q 97 606 97 597 q 152 645 97 626 q 269 664 207 664 q 444 588 389 664 q 499 397 499 513 l 499 25 q 475 0 499 0 q 457 7 464 0 q 450 25 450 14 l 450 97 q 242 -8 358 -8 q 102 38 156 -8 q 49 175 49 85 m 97 175 q 137 74 97 108 q 240 40 176 40 q 383 93 315 40 q 450 193 450 146 l 450 310 l 374 310 q 269 306 311 310 q 183 288 226 301 q 119 247 140 275 q 97 175 97 218 m 149 940 q 185 1028 149 990 q 274 1067 222 1067 q 360 1028 322 1067 q 399 940 399 990 q 360 850 399 889 q 274 811 322 811 q 185 850 222 811 q 149 940 149 889 m 182 940 q 209 873 182 903 q 274 843 236 843 q 337 873 310 843 q 364 940 364 903 q 337 1002 364 974 q 274 1031 310 1031 q 209 1002 236 1031 q 182 940 182 974 z "},"æ":{"ha":999,"x_min":49,"x_max":943,"o":"m 49 174 q 130 318 49 278 q 369 358 211 358 l 447 358 l 447 399 q 401 553 447 489 q 260 617 356 617 q 165 597 213 617 l 118 579 q 102 589 110 579 q 94 607 94 599 q 149 647 94 628 q 267 665 204 665 q 476 525 425 665 q 567 625 508 586 q 696 664 625 664 q 778 649 738 664 q 858 605 819 635 q 919 520 896 575 q 943 394 943 465 q 922 326 943 342 q 828 310 900 310 l 501 310 l 501 244 q 566 96 501 151 q 731 40 631 40 q 816 55 781 40 q 870 83 851 69 q 897 97 889 97 q 914 90 906 97 q 922 72 922 83 q 853 17 922 43 q 714 -8 783 -8 q 570 30 636 -8 q 474 136 504 68 q 369 26 433 61 q 238 -8 306 -8 q 103 38 157 -8 q 49 174 49 85 m 97 172 q 137 74 97 108 q 239 40 176 40 q 383 93 319 40 q 447 193 447 146 l 447 310 l 371 310 q 265 306 307 310 q 181 288 222 301 q 118 246 139 275 q 97 172 97 217 m 501 358 l 811 358 q 879 368 864 358 q 894 407 894 378 q 839 552 894 489 q 697 615 783 615 q 558 557 614 615 q 501 419 501 499 l 501 358 z "},"ç":{"ha":558,"x_min":72,"x_max":517,"o":"m 72 244 l 72 411 q 137 594 72 524 q 326 664 201 664 q 456 635 403 664 q 508 582 508 607 q 501 565 508 572 q 483 558 493 558 q 459 572 476 558 q 408 601 442 586 q 326 615 375 615 q 174 561 228 615 q 121 411 121 507 l 121 244 q 174 94 121 149 q 328 40 228 40 q 415 55 379 40 q 467 83 450 69 q 493 97 485 97 q 510 90 503 97 q 517 74 517 83 q 468 24 517 50 q 346 -7 419 -3 l 326 -90 q 425 -120 393 -92 q 457 -187 457 -149 q 426 -258 457 -228 q 343 -287 394 -287 q 276 -278 311 -287 q 240 -254 240 -269 q 246 -238 240 -247 q 257 -229 251 -229 l 282 -239 q 335 -247 307 -247 q 411 -190 411 -247 q 314 -128 411 -135 l 274 -125 l 301 -7 q 131 67 189 -1 q 72 244 72 136 z "},"è":{"ha":618,"x_min":71,"x_max":564,"o":"m 71 244 l 71 418 q 144 591 71 518 q 318 664 217 664 q 491 592 418 664 q 564 414 564 521 q 556 356 564 378 q 528 324 547 333 q 492 312 508 314 q 449 310 476 310 l 119 310 l 119 244 q 185 96 119 151 q 354 40 250 40 q 440 55 406 40 q 492 83 475 69 q 518 97 510 97 q 535 89 528 97 q 543 72 543 81 q 521 40 543 58 q 453 6 499 21 q 351 -8 407 -8 q 149 62 228 -8 q 71 244 71 132 m 119 358 l 432 358 q 499 368 483 358 q 515 410 515 378 q 460 552 515 489 q 318 615 404 615 q 177 556 235 615 q 119 418 119 497 l 119 358 m 225 939 q 247 964 225 964 q 257 961 251 964 l 399 878 q 410 860 410 872 q 402 842 410 850 q 383 835 394 835 q 371 839 378 835 l 239 914 q 225 939 225 922 z "},"é":{"ha":618,"x_min":71,"x_max":564,"o":"m 71 244 l 71 418 q 144 591 71 518 q 318 664 217 664 q 491 592 418 664 q 564 414 564 521 q 556 356 564 378 q 528 324 547 333 q 492 312 508 314 q 449 310 476 310 l 119 310 l 119 244 q 185 96 119 151 q 354 40 250 40 q 440 55 406 40 q 492 83 475 69 q 518 97 510 97 q 535 89 528 97 q 543 72 543 81 q 521 40 543 58 q 453 6 499 21 q 351 -8 407 -8 q 149 62 228 -8 q 71 244 71 132 m 119 358 l 432 358 q 499 368 483 358 q 515 410 515 378 q 460 552 515 489 q 318 615 404 615 q 177 556 235 615 q 119 418 119 497 l 119 358 m 225 860 q 236 878 225 872 l 378 961 q 388 964 383 964 q 410 939 410 964 q 396 914 410 922 l 264 839 q 251 835 258 835 q 233 842 240 835 q 225 860 225 850 z "},"ê":{"ha":618,"x_min":71,"x_max":564,"o":"m 71 244 l 71 418 q 144 591 71 518 q 318 664 217 664 q 491 592 418 664 q 564 414 564 521 q 556 356 564 378 q 528 324 547 333 q 492 312 508 314 q 449 310 476 310 l 119 310 l 119 244 q 185 96 119 151 q 354 40 250 40 q 440 55 406 40 q 492 83 475 69 q 518 97 510 97 q 535 89 528 97 q 543 72 543 81 q 521 40 543 58 q 453 6 499 21 q 351 -8 407 -8 q 149 62 228 -8 q 71 244 71 132 m 119 358 l 432 358 q 499 368 483 358 q 515 410 515 378 q 460 552 515 489 q 318 615 404 615 q 177 556 235 615 q 119 418 119 497 l 119 358 m 136 860 q 149 879 136 872 l 293 957 q 317 964 304 964 q 340 957 329 964 l 485 881 q 497 857 497 875 q 490 841 497 847 q 474 835 483 835 l 461 839 l 317 915 l 172 838 q 167 835 171 838 q 161 833 163 833 q 144 841 151 833 q 136 860 136 849 z "},"ë":{"ha":618,"x_min":71,"x_max":564,"o":"m 71 244 l 71 418 q 144 591 71 518 q 318 664 217 664 q 491 592 418 664 q 564 414 564 521 q 556 356 564 378 q 528 324 547 333 q 492 312 508 314 q 449 310 476 310 l 119 310 l 119 244 q 185 96 119 151 q 354 40 250 40 q 440 55 406 40 q 492 83 475 69 q 518 97 510 97 q 535 89 528 97 q 543 72 543 81 q 521 40 543 58 q 453 6 499 21 q 351 -8 407 -8 q 149 62 228 -8 q 71 244 71 132 m 119 358 l 432 358 q 499 368 483 358 q 515 410 515 378 q 460 552 515 489 q 318 615 404 615 q 177 556 235 615 q 119 418 119 497 l 119 358 m 210 845 q 205 851 210 845 q 199 875 199 857 q 210 904 199 893 q 240 915 222 915 q 269 904 258 915 q 281 875 281 893 q 269 845 281 857 q 240 833 258 833 q 210 845 222 833 m 365 845 q 359 851 365 845 q 353 875 353 857 q 365 904 353 893 q 394 915 376 915 q 424 904 413 915 q 435 875 435 893 q 424 845 435 857 q 394 833 413 833 q 365 845 376 833 z "},"ì":{"ha":238,"x_min":25,"x_max":210,"o":"m 25 939 q 47 964 25 964 q 57 961 51 964 l 199 878 q 210 860 210 872 q 202 842 210 850 q 183 835 194 835 q 171 839 178 835 l 39 914 q 25 939 25 922 m 94 25 l 94 632 q 101 649 94 642 q 118 656 108 656 q 143 632 143 656 l 143 25 q 135 8 143 15 q 118 0 128 0 q 101 8 108 0 q 94 25 94 15 z "},"í":{"ha":238,"x_min":25,"x_max":210,"o":"m 25 860 q 36 878 25 872 l 178 961 q 188 964 183 964 q 210 939 210 964 q 196 914 210 922 l 64 839 q 51 835 58 835 q 33 842 40 835 q 25 860 25 850 m 94 25 l 94 632 q 101 649 94 642 q 118 656 108 656 q 143 632 143 656 l 143 25 q 135 8 143 15 q 118 0 128 0 q 101 8 108 0 q 94 25 94 15 z "},"î":{"ha":238,"x_min":-62,"x_max":299,"o":"m -62 860 q -50 879 -62 872 l 94 957 q 118 964 106 964 q 142 957 131 964 l 286 881 q 299 857 299 875 q 292 841 299 847 q 275 835 285 835 l 263 839 l 118 915 l -26 838 q -32 835 -28 838 q -37 833 -36 833 q -55 841 -47 833 q -62 860 -62 849 m 94 25 l 94 632 q 101 649 94 642 q 118 656 108 656 q 143 632 143 656 l 143 25 q 135 8 143 15 q 118 0 128 0 q 101 8 108 0 q 94 25 94 15 z "},"ï":{"ha":238,"x_min":1,"x_max":238,"o":"m 13 845 q 7 851 13 845 q 1 875 1 857 q 13 904 1 893 q 43 915 25 915 q 72 904 61 915 q 83 875 83 893 q 72 845 83 857 q 43 833 61 833 q 13 845 25 833 m 94 25 l 94 632 q 101 649 94 642 q 118 656 108 656 q 143 632 143 656 l 143 25 q 135 8 143 15 q 118 0 128 0 q 101 8 108 0 q 94 25 94 15 m 167 845 q 161 851 167 845 q 156 875 156 857 q 167 904 156 893 q 197 915 179 915 q 226 904 215 915 q 238 875 238 893 q 226 845 238 857 q 197 833 215 833 q 167 845 179 833 z "},"ð":{"ha":650,"x_min":69,"x_max":563,"o":"m 69 244 l 69 414 q 142 589 69 514 q 315 664 215 664 q 438 631 379 664 q 514 544 497 599 q 399 886 494 757 l 263 808 q 250 804 256 804 q 233 813 240 804 q 226 831 226 821 q 239 850 226 844 l 367 924 q 176 1015 279 1015 q 160 1039 160 1015 q 193 1067 160 1067 q 411 949 306 1067 l 522 1013 q 532 1015 528 1015 q 549 1008 542 1015 q 557 992 557 1001 q 544 971 557 978 l 442 911 q 563 507 563 749 l 563 244 q 488 68 563 144 q 315 -8 414 -8 q 143 68 217 -8 q 69 244 69 144 m 118 244 q 176 103 118 165 q 315 40 235 40 q 455 103 396 40 q 514 244 514 165 l 514 421 q 455 556 514 496 q 315 615 396 615 q 176 553 233 615 q 118 414 118 492 l 118 244 z "},"ñ":{"ha":668,"x_min":94,"x_max":579,"o":"m 94 25 l 94 632 q 118 656 94 656 q 143 632 143 656 l 143 558 q 329 664 203 664 q 506 590 432 664 q 579 414 579 517 l 579 25 q 554 0 579 0 q 531 25 531 0 l 531 414 q 472 553 531 492 q 333 615 413 615 q 201 560 258 615 q 143 414 143 504 l 143 25 q 135 8 143 15 q 118 0 128 0 q 101 8 108 0 q 94 25 94 15 m 125 886 q 167 935 125 913 q 249 958 210 958 q 335 933 282 958 q 425 907 389 907 q 470 918 453 907 q 497 940 488 929 q 515 951 507 951 q 535 931 535 951 q 495 881 535 901 q 418 860 456 860 q 333 885 386 860 q 239 911 279 911 q 193 899 213 911 q 162 874 174 886 q 143 863 150 863 q 125 886 125 863 z "},"ò":{"ha":632,"x_min":69,"x_max":563,"o":"m 69 244 l 69 414 q 142 589 69 514 q 315 664 215 664 q 489 590 415 664 q 563 414 563 517 l 563 244 q 488 68 563 144 q 315 -8 414 -8 q 143 68 217 -8 q 69 244 69 144 m 118 244 q 176 103 118 165 q 315 40 235 40 q 455 103 396 40 q 514 244 514 165 l 514 414 q 456 553 514 492 q 315 615 397 615 q 176 553 233 615 q 118 414 118 492 l 118 244 m 224 939 q 246 964 224 964 q 256 961 250 964 l 397 878 q 408 860 408 872 q 401 842 408 850 q 382 835 393 835 q 369 839 375 835 l 238 914 q 224 939 224 922 z "},"ó":{"ha":632,"x_min":69,"x_max":563,"o":"m 69 244 l 69 414 q 142 589 69 514 q 315 664 215 664 q 489 590 415 664 q 563 414 563 517 l 563 244 q 488 68 563 144 q 315 -8 414 -8 q 143 68 217 -8 q 69 244 69 144 m 118 244 q 176 103 118 165 q 315 40 235 40 q 455 103 396 40 q 514 244 514 165 l 514 414 q 456 553 514 492 q 315 615 397 615 q 176 553 233 615 q 118 414 118 492 l 118 244 m 224 860 q 235 878 224 872 l 376 961 q 386 964 382 964 q 408 939 408 964 q 394 914 408 922 l 263 839 q 250 835 256 835 q 231 842 239 835 q 224 860 224 850 z "},"ô":{"ha":632,"x_min":69,"x_max":563,"o":"m 69 244 l 69 414 q 142 589 69 514 q 315 664 215 664 q 489 590 415 664 q 563 414 563 517 l 563 244 q 488 68 563 144 q 315 -8 414 -8 q 143 68 217 -8 q 69 244 69 144 m 118 244 q 176 103 118 165 q 315 40 235 40 q 455 103 396 40 q 514 244 514 165 l 514 414 q 456 553 514 492 q 315 615 397 615 q 176 553 233 615 q 118 414 118 492 l 118 244 m 135 860 q 147 879 135 872 l 292 957 q 315 964 303 964 q 339 957 328 964 l 483 881 q 496 857 496 875 q 489 841 496 847 q 472 835 482 835 l 460 839 l 315 915 l 171 838 q 165 835 169 838 q 160 833 161 833 q 142 841 150 833 q 135 860 135 849 z "},"õ":{"ha":632,"x_min":69,"x_max":563,"o":"m 69 244 l 69 414 q 142 589 69 514 q 315 664 215 664 q 489 590 415 664 q 563 414 563 517 l 563 244 q 488 68 563 144 q 315 -8 414 -8 q 143 68 217 -8 q 69 244 69 144 m 111 886 q 153 935 111 913 q 235 958 196 958 q 322 933 268 958 q 411 907 375 907 q 456 918 439 907 q 483 940 474 929 q 501 951 493 951 q 521 931 521 951 q 481 881 521 901 q 404 860 442 860 q 319 885 372 860 q 225 911 265 911 q 179 899 199 911 q 148 874 160 886 q 129 863 136 863 q 111 886 111 863 m 118 244 q 176 103 118 165 q 315 40 235 40 q 455 103 396 40 q 514 244 514 165 l 514 414 q 456 553 514 492 q 315 615 397 615 q 176 553 233 615 q 118 414 118 492 l 118 244 z "},"ö":{"ha":632,"x_min":69,"x_max":563,"o":"m 69 244 l 69 414 q 142 589 69 514 q 315 664 215 664 q 489 590 415 664 q 563 414 563 517 l 563 244 q 488 68 563 144 q 315 -8 414 -8 q 143 68 217 -8 q 69 244 69 144 m 118 244 q 176 103 118 165 q 315 40 235 40 q 455 103 396 40 q 514 244 514 165 l 514 414 q 456 553 514 492 q 315 615 397 615 q 176 553 233 615 q 118 414 118 492 l 118 244 m 209 845 q 203 851 209 845 q 197 875 197 857 q 209 904 197 893 q 239 915 221 915 q 268 904 257 915 q 279 875 279 893 q 268 845 279 857 q 239 833 257 833 q 209 845 221 833 m 363 845 q 357 851 363 845 q 351 875 351 857 q 363 904 351 893 q 393 915 375 915 q 422 904 411 915 q 433 875 433 893 q 422 845 433 857 q 393 833 411 833 q 363 845 375 833 z "},"÷":{"ha":640,"x_min":74,"x_max":567,"o":"m 74 333 q 97 358 74 358 l 542 358 q 559 351 551 358 q 567 333 567 343 q 559 317 567 324 q 542 310 551 310 l 97 310 q 74 333 74 310 m 272 69 q 263 78 272 69 q 254 111 254 88 q 272 153 254 135 q 315 171 290 171 q 357 153 339 171 q 375 111 375 135 q 357 69 375 88 q 315 51 339 51 q 272 69 290 51 m 272 515 q 263 524 272 515 q 254 557 254 533 q 272 599 254 581 q 315 617 290 617 q 357 599 339 617 q 375 557 375 581 q 357 515 375 533 q 315 497 339 497 q 272 515 290 497 z "},"ø":{"ha":632,"x_min":69,"x_max":563,"o":"m 69 244 l 69 414 q 142 589 69 514 q 315 664 215 664 q 439 629 381 664 l 474 696 q 492 707 479 707 q 508 699 500 707 q 517 681 517 692 q 513 665 517 674 l 478 600 q 563 414 563 525 l 563 244 q 488 68 563 144 q 315 -8 414 -8 q 186 32 247 -8 l 154 -29 q 131 -44 147 -44 q 108 -24 108 -44 q 111 -11 108 -15 l 149 63 q 69 244 69 139 m 118 244 q 171 107 118 167 l 417 585 q 315 615 371 615 q 176 553 233 615 q 118 414 118 492 l 118 244 m 207 75 q 315 40 254 40 q 455 103 396 40 q 514 244 514 165 l 514 414 q 454 554 514 494 l 207 75 z "},"ù":{"ha":671,"x_min":89,"x_max":582,"o":"m 89 242 l 89 631 q 97 648 89 640 q 114 656 104 656 q 131 648 124 656 q 138 631 138 640 l 138 242 q 196 101 138 163 q 336 40 254 40 q 475 101 417 40 q 533 242 533 163 l 533 632 q 541 649 533 642 q 558 656 549 656 q 575 649 568 656 q 582 632 582 642 l 582 242 q 509 67 582 142 q 336 -8 436 -8 q 162 67 235 -8 q 89 242 89 142 m 243 939 q 265 964 243 964 q 275 961 269 964 l 417 878 q 428 860 428 872 q 420 842 428 850 q 401 835 413 835 q 389 839 394 835 l 257 914 q 243 939 243 922 z "},"ú":{"ha":671,"x_min":89,"x_max":582,"o":"m 89 242 l 89 631 q 97 648 89 640 q 114 656 104 656 q 131 648 124 656 q 138 631 138 640 l 138 242 q 196 101 138 163 q 336 40 254 40 q 475 101 417 40 q 533 242 533 163 l 533 632 q 541 649 533 642 q 558 656 549 656 q 575 649 568 656 q 582 632 582 642 l 582 242 q 509 67 582 142 q 336 -8 436 -8 q 162 67 235 -8 q 89 242 89 142 m 243 860 q 254 878 243 872 l 396 961 q 406 964 401 964 q 428 939 428 964 q 414 914 428 922 l 282 839 q 269 835 275 835 q 251 842 258 835 q 243 860 243 850 z "},"û":{"ha":671,"x_min":89,"x_max":582,"o":"m 89 242 l 89 631 q 97 648 89 640 q 114 656 104 656 q 131 648 124 656 q 138 631 138 640 l 138 242 q 196 101 138 163 q 336 40 254 40 q 475 101 417 40 q 533 242 533 163 l 533 632 q 541 649 533 642 q 558 656 549 656 q 575 649 568 656 q 582 632 582 642 l 582 242 q 509 67 582 142 q 336 -8 436 -8 q 162 67 235 -8 q 89 242 89 142 m 154 860 q 167 879 154 872 l 311 957 q 335 964 322 964 q 358 957 347 964 l 503 881 q 515 857 515 875 q 508 841 515 847 q 492 835 501 835 l 479 839 l 335 915 l 190 838 q 185 835 189 838 q 179 833 181 833 q 162 841 169 833 q 154 860 154 849 z "},"ü":{"ha":671,"x_min":89,"x_max":582,"o":"m 89 242 l 89 631 q 97 648 89 640 q 114 656 104 656 q 131 648 124 656 q 138 631 138 640 l 138 242 q 196 101 138 163 q 336 40 254 40 q 475 101 417 40 q 533 242 533 163 l 533 632 q 541 649 533 642 q 558 656 549 656 q 575 649 568 656 q 582 632 582 642 l 582 242 q 509 67 582 142 q 336 -8 436 -8 q 162 67 235 -8 q 89 242 89 142 m 228 845 q 223 851 228 845 q 217 875 217 857 q 228 904 217 893 q 258 915 240 915 q 288 904 276 915 q 299 875 299 893 q 288 845 299 857 q 258 833 276 833 q 228 845 240 833 m 383 845 q 377 851 383 845 q 371 875 371 857 q 383 904 371 893 q 413 915 394 915 q 442 904 431 915 q 453 875 453 893 q 442 845 453 857 q 413 833 431 833 q 383 845 394 833 z "},"ý":{"ha":549,"x_min":25,"x_max":522,"o":"m 25 640 q 33 657 25 650 q 51 664 40 664 q 74 649 69 664 l 275 93 l 475 649 q 497 664 482 664 q 522 640 522 664 q 521 632 522 635 l 299 18 l 271 -58 q 241 -132 263 -81 q 202 -210 219 -183 q 160 -268 185 -236 q 108 -315 136 -300 q 50 -329 81 -329 q 33 -322 40 -329 q 26 -306 26 -315 q 47 -281 26 -281 q 93 -269 71 -281 q 135 -231 115 -258 q 167 -183 154 -204 q 199 -117 181 -162 q 225 -53 218 -71 l 250 18 l 28 632 q 25 640 25 638 m 181 860 q 192 878 181 872 l 333 961 q 343 964 339 964 q 365 939 365 964 q 351 914 365 922 l 219 839 q 207 835 214 835 q 188 842 196 835 q 181 860 181 850 z "},"þ":{"ha":650,"x_min":96,"x_max":581,"o":"m 96 -304 l 96 1043 q 119 1067 96 1067 q 144 1043 144 1067 l 144 558 q 331 664 204 664 q 507 590 433 664 q 581 414 581 517 l 581 244 q 506 68 581 144 q 333 -8 432 -8 q 220 22 272 -8 q 144 97 168 53 l 144 -304 q 137 -322 144 -314 q 119 -329 129 -329 q 103 -322 110 -329 q 96 -304 96 -314 m 144 193 q 203 95 144 150 q 336 40 261 40 q 473 103 414 40 q 532 244 532 165 l 532 414 q 473 553 532 492 q 335 615 414 615 q 202 560 260 615 q 144 414 144 504 l 144 193 z "},"ÿ":{"ha":549,"x_min":25,"x_max":522,"o":"m 25 640 q 33 657 25 650 q 51 664 40 664 q 74 649 69 664 l 275 93 l 475 649 q 497 664 482 664 q 522 640 522 664 q 521 632 522 635 l 299 18 l 271 -58 q 241 -132 263 -81 q 202 -210 219 -183 q 160 -268 185 -236 q 108 -315 136 -300 q 50 -329 81 -329 q 33 -322 40 -329 q 26 -306 26 -315 q 47 -281 26 -281 q 93 -269 71 -281 q 135 -231 115 -258 q 167 -183 154 -204 q 199 -117 181 -162 q 225 -53 218 -71 l 250 18 l 28 632 q 25 640 25 638 m 167 845 q 161 851 167 845 q 156 875 156 857 q 167 904 156 893 q 197 915 179 915 q 226 904 215 915 q 238 875 238 893 q 226 845 238 857 q 197 833 215 833 q 167 845 179 833 m 322 845 q 316 851 322 845 q 310 875 310 857 q 322 904 310 893 q 351 915 333 915 q 381 904 369 915 q 392 875 392 893 q 381 845 392 857 q 351 833 369 833 q 322 845 333 833 z "},"Ā":{"ha":724,"x_min":35,"x_max":689,"o":"m 35 22 q 36 31 35 28 l 338 1004 q 363 1024 343 1024 q 389 1004 382 1024 l 688 31 q 688 27 688 29 q 689 24 689 25 q 681 7 689 14 q 661 0 672 0 q 639 18 644 0 l 568 246 l 154 246 l 85 18 q 60 0 79 0 q 35 22 35 0 m 169 296 l 553 296 l 363 918 l 169 296 m 185 1282 q 208 1307 185 1307 l 514 1307 q 531 1299 524 1307 q 539 1282 539 1292 q 531 1265 539 1272 q 514 1258 524 1258 l 208 1258 q 185 1282 185 1258 z "},"ā":{"ha":588,"x_min":49,"x_max":499,"o":"m 49 175 q 131 319 49 279 q 372 358 214 358 l 450 358 l 450 397 q 404 551 450 486 q 267 615 358 615 q 197 606 229 615 q 146 588 164 597 q 122 578 128 578 q 104 588 111 578 q 97 606 97 597 q 152 645 97 626 q 269 664 207 664 q 444 588 389 664 q 499 397 499 513 l 499 25 q 475 0 499 0 q 457 7 464 0 q 450 25 450 14 l 450 97 q 242 -8 358 -8 q 102 38 156 -8 q 49 175 49 85 m 97 175 q 137 74 97 108 q 240 40 176 40 q 383 93 315 40 q 450 193 450 146 l 450 310 l 374 310 q 269 306 311 310 q 183 288 226 301 q 119 247 140 275 q 97 175 97 218 m 110 922 q 133 947 110 947 l 439 947 q 456 940 449 947 q 464 922 464 932 q 456 906 464 913 q 439 899 449 899 l 133 899 q 110 922 110 899 z "},"Ă":{"ha":724,"x_min":35,"x_max":689,"o":"m 35 22 q 36 31 35 28 l 338 1004 q 363 1024 343 1024 q 389 1004 382 1024 l 688 31 q 688 27 688 29 q 689 24 689 25 q 681 7 689 14 q 661 0 672 0 q 639 18 644 0 l 568 246 l 154 246 l 85 18 q 60 0 79 0 q 35 22 35 0 m 169 296 l 553 296 l 363 918 l 169 296 m 210 1346 l 254 1346 q 285 1265 254 1299 q 361 1231 317 1231 q 435 1265 404 1231 q 467 1346 467 1299 l 513 1346 q 467 1240 513 1285 q 361 1194 421 1194 q 255 1240 300 1194 q 210 1346 210 1285 z "},"ă":{"ha":588,"x_min":49,"x_max":499,"o":"m 49 175 q 131 319 49 279 q 372 358 214 358 l 450 358 l 450 397 q 404 551 450 486 q 267 615 358 615 q 197 606 229 615 q 146 588 164 597 q 122 578 128 578 q 104 588 111 578 q 97 606 97 597 q 152 645 97 626 q 269 664 207 664 q 444 588 389 664 q 499 397 499 513 l 499 25 q 475 0 499 0 q 457 7 464 0 q 450 25 450 14 l 450 97 q 242 -8 358 -8 q 102 38 156 -8 q 49 175 49 85 m 97 175 q 137 74 97 108 q 240 40 176 40 q 383 93 315 40 q 450 193 450 146 l 450 310 l 374 310 q 269 306 311 310 q 183 288 226 301 q 119 247 140 275 q 97 175 97 218 m 136 986 l 181 986 q 212 905 181 939 q 288 871 243 871 q 362 905 331 871 q 393 986 393 939 l 439 986 q 393 880 439 925 q 288 835 347 835 q 181 880 226 835 q 136 986 136 925 z "},"Ą":{"ha":724,"x_min":35,"x_max":689,"o":"m 35 22 q 36 31 35 28 l 338 1004 q 363 1024 343 1024 q 389 1004 382 1024 l 688 31 q 688 27 688 29 q 689 24 689 25 q 674 3 689 11 q 599 -85 624 -46 q 574 -175 574 -125 q 661 -235 574 -235 q 686 -253 686 -235 q 654 -271 686 -271 q 570 -249 607 -271 q 533 -178 533 -228 q 636 24 533 -75 l 568 246 l 154 246 l 85 18 q 60 0 79 0 q 35 22 35 0 m 169 296 l 553 296 l 363 918 l 169 296 z "},"ą":{"ha":588,"x_min":49,"x_max":499,"o":"m 49 175 q 131 319 49 279 q 372 358 214 358 l 450 358 l 450 397 q 404 551 450 486 q 267 615 358 615 q 197 606 229 615 q 146 588 164 597 q 122 578 128 578 q 104 588 111 578 q 97 606 97 597 q 152 645 97 626 q 269 664 207 664 q 444 588 389 664 q 499 397 499 513 l 499 25 q 486 3 499 10 q 411 -85 436 -46 q 386 -175 386 -125 q 474 -235 386 -235 q 499 -253 499 -235 q 467 -271 499 -271 q 383 -249 419 -271 q 346 -178 346 -228 q 450 25 346 -75 l 450 97 q 242 -8 358 -8 q 102 38 156 -8 q 49 175 49 85 m 97 175 q 137 74 97 108 q 240 40 176 40 q 383 93 315 40 q 450 193 450 146 l 450 310 l 374 310 q 269 306 311 310 q 183 288 226 301 q 119 247 140 275 q 97 175 97 218 z "},"Ć":{"ha":711,"x_min":106,"x_max":649,"o":"m 106 278 l 106 729 q 183 946 106 876 q 382 1015 260 1015 q 578 951 508 1015 q 649 797 649 886 q 624 758 649 758 q 599 783 599 758 q 588 841 597 814 q 556 899 578 868 q 490 947 535 929 q 381 965 444 965 q 156 729 156 965 l 156 278 q 386 42 156 42 q 478 55 439 42 q 537 84 517 68 q 572 129 557 100 q 590 176 586 158 q 599 224 594 193 q 624 249 601 249 q 649 208 649 249 q 576 57 649 122 q 378 -8 504 -8 q 181 61 257 -8 q 106 278 106 131 m 285 1219 q 296 1238 285 1232 l 438 1321 q 447 1324 443 1324 q 469 1299 469 1324 q 456 1274 469 1282 l 324 1199 q 311 1194 317 1194 q 292 1202 300 1194 q 285 1219 285 1210 z "},"ć":{"ha":558,"x_min":72,"x_max":517,"o":"m 72 244 l 72 411 q 137 594 72 524 q 326 664 201 664 q 456 635 403 664 q 508 582 508 607 q 501 565 508 572 q 483 558 493 558 q 459 572 476 558 q 408 601 442 586 q 326 615 375 615 q 174 561 228 615 q 121 411 121 507 l 121 244 q 174 94 121 149 q 328 40 228 40 q 415 55 379 40 q 467 83 450 69 q 493 97 485 97 q 510 90 503 97 q 517 74 517 83 q 462 19 517 47 q 326 -8 407 -8 q 137 61 201 -8 q 72 244 72 131 m 201 860 q 213 878 201 872 l 354 961 q 364 964 360 964 q 386 939 386 964 q 372 914 386 922 l 240 839 q 228 835 233 835 q 209 842 217 835 q 201 860 201 850 z "},"Ĉ":{"ha":711,"x_min":106,"x_max":649,"o":"m 106 278 l 106 729 q 183 946 106 876 q 382 1015 260 1015 q 578 951 508 1015 q 649 797 649 886 q 624 758 649 758 q 599 783 599 758 q 588 841 597 814 q 556 899 578 868 q 490 947 535 929 q 381 965 444 965 q 156 729 156 965 l 156 278 q 386 42 156 42 q 478 55 439 42 q 537 84 517 68 q 572 129 557 100 q 590 176 586 158 q 599 224 594 193 q 624 249 601 249 q 649 208 649 249 q 576 57 649 122 q 378 -8 504 -8 q 181 61 257 -8 q 106 278 106 131 m 196 1219 q 208 1239 196 1233 l 353 1317 q 376 1324 364 1324 q 400 1317 389 1324 l 544 1240 q 557 1217 557 1233 q 550 1201 557 1207 q 533 1194 543 1194 l 521 1199 l 376 1275 l 232 1197 q 226 1195 231 1197 q 221 1193 222 1193 q 203 1201 211 1193 q 196 1219 196 1208 z "},"ĉ":{"ha":558,"x_min":72,"x_max":517,"o":"m 72 244 l 72 411 q 137 594 72 524 q 326 664 201 664 q 456 635 403 664 q 508 582 508 607 q 501 565 508 572 q 483 558 493 558 q 459 572 476 558 q 408 601 442 586 q 326 615 375 615 q 174 561 228 615 q 121 411 121 507 l 121 244 q 174 94 121 149 q 328 40 228 40 q 415 55 379 40 q 467 83 450 69 q 493 97 485 97 q 510 90 503 97 q 517 74 517 83 q 462 19 517 47 q 326 -8 407 -8 q 137 61 201 -8 q 72 244 72 131 m 114 860 q 126 879 114 872 l 271 957 q 294 964 282 964 q 318 957 307 964 l 463 881 q 475 857 475 875 q 468 841 475 847 q 451 835 461 835 l 439 839 l 294 915 l 150 838 q 144 835 149 838 q 139 833 140 833 q 122 841 129 833 q 114 860 114 849 z "},"Ċ":{"ha":711,"x_min":106,"x_max":649,"o":"m 106 278 l 106 729 q 183 946 106 876 q 382 1015 260 1015 q 578 951 508 1015 q 649 797 649 886 q 624 758 649 758 q 599 783 599 758 q 588 841 597 814 q 556 899 578 868 q 490 947 535 929 q 381 965 444 965 q 156 729 156 965 l 156 278 q 386 42 156 42 q 478 55 439 42 q 537 84 517 68 q 572 129 557 100 q 590 176 586 158 q 599 224 594 193 q 624 249 601 249 q 649 208 649 249 q 576 57 649 122 q 378 -8 504 -8 q 181 61 257 -8 q 106 278 106 131 m 348 1205 q 342 1211 348 1205 q 336 1235 336 1217 q 348 1264 336 1253 q 378 1275 360 1275 q 407 1264 396 1275 q 418 1235 418 1253 q 407 1205 418 1217 q 378 1193 396 1193 q 348 1205 360 1193 z "},"ċ":{"ha":558,"x_min":72,"x_max":517,"o":"m 72 244 l 72 411 q 137 594 72 524 q 326 664 201 664 q 456 635 403 664 q 508 582 508 607 q 501 565 508 572 q 483 558 493 558 q 459 572 476 558 q 408 601 442 586 q 326 615 375 615 q 174 561 228 615 q 121 411 121 507 l 121 244 q 174 94 121 149 q 328 40 228 40 q 415 55 379 40 q 467 83 450 69 q 493 97 485 97 q 510 90 503 97 q 517 74 517 83 q 462 19 517 47 q 326 -8 407 -8 q 137 61 201 -8 q 72 244 72 131 m 265 845 q 259 851 265 845 q 253 875 253 857 q 265 904 253 893 q 294 915 276 915 q 324 904 313 915 q 335 875 335 893 q 324 845 335 857 q 294 833 313 833 q 265 845 276 833 z "},"Č":{"ha":711,"x_min":106,"x_max":649,"o":"m 106 278 l 106 729 q 183 946 106 876 q 382 1015 260 1015 q 578 951 508 1015 q 649 797 649 886 q 624 758 649 758 q 599 783 599 758 q 588 841 597 814 q 556 899 578 868 q 490 947 535 929 q 381 965 444 965 q 156 729 156 965 l 156 278 q 386 42 156 42 q 478 55 439 42 q 537 84 517 68 q 572 129 557 100 q 590 176 586 158 q 599 224 594 193 q 624 249 601 249 q 649 208 649 249 q 576 57 649 122 q 378 -8 504 -8 q 181 61 257 -8 q 106 278 106 131 m 207 1332 q 196 1354 196 1346 q 202 1369 196 1363 q 217 1375 208 1375 q 239 1364 229 1375 l 375 1221 l 511 1364 q 533 1375 521 1375 q 548 1369 542 1375 q 554 1354 554 1363 q 543 1332 554 1346 l 404 1192 q 375 1176 389 1176 q 346 1192 358 1176 l 207 1332 z "},"č":{"ha":558,"x_min":72,"x_max":517,"o":"m 72 244 l 72 411 q 137 594 72 524 q 326 664 201 664 q 456 635 403 664 q 508 582 508 607 q 501 565 508 572 q 483 558 493 558 q 459 572 476 558 q 408 601 442 586 q 326 615 375 615 q 174 561 228 615 q 121 411 121 507 l 121 244 q 174 94 121 149 q 328 40 228 40 q 415 55 379 40 q 467 83 450 69 q 493 97 485 97 q 510 90 503 97 q 517 74 517 83 q 462 19 517 47 q 326 -8 407 -8 q 137 61 201 -8 q 72 244 72 131 m 125 972 q 114 994 114 986 q 120 1009 114 1003 q 135 1015 126 1015 q 157 1004 147 1015 l 293 861 l 429 1004 q 451 1015 439 1015 q 466 1009 460 1015 q 472 994 472 1003 q 461 972 472 986 l 322 832 q 293 817 307 817 q 264 832 276 817 l 125 972 z "},"Ď":{"ha":764,"x_min":115,"x_max":658,"o":"m 115 24 l 115 992 q 140 1015 115 1015 l 386 1015 q 584 947 510 1015 q 658 729 658 878 l 658 286 q 584 69 658 138 q 386 0 510 0 l 140 0 q 115 24 115 0 m 165 50 l 386 50 q 551 109 493 50 q 608 286 608 168 l 608 729 q 551 906 608 847 q 386 965 493 965 l 165 965 l 165 50 m 217 1332 q 206 1354 206 1346 q 212 1369 206 1363 q 226 1375 218 1375 q 249 1364 239 1375 l 385 1221 l 521 1364 q 543 1375 531 1375 q 558 1369 551 1375 q 564 1354 564 1363 q 553 1332 564 1346 l 414 1192 q 385 1176 399 1176 q 356 1192 368 1176 l 217 1332 z "},"ď":{"ha":650,"x_min":69,"x_max":740,"o":"m 69 244 l 69 414 q 143 590 69 517 q 319 664 217 664 q 506 558 446 664 l 506 1043 q 531 1067 506 1067 q 554 1043 554 1067 l 554 25 q 547 8 554 15 q 531 0 540 0 q 513 8 521 0 q 506 25 506 15 l 506 97 q 430 22 482 53 q 317 -8 378 -8 q 144 68 218 -8 q 69 244 69 144 m 118 244 q 177 103 118 165 q 314 40 236 40 q 447 95 389 40 q 506 193 506 150 l 506 414 q 448 560 506 504 q 315 615 390 615 q 177 553 236 615 q 118 414 118 492 l 118 244 m 642 979 q 656 1015 642 1000 q 692 1029 669 1029 q 726 1015 711 1029 q 740 979 740 1000 q 694 844 740 936 q 675 831 688 831 q 653 851 653 831 q 654 860 653 857 l 679 931 q 642 979 642 940 z "},"Đ":{"ha":778,"x_min":4,"x_max":672,"o":"m 4 533 q 28 558 4 558 l 129 558 l 129 992 q 154 1015 129 1015 l 400 1015 q 598 947 524 1015 q 672 729 672 878 l 672 286 q 598 69 672 138 q 400 0 524 0 l 154 0 q 129 24 129 0 l 129 510 l 28 510 q 4 533 4 510 m 179 50 l 400 50 q 565 109 507 50 q 622 286 622 168 l 622 729 q 565 906 622 847 q 400 965 507 965 l 179 965 l 179 558 l 361 558 q 378 551 371 558 q 386 533 386 543 q 378 517 386 524 q 361 510 371 510 l 179 510 l 179 50 z "},"đ":{"ha":650,"x_min":69,"x_max":658,"o":"m 69 244 l 69 414 q 143 590 69 517 q 319 664 217 664 q 506 558 446 664 l 506 810 l 314 810 q 290 833 290 810 q 314 858 290 858 l 506 858 l 506 1043 q 531 1067 506 1067 q 554 1043 554 1067 l 554 858 l 633 858 q 651 851 643 858 q 658 833 658 843 q 651 817 658 824 q 633 810 643 810 l 554 810 l 554 25 q 547 8 554 15 q 531 0 540 0 q 513 8 521 0 q 506 25 506 15 l 506 97 q 430 22 482 53 q 317 -8 378 -8 q 144 68 218 -8 q 69 244 69 144 m 118 244 q 177 103 118 165 q 314 40 236 40 q 447 95 389 40 q 506 193 506 150 l 506 414 q 448 560 506 504 q 315 615 390 615 q 177 553 236 615 q 118 414 118 492 l 118 244 z "},"Ē":{"ha":692,"x_min":115,"x_max":658,"o":"m 115 25 l 115 990 q 140 1015 115 1015 l 635 1015 q 658 992 658 1015 q 635 965 658 965 l 165 965 l 165 533 l 388 533 q 411 507 411 533 q 388 483 411 483 l 165 483 l 165 50 l 635 50 q 658 24 658 50 q 635 0 658 0 l 140 0 q 115 25 115 0 m 210 1282 q 233 1307 210 1307 l 539 1307 q 556 1299 549 1307 q 564 1282 564 1292 q 556 1265 564 1272 q 539 1258 549 1258 l 233 1258 q 210 1282 210 1258 z "},"ē":{"ha":618,"x_min":71,"x_max":564,"o":"m 71 244 l 71 418 q 144 591 71 518 q 318 664 217 664 q 491 592 418 664 q 564 414 564 521 q 556 356 564 378 q 528 324 547 333 q 492 312 508 314 q 449 310 476 310 l 119 310 l 119 244 q 185 96 119 151 q 354 40 250 40 q 440 55 406 40 q 492 83 475 69 q 518 97 510 97 q 535 89 528 97 q 543 72 543 81 q 521 40 543 58 q 453 6 499 21 q 351 -8 407 -8 q 149 62 228 -8 q 71 244 71 132 m 119 358 l 432 358 q 499 368 483 358 q 515 410 515 378 q 460 552 515 489 q 318 615 404 615 q 177 556 235 615 q 119 418 119 497 l 119 358 m 140 922 q 164 947 140 947 l 469 947 q 487 940 479 947 q 494 922 494 932 q 487 906 494 913 q 469 899 479 899 l 164 899 q 140 922 140 899 z "},"Ĕ":{"ha":692,"x_min":115,"x_max":658,"o":"m 115 25 l 115 990 q 140 1015 115 1015 l 635 1015 q 658 992 658 1015 q 635 965 658 965 l 165 965 l 165 533 l 388 533 q 411 507 411 533 q 388 483 411 483 l 165 483 l 165 50 l 635 50 q 658 24 658 50 q 635 0 658 0 l 140 0 q 115 25 115 0 m 235 1346 l 279 1346 q 310 1265 279 1299 q 386 1231 342 1231 q 460 1265 429 1231 q 492 1346 492 1299 l 538 1346 q 492 1240 538 1285 q 386 1194 446 1194 q 280 1240 325 1194 q 235 1346 235 1285 z "},"ĕ":{"ha":618,"x_min":71,"x_max":564,"o":"m 71 244 l 71 418 q 144 591 71 518 q 318 664 217 664 q 491 592 418 664 q 564 414 564 521 q 556 356 564 378 q 528 324 547 333 q 492 312 508 314 q 449 310 476 310 l 119 310 l 119 244 q 185 96 119 151 q 354 40 250 40 q 440 55 406 40 q 492 83 475 69 q 518 97 510 97 q 535 89 528 97 q 543 72 543 81 q 521 40 543 58 q 453 6 499 21 q 351 -8 407 -8 q 149 62 228 -8 q 71 244 71 132 m 119 358 l 432 358 q 499 368 483 358 q 515 410 515 378 q 460 552 515 489 q 318 615 404 615 q 177 556 235 615 q 119 418 119 497 l 119 358 m 165 986 l 210 986 q 241 905 210 939 q 317 871 272 871 q 391 905 360 871 q 422 986 422 939 l 468 986 q 422 880 468 925 q 317 835 376 835 q 210 880 256 835 q 165 986 165 925 z "},"Ė":{"ha":692,"x_min":115,"x_max":658,"o":"m 115 25 l 115 990 q 140 1015 115 1015 l 635 1015 q 658 992 658 1015 q 635 965 658 965 l 165 965 l 165 533 l 388 533 q 411 507 411 533 q 388 483 411 483 l 165 483 l 165 50 l 635 50 q 658 24 658 50 q 635 0 658 0 l 140 0 q 115 25 115 0 m 358 1205 q 352 1211 358 1205 q 346 1235 346 1217 q 358 1264 346 1253 q 388 1275 369 1275 q 417 1264 406 1275 q 428 1235 428 1253 q 417 1205 428 1217 q 388 1193 406 1193 q 358 1205 369 1193 z "},"ė":{"ha":618,"x_min":71,"x_max":564,"o":"m 71 244 l 71 418 q 144 591 71 518 q 318 664 217 664 q 491 592 418 664 q 564 414 564 521 q 556 356 564 378 q 528 324 547 333 q 492 312 508 314 q 449 310 476 310 l 119 310 l 119 244 q 185 96 119 151 q 354 40 250 40 q 440 55 406 40 q 492 83 475 69 q 518 97 510 97 q 535 89 528 97 q 543 72 543 81 q 521 40 543 58 q 453 6 499 21 q 351 -8 407 -8 q 149 62 228 -8 q 71 244 71 132 m 119 358 l 432 358 q 499 368 483 358 q 515 410 515 378 q 460 552 515 489 q 318 615 404 615 q 177 556 235 615 q 119 418 119 497 l 119 358 m 288 845 q 282 851 288 845 q 276 875 276 857 q 288 904 276 893 q 318 915 300 915 q 347 904 336 915 q 358 875 358 893 q 347 845 358 857 q 318 833 336 833 q 288 845 300 833 z "},"Ę":{"ha":692,"x_min":115,"x_max":658,"o":"m 115 25 l 115 990 q 140 1015 115 1015 l 635 1015 q 658 992 658 1015 q 635 965 658 965 l 165 965 l 165 533 l 388 533 q 411 507 411 533 q 388 483 411 483 l 165 483 l 165 50 l 635 50 q 658 24 658 50 q 644 1 658 6 q 546 -175 546 -92 q 633 -235 546 -235 q 658 -253 658 -235 q 626 -271 658 -271 q 542 -249 579 -271 q 506 -178 506 -228 q 585 0 506 -83 l 140 0 q 115 25 115 0 z "},"ę":{"ha":618,"x_min":71,"x_max":564,"o":"m 71 244 l 71 418 q 144 591 71 518 q 318 664 217 664 q 491 592 418 664 q 564 414 564 521 q 556 356 564 378 q 528 324 547 333 q 492 312 508 314 q 449 310 476 310 l 119 310 l 119 244 q 185 96 119 151 q 354 40 250 40 q 440 55 406 40 q 492 83 475 69 q 518 97 510 97 q 535 89 528 97 q 543 72 543 81 q 506 29 543 53 q 414 -140 414 -60 q 501 -200 414 -200 q 526 -218 526 -200 q 494 -236 526 -236 q 410 -215 447 -236 q 374 -143 374 -193 q 424 -1 374 -69 q 351 -8 386 -8 q 149 62 228 -8 q 71 244 71 132 m 119 358 l 432 358 q 499 368 483 358 q 515 410 515 378 q 460 552 515 489 q 318 615 404 615 q 177 556 235 615 q 119 418 119 497 l 119 358 z "},"Ě":{"ha":692,"x_min":115,"x_max":658,"o":"m 115 25 l 115 990 q 140 1015 115 1015 l 635 1015 q 658 992 658 1015 q 635 965 658 965 l 165 965 l 165 533 l 388 533 q 411 507 411 533 q 388 483 411 483 l 165 483 l 165 50 l 635 50 q 658 24 658 50 q 635 0 658 0 l 140 0 q 115 25 115 0 m 217 1332 q 206 1354 206 1346 q 212 1369 206 1363 q 226 1375 218 1375 q 249 1364 239 1375 l 385 1221 l 521 1364 q 543 1375 531 1375 q 558 1369 551 1375 q 564 1354 564 1363 q 553 1332 564 1346 l 414 1192 q 385 1176 399 1176 q 356 1192 368 1176 l 217 1332 z "},"ě":{"ha":618,"x_min":71,"x_max":564,"o":"m 71 244 l 71 418 q 144 591 71 518 q 318 664 217 664 q 491 592 418 664 q 564 414 564 521 q 556 356 564 378 q 528 324 547 333 q 492 312 508 314 q 449 310 476 310 l 119 310 l 119 244 q 185 96 119 151 q 354 40 250 40 q 440 55 406 40 q 492 83 475 69 q 518 97 510 97 q 535 89 528 97 q 543 72 543 81 q 521 40 543 58 q 453 6 499 21 q 351 -8 407 -8 q 149 62 228 -8 q 71 244 71 132 m 119 358 l 432 358 q 499 368 483 358 q 515 410 515 378 q 460 552 515 489 q 318 615 404 615 q 177 556 235 615 q 119 418 119 497 l 119 358 m 147 972 q 136 994 136 986 q 142 1009 136 1003 q 157 1015 149 1015 q 179 1004 169 1015 l 315 861 l 451 1004 q 474 1015 461 1015 q 488 1009 482 1015 q 494 994 494 1003 q 483 972 494 986 l 344 832 q 315 817 329 817 q 286 832 299 817 l 147 972 z "},"Ĝ":{"ha":738,"x_min":106,"x_max":649,"o":"m 106 278 l 106 729 q 179 947 106 878 q 376 1015 253 1015 q 575 950 501 1015 q 649 786 649 885 q 624 758 649 758 q 599 783 600 758 q 528 920 586 875 q 376 965 471 965 q 213 906 269 965 q 156 729 156 847 l 156 278 q 213 101 156 160 q 376 42 269 42 q 541 101 483 42 q 599 278 599 160 l 599 483 l 378 483 q 354 508 354 483 q 378 533 354 533 l 625 533 q 649 507 649 533 l 649 278 q 574 60 649 129 q 376 -8 500 -8 q 179 60 253 -8 q 106 278 106 129 m 196 1219 q 208 1239 196 1233 l 353 1317 q 376 1324 364 1324 q 400 1317 389 1324 l 544 1240 q 557 1217 557 1233 q 550 1201 557 1207 q 533 1194 543 1194 l 521 1199 l 376 1275 l 232 1197 q 226 1195 231 1197 q 221 1193 222 1193 q 203 1201 211 1193 q 196 1219 196 1208 z "},"ĝ":{"ha":619,"x_min":44,"x_max":604,"o":"m 44 -150 q 171 4 44 -40 q 86 103 86 28 q 154 199 86 167 q 82 374 82 263 l 82 436 q 144 601 82 538 q 306 664 206 664 q 471 597 407 664 q 519 658 490 633 q 575 682 549 682 q 604 654 604 682 q 597 635 604 642 q 579 628 589 628 q 496 564 529 628 q 531 436 531 515 l 531 374 q 467 208 531 274 q 304 143 404 143 q 190 172 240 143 q 135 106 135 147 q 167 56 135 74 q 249 35 200 39 q 354 23 297 31 q 460 3 411 15 q 541 -47 508 -10 q 574 -142 574 -83 q 504 -280 574 -231 q 314 -329 435 -329 q 118 -281 192 -329 q 44 -150 44 -232 m 93 -146 q 152 -247 93 -208 q 314 -285 211 -285 q 470 -247 415 -285 q 525 -143 525 -208 q 509 -88 525 -111 q 471 -53 493 -65 q 415 -32 449 -40 q 353 -21 381 -24 q 290 -15 326 -18 q 239 -10 254 -12 q 93 -146 93 -51 m 131 375 q 178 243 131 294 q 307 192 225 192 q 434 243 386 192 q 482 374 482 294 l 482 436 q 435 565 482 514 q 306 615 388 615 q 178 565 225 615 q 131 436 131 514 l 131 375 m 146 860 q 158 879 146 872 l 303 957 q 326 964 314 964 q 350 957 339 964 l 494 881 q 507 857 507 875 q 500 841 507 847 q 483 835 493 835 l 471 839 l 326 915 l 182 838 q 176 835 181 838 q 171 833 172 833 q 153 841 161 833 q 146 860 146 849 z "},"Ğ":{"ha":738,"x_min":106,"x_max":649,"o":"m 106 278 l 106 729 q 179 947 106 878 q 376 1015 253 1015 q 575 950 501 1015 q 649 786 649 885 q 624 758 649 758 q 599 783 600 758 q 528 920 586 875 q 376 965 471 965 q 213 906 269 965 q 156 729 156 847 l 156 278 q 213 101 156 160 q 376 42 269 42 q 541 101 483 42 q 599 278 599 160 l 599 483 l 378 483 q 354 508 354 483 q 378 533 354 533 l 625 533 q 649 507 649 533 l 649 278 q 574 60 649 129 q 376 -8 500 -8 q 179 60 253 -8 q 106 278 106 129 m 225 1346 l 269 1346 q 301 1265 269 1299 q 376 1231 332 1231 q 451 1265 419 1231 q 482 1346 482 1299 l 528 1346 q 482 1240 528 1285 q 376 1194 436 1194 q 270 1240 315 1194 q 225 1346 225 1285 z "},"ğ":{"ha":619,"x_min":44,"x_max":604,"o":"m 44 -150 q 171 4 44 -40 q 86 103 86 28 q 154 199 86 167 q 82 374 82 263 l 82 436 q 144 601 82 538 q 306 664 206 664 q 471 597 407 664 q 519 658 490 633 q 575 682 549 682 q 604 654 604 682 q 597 635 604 642 q 579 628 589 628 q 496 564 529 628 q 531 436 531 515 l 531 374 q 467 208 531 274 q 304 143 404 143 q 190 172 240 143 q 135 106 135 147 q 167 56 135 74 q 249 35 200 39 q 354 23 297 31 q 460 3 411 15 q 541 -47 508 -10 q 574 -142 574 -83 q 504 -280 574 -231 q 314 -329 435 -329 q 118 -281 192 -329 q 44 -150 44 -232 m 93 -146 q 152 -247 93 -208 q 314 -285 211 -285 q 470 -247 415 -285 q 525 -143 525 -208 q 509 -88 525 -111 q 471 -53 493 -65 q 415 -32 449 -40 q 353 -21 381 -24 q 290 -15 326 -18 q 239 -10 254 -12 q 93 -146 93 -51 m 131 375 q 178 243 131 294 q 307 192 225 192 q 434 243 386 192 q 482 374 482 294 l 482 436 q 435 565 482 514 q 306 615 388 615 q 178 565 225 615 q 131 436 131 514 l 131 375 m 175 986 l 219 986 q 251 905 219 939 q 326 871 282 871 q 401 905 369 871 q 432 986 432 939 l 478 986 q 432 880 478 925 q 326 835 386 835 q 220 880 265 835 q 175 986 175 925 z "},"Ġ":{"ha":738,"x_min":106,"x_max":649,"o":"m 106 278 l 106 729 q 179 947 106 878 q 376 1015 253 1015 q 575 950 501 1015 q 649 786 649 885 q 624 758 649 758 q 599 783 600 758 q 528 920 586 875 q 376 965 471 965 q 213 906 269 965 q 156 729 156 847 l 156 278 q 213 101 156 160 q 376 42 269 42 q 541 101 483 42 q 599 278 599 160 l 599 483 l 378 483 q 354 508 354 483 q 378 533 354 533 l 625 533 q 649 507 649 533 l 649 278 q 574 60 649 129 q 376 -8 500 -8 q 179 60 253 -8 q 106 278 106 129 m 348 1205 q 342 1211 348 1205 q 336 1235 336 1217 q 348 1264 336 1253 q 378 1275 360 1275 q 407 1264 396 1275 q 418 1235 418 1253 q 407 1205 418 1217 q 378 1193 396 1193 q 348 1205 360 1193 z "},"ġ":{"ha":619,"x_min":44,"x_max":604,"o":"m 44 -150 q 171 4 44 -40 q 86 103 86 28 q 154 199 86 167 q 82 374 82 263 l 82 436 q 144 601 82 538 q 306 664 206 664 q 471 597 407 664 q 519 658 490 633 q 575 682 549 682 q 604 654 604 682 q 597 635 604 642 q 579 628 589 628 q 496 564 529 628 q 531 436 531 515 l 531 374 q 467 208 531 274 q 304 143 404 143 q 190 172 240 143 q 135 106 135 147 q 167 56 135 74 q 249 35 200 39 q 354 23 297 31 q 460 3 411 15 q 541 -47 508 -10 q 574 -142 574 -83 q 504 -280 574 -231 q 314 -329 435 -329 q 118 -281 192 -329 q 44 -150 44 -232 m 93 -146 q 152 -247 93 -208 q 314 -285 211 -285 q 470 -247 415 -285 q 525 -143 525 -208 q 509 -88 525 -111 q 471 -53 493 -65 q 415 -32 449 -40 q 353 -21 381 -24 q 290 -15 326 -18 q 239 -10 254 -12 q 93 -146 93 -51 m 131 375 q 178 243 131 294 q 307 192 225 192 q 434 243 386 192 q 482 374 482 294 l 482 436 q 435 565 482 514 q 306 615 388 615 q 178 565 225 615 q 131 436 131 514 l 131 375 m 297 845 q 291 851 297 845 q 285 875 285 857 q 297 904 285 893 q 326 915 308 915 q 356 904 344 915 q 367 875 367 893 q 356 845 367 857 q 326 833 344 833 q 297 845 308 833 z "},"Ģ":{"ha":738,"x_min":106,"x_max":649,"o":"m 106 278 l 106 729 q 179 947 106 878 q 376 1015 253 1015 q 575 950 501 1015 q 649 786 649 885 q 624 758 649 758 q 599 783 600 758 q 528 920 586 875 q 376 965 471 965 q 213 906 269 965 q 156 729 156 847 l 156 278 q 213 101 156 160 q 376 42 269 42 q 541 101 483 42 q 599 278 599 160 l 599 483 l 378 483 q 354 508 354 483 q 378 533 354 533 l 625 533 q 649 507 649 533 l 649 278 q 574 60 649 129 q 376 -8 500 -8 q 179 60 253 -8 q 106 278 106 129 m 281 -171 q 292 -153 281 -158 l 433 -69 q 443 -67 439 -67 q 465 -92 465 -67 q 451 -117 465 -108 l 319 -192 q 307 -196 314 -196 q 288 -188 296 -196 q 281 -171 281 -181 z "},"ģ":{"ha":619,"x_min":44,"x_max":604,"o":"m 44 -150 q 171 4 44 -40 q 86 103 86 28 q 154 199 86 167 q 82 374 82 263 l 82 436 q 144 601 82 538 q 306 664 206 664 q 471 597 407 664 q 519 658 490 633 q 575 682 549 682 q 604 654 604 682 q 597 635 604 642 q 579 628 589 628 q 496 564 529 628 q 531 436 531 515 l 531 374 q 467 208 531 274 q 304 143 404 143 q 190 172 240 143 q 135 106 135 147 q 167 56 135 74 q 249 35 200 39 q 354 23 297 31 q 460 3 411 15 q 541 -47 508 -10 q 574 -142 574 -83 q 504 -280 574 -231 q 314 -329 435 -329 q 118 -281 192 -329 q 44 -150 44 -232 m 93 -146 q 152 -247 93 -208 q 314 -285 211 -285 q 470 -247 415 -285 q 525 -143 525 -208 q 509 -88 525 -111 q 471 -53 493 -65 q 415 -32 449 -40 q 353 -21 381 -24 q 290 -15 326 -18 q 239 -10 254 -12 q 93 -146 93 -51 m 131 375 q 178 243 131 294 q 307 192 225 192 q 434 243 386 192 q 482 374 482 294 l 482 436 q 435 565 482 514 q 306 615 388 615 q 178 565 225 615 q 131 436 131 514 l 131 375 m 218 860 q 229 878 218 872 l 371 961 q 381 964 376 964 q 403 939 403 964 q 389 914 403 922 l 257 839 q 244 835 250 835 q 226 842 233 835 q 218 860 218 850 m 263 1240 q 308 1375 263 1283 q 328 1389 315 1389 q 350 1368 350 1389 q 349 1360 350 1363 l 324 1289 q 361 1240 361 1279 q 347 1205 361 1219 q 311 1190 333 1190 q 277 1205 292 1190 q 263 1240 263 1219 z "},"Ĥ":{"ha":774,"x_min":115,"x_max":658,"o":"m 115 25 l 115 992 q 140 1015 115 1015 q 165 992 165 1015 l 165 551 l 608 551 l 608 992 q 633 1015 608 1015 q 658 992 658 1015 l 658 25 q 633 0 658 0 q 608 25 608 0 l 608 501 l 165 501 l 165 25 q 140 0 165 0 q 115 25 115 0 m 207 1219 q 219 1239 207 1233 l 364 1317 q 388 1324 375 1324 q 411 1317 400 1324 l 556 1240 q 568 1217 568 1233 q 561 1201 568 1207 q 544 1194 554 1194 l 532 1199 l 388 1275 l 243 1197 q 238 1195 242 1197 q 232 1193 233 1193 q 215 1201 222 1193 q 207 1219 207 1208 z "},"ĥ":{"ha":669,"x_min":-58,"x_max":581,"o":"m -58 1214 q -46 1233 -58 1228 l 99 1311 q 122 1318 110 1318 q 146 1311 135 1318 l 290 1235 q 303 1211 303 1228 q 296 1195 303 1201 q 279 1189 289 1189 l 267 1193 l 122 1269 l -22 1192 q -28 1190 -24 1192 q -33 1188 -32 1188 q -51 1195 -43 1188 q -58 1214 -58 1203 m 96 25 l 96 1043 q 119 1067 96 1067 q 144 1043 144 1067 l 144 558 q 331 664 204 664 q 507 590 433 664 q 581 414 581 517 l 581 25 q 556 0 581 0 q 532 25 532 0 l 532 414 q 473 553 532 492 q 335 615 414 615 q 202 560 260 615 q 144 414 144 504 l 144 25 q 137 8 144 15 q 119 0 129 0 q 103 8 110 0 q 96 25 96 15 z "},"Ħ":{"ha":774,"x_min":29,"x_max":744,"o":"m 29 778 q 53 803 29 803 l 115 803 l 115 992 q 140 1015 115 1015 q 165 992 165 1015 l 165 803 l 608 803 l 608 992 q 633 1015 608 1015 q 658 992 658 1015 l 658 803 l 719 803 q 737 795 729 803 q 744 778 744 788 q 737 761 744 768 q 719 754 729 754 l 658 754 l 658 25 q 633 0 658 0 q 608 25 608 0 l 608 501 l 165 501 l 165 25 q 140 0 165 0 q 115 25 115 0 l 115 754 l 53 754 q 29 778 29 754 m 165 551 l 608 551 l 608 754 l 165 754 l 165 551 z "},"ħ":{"ha":669,"x_min":28,"x_max":581,"o":"m 28 846 q 51 871 28 871 l 96 871 l 96 1043 q 119 1067 96 1067 q 144 1043 144 1067 l 144 871 l 357 871 q 374 863 367 871 q 382 846 382 856 q 374 829 382 836 q 357 822 367 822 l 144 822 l 144 558 q 331 664 204 664 q 507 590 433 664 q 581 414 581 517 l 581 25 q 556 0 581 0 q 532 25 532 0 l 532 414 q 473 553 532 492 q 335 615 414 615 q 202 560 260 615 q 144 414 144 504 l 144 25 q 137 8 144 15 q 119 0 129 0 q 103 8 110 0 q 96 25 96 15 l 96 822 l 51 822 q 28 846 28 822 z "},"Ĩ":{"ha":281,"x_min":-64,"x_max":346,"o":"m -64 1246 q -22 1295 -64 1272 q 60 1318 21 1318 q 147 1292 93 1318 q 236 1267 200 1267 q 281 1278 264 1267 q 308 1300 299 1289 q 326 1311 318 1311 q 346 1290 346 1311 q 306 1240 346 1261 q 229 1219 267 1219 q 144 1245 197 1219 q 50 1271 90 1271 q 4 1259 24 1271 q -27 1235 -15 1247 q -46 1222 -39 1222 q -64 1246 -64 1222 m 115 25 l 115 992 q 140 1015 115 1015 q 165 992 165 1015 l 165 25 q 140 0 165 0 q 115 25 115 0 z "},"ĩ":{"ha":238,"x_min":-87,"x_max":322,"o":"m -87 886 q -45 935 -87 913 q 36 958 -3 958 q 123 933 69 958 q 213 907 176 907 q 258 918 240 907 q 285 940 275 929 q 303 951 294 951 q 322 931 322 951 q 283 881 322 901 q 206 860 243 860 q 120 885 174 860 q 26 911 67 911 q -19 899 0 911 q -51 874 -39 886 q -69 863 -62 863 q -87 886 -87 863 m 94 25 l 94 632 q 101 649 94 642 q 118 656 108 656 q 143 632 143 656 l 143 25 q 135 8 143 15 q 118 0 128 0 q 101 8 108 0 q 94 25 94 15 z "},"Ī":{"ha":281,"x_min":-36,"x_max":318,"o":"m -36 1282 q -12 1307 -36 1307 l 293 1307 q 310 1299 303 1307 q 318 1282 318 1292 q 310 1265 318 1272 q 293 1258 303 1258 l -12 1258 q -36 1282 -36 1258 m 115 25 l 115 992 q 140 1015 115 1015 q 165 992 165 1015 l 165 25 q 140 0 165 0 q 115 25 115 0 z "},"ī":{"ha":238,"x_min":-60,"x_max":294,"o":"m -60 922 q -36 947 -60 947 l 269 947 q 287 940 279 947 q 294 922 294 932 q 287 906 294 913 q 269 899 279 899 l -36 899 q -60 922 -60 899 m 94 25 l 94 632 q 101 649 94 642 q 118 656 108 656 q 143 632 143 656 l 143 25 q 135 8 143 15 q 118 0 128 0 q 101 8 108 0 q 94 25 94 15 z "},"Ĭ":{"ha":281,"x_min":-11,"x_max":292,"o":"m -11 1346 l 33 1346 q 65 1265 33 1299 q 140 1231 96 1231 q 215 1265 183 1231 q 246 1346 246 1299 l 292 1346 q 246 1240 292 1285 q 140 1194 200 1194 q 34 1240 79 1194 q -11 1346 -11 1285 m 115 25 l 115 992 q 140 1015 115 1015 q 165 992 165 1015 l 165 25 q 140 0 165 0 q 115 25 115 0 z "},"ĭ":{"ha":238,"x_min":-32,"x_max":271,"o":"m -32 986 l 13 986 q 44 905 13 939 q 119 871 75 871 q 194 905 163 871 q 225 986 225 939 l 271 986 q 225 880 271 925 q 119 835 179 835 q 13 880 58 835 q -32 986 -32 925 m 94 25 l 94 632 q 101 649 94 642 q 118 656 108 656 q 143 632 143 656 l 143 25 q 135 8 143 15 q 118 0 128 0 q 101 8 108 0 q 94 25 94 15 z "},"Į":{"ha":282,"x_min":21,"x_max":174,"o":"m 21 -171 q 117 24 21 -69 l 117 992 q 142 1015 117 1015 q 167 992 167 1015 l 167 25 q 154 3 167 10 q 61 -168 61 -87 q 149 -228 61 -228 q 174 -246 174 -228 q 142 -264 174 -264 q 58 -242 94 -264 q 21 -171 21 -221 z "},"į":{"ha":240,"x_min":-4,"x_max":164,"o":"m -4 -175 q 97 25 -4 -72 l 97 632 q 104 649 97 642 q 121 656 111 656 q 146 632 146 656 l 146 25 q 135 4 146 11 q 36 -172 36 -89 q 124 -232 36 -232 q 149 -250 149 -232 q 117 -268 149 -268 q 33 -247 69 -268 q -4 -175 -4 -225 m 90 885 q 83 892 90 885 q 76 917 76 899 q 90 947 76 935 q 121 960 103 960 q 151 947 139 960 q 164 917 164 935 q 151 885 164 899 q 121 872 139 872 q 90 885 103 872 z "},"İ":{"ha":281,"x_min":99,"x_max":181,"o":"m 110 1205 q 105 1211 110 1205 q 99 1235 99 1217 q 110 1264 99 1253 q 140 1275 122 1275 q 169 1264 158 1275 q 181 1235 181 1253 q 169 1205 181 1217 q 140 1193 158 1193 q 110 1205 122 1193 m 115 25 l 115 992 q 140 1015 115 1015 q 165 992 165 1015 l 165 25 q 140 0 165 0 q 115 25 115 0 z "},"ı":{"ha":238,"x_min":94,"x_max":143,"o":"m 94 25 l 94 632 q 101 649 94 642 q 118 656 108 656 q 143 632 143 656 l 143 25 q 135 8 143 15 q 118 0 128 0 q 101 8 108 0 q 94 25 94 15 z "},"Ĳ":{"ha":967,"x_min":115,"x_max":857,"o":"m 115 25 l 115 992 q 140 1015 115 1015 q 165 992 165 1015 l 165 25 q 140 0 165 0 q 115 25 115 0 m 314 221 q 338 249 314 249 q 364 224 364 249 q 426 88 364 135 q 586 42 489 42 q 750 101 693 42 q 807 278 807 160 l 807 965 l 586 965 q 563 992 563 965 q 586 1015 563 1015 l 832 1015 q 857 990 857 1015 l 857 278 q 783 60 857 129 q 586 -8 710 -8 q 388 57 461 -8 q 314 221 314 122 z "},"ĳ":{"ha":479,"x_min":74,"x_max":401,"o":"m 87 885 q 80 892 87 885 q 74 917 74 899 q 87 947 74 935 q 118 960 100 960 q 149 947 136 960 q 161 917 161 935 q 149 885 161 899 q 118 872 136 872 q 87 885 100 872 m 94 25 l 94 632 q 101 649 94 642 q 118 656 108 656 q 143 632 143 656 l 143 25 q 135 8 143 15 q 118 0 128 0 q 101 8 108 0 q 94 25 94 15 m 189 -304 q 214 -281 189 -281 q 311 -227 288 -281 q 335 -67 335 -174 l 335 632 q 358 656 335 656 q 383 632 383 656 l 383 -67 q 214 -329 383 -329 q 197 -322 204 -329 q 189 -304 189 -314 m 327 885 q 320 892 327 885 q 314 917 314 899 q 327 947 314 935 q 358 960 340 960 q 389 947 376 960 q 401 917 401 935 q 389 885 401 899 q 358 872 376 872 q 327 885 340 872 z "},"Ĵ":{"ha":689,"x_min":36,"x_max":579,"o":"m 36 221 q 60 249 36 249 q 86 224 86 249 q 149 88 86 135 q 308 42 211 42 q 472 101 415 42 q 529 278 529 160 l 529 965 l 308 965 q 285 992 285 965 q 308 1015 285 1015 l 554 1015 q 579 990 579 1015 l 579 278 q 506 60 579 129 q 308 -8 432 -8 q 110 57 183 -8 q 36 221 36 122 m 164 1219 q 176 1239 164 1233 l 321 1317 q 344 1324 332 1324 q 368 1317 357 1324 l 513 1240 q 525 1217 525 1233 q 518 1201 525 1207 q 501 1194 511 1194 l 489 1199 l 344 1275 l 200 1197 q 194 1195 199 1197 q 189 1193 190 1193 q 172 1201 179 1193 q 164 1219 164 1208 z "},"ĵ":{"ha":240,"x_min":-60,"x_max":301,"o":"m -60 860 q -47 879 -60 872 l 97 957 q 121 964 108 964 q 144 957 133 964 l 289 881 q 301 857 301 875 q 294 841 301 847 q 278 835 288 835 l 265 839 l 121 915 l -24 838 q -29 835 -25 838 q -35 833 -33 833 q -52 841 -44 833 q -60 860 -60 849 m -50 -304 q -25 -281 -50 -281 q 72 -227 49 -281 q 96 -67 96 -174 l 96 632 q 119 656 96 656 q 144 632 144 656 l 144 -67 q -25 -329 144 -329 q -42 -322 -35 -329 q -50 -304 -50 -314 z "},"Ķ":{"ha":706,"x_min":115,"x_max":694,"o":"m 115 25 l 115 992 q 140 1015 115 1015 q 165 992 165 1015 l 165 447 l 614 1007 q 633 1015 619 1015 q 651 1007 643 1015 q 658 989 658 999 q 653 975 658 981 l 332 576 l 690 38 q 694 25 694 31 q 687 8 694 15 q 668 0 679 0 q 647 13 656 0 l 299 535 l 165 368 l 165 25 q 140 0 165 0 q 115 25 115 0 m 260 -171 q 271 -153 260 -158 l 413 -69 q 422 -67 418 -67 q 444 -92 444 -67 q 431 -117 444 -108 l 299 -192 q 286 -196 292 -196 q 267 -188 275 -196 q 260 -171 260 -181 z "},"ķ":{"ha":607,"x_min":96,"x_max":589,"o":"m 96 25 l 96 1043 q 119 1067 96 1067 q 144 1043 144 1067 l 144 324 l 519 650 q 533 656 528 656 q 560 633 560 656 q 551 613 560 619 l 328 418 l 585 39 q 589 25 589 33 q 582 8 589 15 q 565 0 575 0 q 546 13 554 0 l 290 386 l 144 258 l 144 25 q 137 8 144 15 q 119 0 129 0 q 103 8 110 0 q 96 25 96 15 m 213 -171 q 224 -153 213 -158 l 365 -69 q 375 -67 371 -67 q 397 -92 397 -67 q 383 -117 397 -108 l 251 -192 q 239 -196 244 -196 q 220 -188 228 -196 q 213 -171 213 -181 z "},"ĸ":{"ha":606,"x_min":94,"x_max":588,"o":"m 94 25 l 94 632 q 118 656 94 656 q 143 632 143 656 l 143 324 l 518 650 q 532 656 526 656 q 558 633 558 656 q 550 613 558 619 l 326 418 l 583 39 q 588 25 588 33 q 581 8 588 15 q 564 0 574 0 q 544 13 553 0 l 289 386 l 143 258 l 143 25 q 135 8 143 15 q 118 0 128 0 q 101 8 108 0 q 94 25 94 15 z "},"Ĺ":{"ha":628,"x_min":115,"x_max":608,"o":"m 115 25 l 115 992 q 140 1015 115 1015 q 165 992 165 1015 l 165 50 l 588 50 q 608 25 608 50 q 588 0 608 0 l 140 0 q 115 25 115 0 m 269 1219 q 281 1238 269 1232 l 422 1321 q 432 1324 428 1324 q 454 1299 454 1324 q 440 1274 454 1282 l 308 1199 q 296 1194 303 1194 q 277 1202 285 1194 q 269 1219 269 1210 z "},"ĺ":{"ha":263,"x_min":39,"x_max":224,"o":"m 39 1151 q 50 1169 39 1164 l 192 1253 q 201 1256 197 1256 q 224 1231 224 1256 q 210 1206 224 1214 l 78 1131 q 65 1126 72 1126 q 47 1134 54 1126 q 39 1151 39 1142 m 107 25 l 107 1043 q 131 1067 107 1067 q 156 1043 156 1067 l 156 25 q 148 8 156 15 q 131 0 140 0 q 114 8 121 0 q 107 25 107 15 z "},"Ļ":{"ha":628,"x_min":115,"x_max":608,"o":"m 115 25 l 115 992 q 140 1015 115 1015 q 165 992 165 1015 l 165 50 l 588 50 q 608 25 608 50 q 588 0 608 0 l 140 0 q 115 25 115 0 m 258 -171 q 269 -153 258 -158 l 411 -69 q 421 -67 417 -67 q 443 -92 443 -67 q 429 -117 443 -108 l 297 -192 q 285 -196 292 -196 q 266 -188 274 -196 q 258 -171 258 -181 z "},"ļ":{"ha":263,"x_min":43,"x_max":228,"o":"m 43 -171 q 54 -153 43 -158 l 196 -69 q 206 -67 201 -67 q 228 -92 228 -67 q 214 -117 228 -108 l 82 -192 q 69 -196 75 -196 q 51 -188 58 -196 q 43 -171 43 -181 m 107 25 l 107 1043 q 131 1067 107 1067 q 156 1043 156 1067 l 156 25 q 148 8 156 15 q 131 0 140 0 q 114 8 121 0 q 107 25 107 15 z "},"Ľ":{"ha":629,"x_min":115,"x_max":608,"o":"m 115 25 l 115 992 q 140 1015 115 1015 q 165 992 165 1015 l 165 50 l 588 50 q 608 25 608 50 q 588 0 608 0 l 140 0 q 115 25 115 0 m 400 979 q 414 1015 400 1000 q 450 1029 428 1029 q 484 1015 469 1029 q 499 979 499 1000 q 453 844 499 936 q 433 831 446 831 q 411 851 411 831 q 413 860 411 857 l 438 931 q 400 979 400 940 z "},"ľ":{"ha":263,"x_min":107,"x_max":350,"o":"m 107 25 l 107 1043 q 131 1067 107 1067 q 156 1043 156 1067 l 156 25 q 148 8 156 15 q 131 0 140 0 q 114 8 121 0 q 107 25 107 15 m 251 979 q 265 1015 251 1000 q 301 1029 279 1029 q 335 1015 321 1029 q 350 979 350 1000 q 304 844 350 936 q 285 831 297 831 q 263 851 263 831 q 264 860 263 857 l 289 931 q 251 979 251 940 z "},"Ŀ":{"ha":629,"x_min":115,"x_max":608,"o":"m 115 25 l 115 992 q 140 1015 115 1015 q 165 992 165 1015 l 165 50 l 588 50 q 608 25 608 50 q 588 0 608 0 l 140 0 q 115 25 115 0 m 412 549 q 405 557 412 549 q 397 585 397 564 q 411 620 397 606 q 447 635 425 635 q 481 620 467 635 q 496 585 496 606 q 481 550 496 565 q 447 535 467 535 q 412 549 426 535 z "},"ŀ":{"ha":397,"x_min":107,"x_max":379,"o":"m 107 25 l 107 1043 q 131 1067 107 1067 q 156 1043 156 1067 l 156 25 q 148 8 156 15 q 131 0 140 0 q 114 8 121 0 q 107 25 107 15 m 295 381 q 288 389 295 381 q 281 417 281 396 q 294 452 281 438 q 331 467 308 467 q 365 452 350 467 q 379 417 379 438 q 365 382 379 397 q 331 367 350 367 q 295 381 310 367 z "},"Ł":{"ha":636,"x_min":8,"x_max":617,"o":"m 8 397 q 21 417 8 411 l 124 476 l 124 992 q 149 1015 124 1015 q 174 992 174 1015 l 174 504 l 333 597 q 346 600 338 600 q 363 594 356 600 q 369 578 369 588 q 357 556 369 563 l 174 450 l 174 50 l 596 50 q 617 25 617 50 q 596 0 617 0 l 149 0 q 124 25 124 0 l 124 421 l 44 375 q 32 371 39 371 q 16 379 24 371 q 8 397 8 388 z "},"ł":{"ha":413,"x_min":28,"x_max":389,"o":"m 28 397 q 40 417 28 411 l 174 493 l 174 1043 q 197 1067 174 1067 q 222 1043 222 1067 l 222 521 l 353 597 q 365 600 357 600 q 382 594 375 600 q 389 578 389 588 q 376 556 389 563 l 222 467 l 222 25 q 215 8 222 15 q 197 0 207 0 q 181 8 188 0 q 174 25 174 15 l 174 438 l 64 375 q 51 371 58 371 q 35 379 43 371 q 28 397 28 388 z "},"Ń":{"ha":774,"x_min":115,"x_max":658,"o":"m 115 25 l 115 992 q 140 1015 115 1015 q 183 965 156 1015 l 608 124 l 608 992 q 633 1015 608 1015 q 658 992 658 1015 l 658 25 q 633 0 658 0 q 593 50 618 0 l 165 893 l 165 25 q 140 0 165 0 q 115 25 115 0 m 294 1219 q 306 1238 294 1232 l 447 1321 q 457 1324 453 1324 q 479 1299 479 1324 q 465 1274 479 1282 l 333 1199 q 321 1194 328 1194 q 302 1202 310 1194 q 294 1219 294 1210 z "},"ń":{"ha":668,"x_min":94,"x_max":579,"o":"m 94 25 l 94 632 q 118 656 94 656 q 143 632 143 656 l 143 558 q 329 664 203 664 q 506 590 432 664 q 579 414 579 517 l 579 25 q 554 0 579 0 q 531 25 531 0 l 531 414 q 472 553 531 492 q 333 615 413 615 q 201 560 258 615 q 143 414 143 504 l 143 25 q 135 8 143 15 q 118 0 128 0 q 101 8 108 0 q 94 25 94 15 m 238 860 q 249 878 238 872 l 390 961 q 400 964 396 964 q 422 939 422 964 q 408 914 422 922 l 276 839 q 264 835 269 835 q 245 842 253 835 q 238 860 238 850 z "},"Ņ":{"ha":774,"x_min":115,"x_max":658,"o":"m 115 25 l 115 992 q 140 1015 115 1015 q 183 965 156 1015 l 608 124 l 608 992 q 633 1015 608 1015 q 658 992 658 1015 l 658 25 q 633 0 658 0 q 593 50 618 0 l 165 893 l 165 25 q 140 0 165 0 q 115 25 115 0 m 290 -171 q 301 -153 290 -158 l 443 -69 q 453 -67 449 -67 q 475 -92 475 -67 q 461 -117 475 -108 l 329 -192 q 317 -196 322 -196 q 298 -188 306 -196 q 290 -171 290 -181 z "},"ņ":{"ha":668,"x_min":94,"x_max":579,"o":"m 94 25 l 94 632 q 118 656 94 656 q 143 632 143 656 l 143 558 q 329 664 203 664 q 506 590 432 664 q 579 414 579 517 l 579 25 q 554 0 579 0 q 531 25 531 0 l 531 414 q 472 553 531 492 q 333 615 413 615 q 201 560 258 615 q 143 414 143 504 l 143 25 q 135 8 143 15 q 118 0 128 0 q 101 8 108 0 q 94 25 94 15 m 225 -171 q 236 -153 225 -158 l 378 -69 q 388 -67 383 -67 q 410 -92 410 -67 q 396 -117 410 -108 l 264 -192 q 251 -196 258 -196 q 233 -188 240 -196 q 225 -171 225 -181 z "},"Ň":{"ha":774,"x_min":115,"x_max":658,"o":"m 115 25 l 115 992 q 140 1015 115 1015 q 183 965 156 1015 l 608 124 l 608 992 q 633 1015 608 1015 q 658 992 658 1015 l 658 25 q 633 0 658 0 q 593 50 618 0 l 165 893 l 165 25 q 140 0 165 0 q 115 25 115 0 m 217 1332 q 206 1354 206 1346 q 212 1369 206 1363 q 226 1375 218 1375 q 249 1364 239 1375 l 385 1221 l 521 1364 q 543 1375 531 1375 q 558 1369 551 1375 q 564 1354 564 1363 q 553 1332 564 1346 l 414 1192 q 385 1176 399 1176 q 356 1192 368 1176 l 217 1332 z "},"ň":{"ha":668,"x_min":94,"x_max":579,"o":"m 94 25 l 94 632 q 118 656 94 656 q 143 632 143 656 l 143 558 q 329 664 203 664 q 506 590 432 664 q 579 414 579 517 l 579 25 q 554 0 579 0 q 531 25 531 0 l 531 414 q 472 553 531 492 q 333 615 413 615 q 201 560 258 615 q 143 414 143 504 l 143 25 q 135 8 143 15 q 118 0 128 0 q 101 8 108 0 q 94 25 94 15 m 160 972 q 149 994 149 986 q 155 1009 149 1003 q 169 1015 161 1015 q 192 1004 182 1015 l 328 861 l 464 1004 q 486 1015 474 1015 q 501 1009 494 1015 q 507 994 507 1003 q 496 972 507 986 l 357 832 q 328 817 342 817 q 299 832 311 817 l 160 972 z "},"Ŋ":{"ha":774,"x_min":115,"x_max":658,"o":"m 115 25 l 115 992 q 140 1015 115 1015 q 183 965 156 1015 l 608 124 l 608 992 q 633 1015 608 1015 q 658 992 658 1015 l 658 -67 q 489 -329 658 -329 q 472 -322 479 -329 q 464 -304 464 -314 q 489 -281 464 -281 q 586 -227 563 -281 q 610 -67 610 -174 l 610 0 q 593 50 610 17 l 165 893 l 165 25 q 140 0 165 0 q 115 25 115 0 z "},"ŋ":{"ha":668,"x_min":94,"x_max":579,"o":"m 94 25 l 94 632 q 118 656 94 656 q 143 632 143 656 l 143 558 q 329 664 203 664 q 506 590 432 664 q 579 414 579 517 l 579 -67 q 410 -329 579 -329 q 392 -322 400 -329 q 385 -304 385 -314 q 410 -281 385 -281 q 507 -227 483 -281 q 531 -67 531 -174 l 531 414 q 472 553 531 492 q 333 615 413 615 q 201 560 258 615 q 143 414 143 504 l 143 25 q 135 8 143 15 q 118 0 128 0 q 101 8 108 0 q 94 25 94 15 z "},"Ō":{"ha":754,"x_min":106,"x_max":649,"o":"m 106 278 l 106 729 q 179 947 106 878 q 376 1015 253 1015 q 574 947 500 1015 q 649 729 649 878 l 649 278 q 574 60 649 129 q 376 -8 500 -8 q 179 60 253 -8 q 106 278 106 129 m 156 278 q 213 101 156 160 q 376 42 269 42 q 541 101 483 42 q 599 278 599 160 l 599 729 q 541 906 599 847 q 376 965 483 965 q 213 906 269 965 q 156 729 156 847 l 156 278 m 200 1282 q 224 1307 200 1307 l 529 1307 q 547 1299 539 1307 q 554 1282 554 1292 q 547 1265 554 1272 q 529 1258 539 1258 l 224 1258 q 200 1282 200 1258 z "},"ō":{"ha":632,"x_min":69,"x_max":563,"o":"m 69 244 l 69 414 q 142 589 69 514 q 315 664 215 664 q 489 590 415 664 q 563 414 563 517 l 563 244 q 488 68 563 144 q 315 -8 414 -8 q 143 68 217 -8 q 69 244 69 144 m 118 244 q 176 103 118 165 q 315 40 235 40 q 455 103 396 40 q 514 244 514 165 l 514 414 q 456 553 514 492 q 315 615 397 615 q 176 553 233 615 q 118 414 118 492 l 118 244 m 139 922 q 163 947 139 947 l 468 947 q 485 940 478 947 q 493 922 493 932 q 485 906 493 913 q 468 899 478 899 l 163 899 q 139 922 139 899 z "},"Ŏ":{"ha":754,"x_min":106,"x_max":649,"o":"m 106 278 l 106 729 q 179 947 106 878 q 376 1015 253 1015 q 574 947 500 1015 q 649 729 649 878 l 649 278 q 574 60 649 129 q 376 -8 500 -8 q 179 60 253 -8 q 106 278 106 129 m 156 278 q 213 101 156 160 q 376 42 269 42 q 541 101 483 42 q 599 278 599 160 l 599 729 q 541 906 599 847 q 376 965 483 965 q 213 906 269 965 q 156 729 156 847 l 156 278 m 225 1346 l 269 1346 q 301 1265 269 1299 q 376 1231 332 1231 q 451 1265 419 1231 q 482 1346 482 1299 l 528 1346 q 482 1240 528 1285 q 376 1194 436 1194 q 270 1240 315 1194 q 225 1346 225 1285 z "},"ŏ":{"ha":632,"x_min":69,"x_max":563,"o":"m 69 244 l 69 414 q 142 589 69 514 q 315 664 215 664 q 489 590 415 664 q 563 414 563 517 l 563 244 q 488 68 563 144 q 315 -8 414 -8 q 143 68 217 -8 q 69 244 69 144 m 118 244 q 176 103 118 165 q 315 40 235 40 q 455 103 396 40 q 514 244 514 165 l 514 414 q 456 553 514 492 q 315 615 397 615 q 176 553 233 615 q 118 414 118 492 l 118 244 m 164 986 l 208 986 q 240 905 208 939 q 315 871 271 871 q 390 905 358 871 q 421 986 421 939 l 467 986 q 421 880 467 925 q 315 835 375 835 q 209 880 254 835 q 164 986 164 925 z "},"Ő":{"ha":754,"x_min":106,"x_max":649,"o":"m 106 278 l 106 729 q 179 947 106 878 q 376 1015 253 1015 q 574 947 500 1015 q 649 729 649 878 l 649 278 q 574 60 649 129 q 376 -8 500 -8 q 179 60 253 -8 q 106 278 106 129 m 156 278 q 213 101 156 160 q 376 42 269 42 q 541 101 483 42 q 599 278 599 160 l 599 729 q 541 906 599 847 q 376 965 483 965 q 213 906 269 965 q 156 729 156 847 l 156 278 m 238 1219 q 249 1238 238 1232 l 390 1321 q 400 1324 396 1324 q 422 1299 422 1324 q 408 1274 422 1282 l 276 1199 q 264 1194 269 1194 q 245 1202 253 1194 q 238 1219 238 1210 m 442 1219 q 453 1238 442 1232 l 594 1321 q 604 1324 600 1324 q 626 1299 626 1324 q 613 1274 626 1282 l 481 1199 q 468 1194 475 1194 q 449 1202 457 1194 q 442 1219 442 1210 z "},"ő":{"ha":632,"x_min":69,"x_max":563,"o":"m 69 244 l 69 414 q 142 589 69 514 q 315 664 215 664 q 489 590 415 664 q 563 414 563 517 l 563 244 q 488 68 563 144 q 315 -8 414 -8 q 143 68 217 -8 q 69 244 69 144 m 118 244 q 176 103 118 165 q 315 40 235 40 q 455 103 396 40 q 514 244 514 165 l 514 414 q 456 553 514 492 q 315 615 397 615 q 176 553 233 615 q 118 414 118 492 l 118 244 m 158 860 q 169 878 158 872 l 311 961 q 321 964 317 964 q 343 939 343 964 q 329 914 343 922 l 197 839 q 185 835 192 835 q 166 842 174 835 q 158 860 158 850 m 363 860 q 374 878 363 872 l 515 961 q 525 964 521 964 q 547 939 547 964 q 533 914 547 922 l 401 839 q 389 835 394 835 q 370 842 378 835 q 363 860 363 850 z "},"Œ":{"ha":1174,"x_min":106,"x_max":1140,"o":"m 106 278 l 106 729 q 179 947 106 878 q 376 1015 253 1015 q 600 915 532 1015 l 600 990 q 625 1015 600 1015 l 1117 1015 q 1140 992 1140 1015 q 1117 965 1140 965 l 647 965 l 647 533 l 869 533 q 893 507 893 533 q 869 483 893 483 l 647 483 l 647 50 l 1117 50 q 1140 24 1140 50 q 1117 0 1140 0 l 625 0 q 600 25 600 0 l 600 92 q 376 -8 532 -8 q 179 60 253 -8 q 106 278 106 129 m 156 278 q 213 101 156 160 q 376 42 269 42 q 541 101 483 42 q 599 278 599 160 l 599 729 q 541 906 599 847 q 376 965 483 965 q 213 906 269 965 q 156 729 156 847 l 156 278 z "},"œ":{"ha":1061,"x_min":69,"x_max":1007,"o":"m 69 244 l 69 414 q 142 589 69 514 q 315 664 215 664 q 445 624 385 664 q 538 521 506 585 q 628 624 567 585 q 761 664 689 664 q 934 592 861 664 q 1007 417 1007 521 q 999 356 1007 379 q 972 324 990 333 q 937 312 953 314 q 892 310 921 310 l 563 310 l 563 244 q 628 95 563 150 q 801 40 694 40 q 884 55 851 40 q 933 83 917 69 q 960 97 950 97 q 986 69 986 97 q 928 19 986 47 q 793 -8 869 -8 q 635 31 703 -8 q 536 136 568 69 q 445 32 506 72 q 315 -8 385 -8 q 143 68 217 -8 q 69 244 69 144 m 118 244 q 176 103 118 165 q 315 40 235 40 q 455 103 396 40 q 514 244 514 165 l 514 414 q 456 553 514 492 q 315 615 397 615 q 176 553 233 615 q 118 414 118 492 l 118 244 m 563 358 l 875 358 q 942 368 926 358 q 958 410 958 378 q 903 552 958 489 q 761 615 847 615 q 621 558 679 615 q 563 424 563 500 l 563 358 z "},"Ŕ":{"ha":707,"x_min":115,"x_max":658,"o":"m 115 25 l 115 992 q 140 1015 115 1013 l 372 1015 q 579 953 500 1015 q 658 750 658 890 q 425 486 658 514 l 654 40 q 658 25 658 32 q 651 7 658 14 q 633 0 644 0 q 623 3 628 0 q 613 13 618 6 q 606 24 608 19 l 600 39 q 593 50 594 49 l 371 483 l 165 483 l 165 25 q 140 0 165 0 q 115 25 115 0 m 165 533 l 372 533 q 545 586 482 533 q 608 750 608 639 q 545 913 608 861 q 372 965 482 965 l 165 965 l 165 533 m 294 1219 q 306 1238 294 1232 l 447 1321 q 457 1324 453 1324 q 479 1299 479 1324 q 465 1274 479 1282 l 333 1199 q 321 1194 328 1194 q 302 1202 310 1194 q 294 1219 294 1210 z "},"ŕ":{"ha":428,"x_min":94,"x_max":411,"o":"m 94 25 l 94 632 q 118 656 94 656 q 143 632 143 656 l 143 558 q 336 664 206 664 l 388 664 q 404 656 397 664 q 411 639 411 649 q 404 622 411 629 q 388 615 397 615 l 336 615 q 201 560 258 615 q 143 414 143 504 l 143 25 q 135 8 143 15 q 118 0 128 0 q 101 8 108 0 q 94 25 94 15 m 107 860 q 118 878 107 872 l 260 961 q 269 964 265 964 q 292 939 292 964 q 278 914 292 922 l 146 839 q 133 835 139 835 q 115 842 122 835 q 107 860 107 850 z "},"Ŗ":{"ha":707,"x_min":115,"x_max":658,"o":"m 115 25 l 115 992 q 140 1015 115 1013 l 372 1015 q 579 953 500 1015 q 658 750 658 890 q 425 486 658 514 l 654 40 q 658 25 658 32 q 651 7 658 14 q 633 0 644 0 q 623 3 628 0 q 613 13 618 6 q 606 24 608 19 l 600 39 q 593 50 594 49 l 371 483 l 165 483 l 165 25 q 140 0 165 0 q 115 25 115 0 m 165 533 l 372 533 q 545 586 482 533 q 608 750 608 639 q 545 913 608 861 q 372 965 482 965 l 165 965 l 165 533 m 242 -171 q 253 -153 242 -158 l 394 -69 q 404 -67 400 -67 q 426 -92 426 -67 q 413 -117 426 -108 l 281 -192 q 268 -196 275 -196 q 249 -188 257 -196 q 242 -171 242 -181 z "},"ŗ":{"ha":428,"x_min":-10,"x_max":411,"o":"m -10 -171 q 1 -153 -10 -158 l 143 -69 q 153 -67 149 -67 q 175 -92 175 -67 q 161 -117 175 -108 l 29 -192 q 17 -196 22 -196 q -2 -188 6 -196 q -10 -171 -10 -181 m 94 25 l 94 632 q 118 656 94 656 q 143 632 143 656 l 143 558 q 336 664 206 664 l 388 664 q 404 656 397 664 q 411 639 411 649 q 404 622 411 629 q 388 615 397 615 l 336 615 q 201 560 258 615 q 143 414 143 504 l 143 25 q 135 8 143 15 q 118 0 128 0 q 101 8 108 0 q 94 25 94 15 z "},"Ř":{"ha":707,"x_min":115,"x_max":658,"o":"m 115 25 l 115 992 q 140 1015 115 1013 l 372 1015 q 579 953 500 1015 q 658 750 658 890 q 425 486 658 514 l 654 40 q 658 25 658 32 q 651 7 658 14 q 633 0 644 0 q 623 3 628 0 q 613 13 618 6 q 606 24 608 19 l 600 39 q 593 50 594 49 l 371 483 l 165 483 l 165 25 q 140 0 165 0 q 115 25 115 0 m 165 533 l 372 533 q 545 586 482 533 q 608 750 608 639 q 545 913 608 861 q 372 965 482 965 l 165 965 l 165 533 m 217 1332 q 206 1354 206 1346 q 212 1369 206 1363 q 226 1375 218 1375 q 249 1364 239 1375 l 385 1221 l 521 1364 q 543 1375 531 1375 q 558 1369 551 1375 q 564 1354 564 1363 q 553 1332 564 1346 l 414 1192 q 385 1176 399 1176 q 356 1192 368 1176 l 217 1332 z "},"ř":{"ha":428,"x_min":21,"x_max":411,"o":"m 32 972 q 21 994 21 986 q 27 1009 21 1003 q 42 1015 33 1015 q 64 1004 54 1015 l 200 861 l 336 1004 q 358 1015 346 1015 q 373 1009 367 1015 q 379 994 379 1003 q 368 972 379 986 l 229 832 q 200 817 214 817 q 171 832 183 817 l 32 972 m 94 25 l 94 632 q 118 656 94 656 q 143 632 143 656 l 143 558 q 336 664 206 664 l 388 664 q 404 656 397 664 q 411 639 411 649 q 404 622 411 629 q 388 615 397 615 l 336 615 q 201 560 258 615 q 143 414 143 504 l 143 25 q 135 8 143 15 q 118 0 128 0 q 101 8 108 0 q 94 25 94 15 z "},"Ś":{"ha":668,"x_min":58,"x_max":601,"o":"m 58 132 q 67 151 58 142 q 82 161 75 161 q 104 142 89 161 q 140 101 119 124 q 208 60 160 79 q 319 42 256 42 q 492 99 433 42 q 551 267 551 157 q 526 388 551 339 q 458 463 500 438 q 367 507 417 489 l 268 542 q 176 585 218 560 q 109 658 135 610 q 83 775 83 706 q 109 897 83 846 q 178 972 135 947 q 265 1006 222 996 q 357 1015 308 1015 q 508 992 440 1015 q 576 943 576 968 q 568 923 576 933 q 551 913 560 913 q 522 926 546 913 q 455 952 499 939 q 356 965 411 965 q 251 951 297 965 q 169 894 204 938 q 133 779 133 850 q 159 678 133 719 q 226 617 185 638 q 317 579 268 596 q 417 542 367 563 q 508 493 467 522 q 576 408 550 464 q 601 271 601 351 q 527 60 601 129 q 326 -8 453 -8 q 210 8 264 -8 q 125 48 157 25 q 76 94 93 71 q 58 132 58 117 m 238 1219 q 249 1238 238 1232 l 390 1321 q 400 1324 396 1324 q 422 1299 422 1324 q 408 1274 422 1282 l 276 1199 q 264 1194 269 1194 q 245 1202 253 1194 q 238 1219 238 1210 z "},"ś":{"ha":518,"x_min":53,"x_max":465,"o":"m 53 82 q 59 99 53 92 q 72 106 65 106 q 93 94 79 106 l 122 72 q 174 51 139 61 q 254 40 210 40 q 376 72 336 40 q 417 156 417 104 q 381 249 417 215 q 293 299 344 283 l 190 331 q 103 383 139 346 q 67 483 67 421 q 119 609 67 554 q 272 664 172 664 q 388 644 333 664 q 442 606 442 625 q 434 588 442 597 q 418 578 426 578 q 370 597 417 578 q 274 615 324 615 q 154 574 193 615 q 115 485 115 533 q 151 406 115 435 q 239 363 188 376 q 342 332 290 349 q 429 272 393 315 q 465 158 465 229 q 410 36 465 81 q 256 -8 354 -8 q 111 22 169 -8 q 53 82 53 53 m 158 860 q 169 878 158 872 l 311 961 q 321 964 317 964 q 343 939 343 964 q 329 914 343 922 l 197 839 q 185 835 192 835 q 166 842 174 835 q 158 860 158 850 z "},"Ŝ":{"ha":668,"x_min":58,"x_max":601,"o":"m 58 132 q 67 151 58 142 q 82 161 75 161 q 104 142 89 161 q 140 101 119 124 q 208 60 160 79 q 319 42 256 42 q 492 99 433 42 q 551 267 551 157 q 526 388 551 339 q 458 463 500 438 q 367 507 417 489 l 268 542 q 176 585 218 560 q 109 658 135 610 q 83 775 83 706 q 109 897 83 846 q 178 972 135 947 q 265 1006 222 996 q 357 1015 308 1015 q 508 992 440 1015 q 576 943 576 968 q 568 923 576 933 q 551 913 560 913 q 522 926 546 913 q 455 952 499 939 q 356 965 411 965 q 251 951 297 965 q 169 894 204 938 q 133 779 133 850 q 159 678 133 719 q 226 617 185 638 q 317 579 268 596 q 417 542 367 563 q 508 493 467 522 q 576 408 550 464 q 601 271 601 351 q 527 60 601 129 q 326 -8 453 -8 q 210 8 264 -8 q 125 48 157 25 q 76 94 93 71 q 58 132 58 117 m 149 1219 q 161 1239 149 1233 l 306 1317 q 329 1324 317 1324 q 353 1317 342 1324 l 497 1240 q 510 1217 510 1233 q 503 1201 510 1207 q 486 1194 496 1194 l 474 1199 l 329 1275 l 185 1197 q 179 1195 183 1197 q 174 1193 175 1193 q 156 1201 164 1193 q 149 1219 149 1208 z "},"ŝ":{"ha":518,"x_min":53,"x_max":465,"o":"m 53 82 q 59 99 53 92 q 72 106 65 106 q 93 94 79 106 l 122 72 q 174 51 139 61 q 254 40 210 40 q 376 72 336 40 q 417 156 417 104 q 381 249 417 215 q 293 299 344 283 l 190 331 q 103 383 139 346 q 67 483 67 421 q 119 609 67 554 q 272 664 172 664 q 388 644 333 664 q 442 606 442 625 q 434 588 442 597 q 418 578 426 578 q 370 597 417 578 q 274 615 324 615 q 154 574 193 615 q 115 485 115 533 q 151 406 115 435 q 239 363 188 376 q 342 332 290 349 q 429 272 393 315 q 465 158 465 229 q 410 36 465 81 q 256 -8 354 -8 q 111 22 169 -8 q 53 82 53 53 m 71 860 q 83 879 71 872 l 228 957 q 251 964 239 964 q 275 957 264 964 l 419 881 q 432 857 432 875 q 425 841 432 847 q 408 835 418 835 l 396 839 l 251 915 l 107 838 q 101 835 106 838 q 96 833 97 833 q 78 841 86 833 q 71 860 71 849 z "},"Ş":{"ha":668,"x_min":58,"x_max":601,"o":"m 58 132 q 67 151 58 142 q 82 161 75 161 q 104 142 89 161 q 140 101 119 124 q 208 60 160 79 q 319 42 256 42 q 492 99 433 42 q 551 267 551 157 q 526 388 551 339 q 458 463 500 438 q 367 507 417 489 l 268 542 q 176 585 218 560 q 109 658 135 610 q 83 775 83 706 q 109 897 83 846 q 178 972 135 947 q 265 1006 222 996 q 357 1015 308 1015 q 508 992 440 1015 q 576 943 576 968 q 568 923 576 933 q 551 913 560 913 q 522 926 546 913 q 455 952 499 939 q 356 965 411 965 q 251 951 297 965 q 169 894 204 938 q 133 779 133 850 q 159 678 133 719 q 226 617 185 638 q 317 579 268 596 q 417 542 367 563 q 508 493 467 522 q 576 408 550 464 q 601 271 601 351 q 544 78 601 146 q 386 -4 486 10 l 365 -90 q 464 -120 432 -92 q 496 -187 496 -149 q 465 -258 496 -228 q 382 -287 433 -287 q 315 -278 350 -287 q 279 -254 279 -269 q 285 -238 279 -247 q 296 -229 290 -229 l 321 -239 q 374 -247 346 -247 q 450 -190 450 -247 q 353 -128 450 -135 l 313 -125 l 340 -8 l 326 -8 q 210 8 264 -8 q 125 48 157 25 q 76 94 93 71 q 58 132 58 117 z "},"ş":{"ha":518,"x_min":53,"x_max":465,"o":"m 53 82 q 59 99 53 92 q 72 106 65 106 q 93 94 79 106 l 122 72 q 174 51 139 61 q 254 40 210 40 q 376 72 336 40 q 417 156 417 104 q 381 249 417 215 q 293 299 344 283 l 190 331 q 103 383 139 346 q 67 483 67 421 q 119 609 67 554 q 272 664 172 664 q 388 644 333 664 q 442 606 442 625 q 434 588 442 597 q 418 578 426 578 q 370 597 417 578 q 274 615 324 615 q 154 574 193 615 q 115 485 115 533 q 151 406 115 435 q 239 363 188 376 q 342 332 290 349 q 429 272 393 315 q 465 158 465 229 q 421 46 465 89 q 294 -6 376 3 l 275 -90 q 374 -120 342 -92 q 406 -187 406 -149 q 374 -258 406 -228 q 292 -287 343 -287 q 224 -278 260 -287 q 189 -254 189 -269 q 194 -238 189 -247 q 206 -229 200 -229 l 231 -239 q 283 -247 256 -247 q 360 -190 360 -247 q 263 -128 360 -135 l 222 -125 l 250 -8 q 109 23 165 -7 q 53 82 53 53 z "},"Š":{"ha":668,"x_min":58,"x_max":601,"o":"m 58 132 q 67 151 58 142 q 82 161 75 161 q 104 142 89 161 q 140 101 119 124 q 208 60 160 79 q 319 42 256 42 q 492 99 433 42 q 551 267 551 157 q 526 388 551 339 q 458 463 500 438 q 367 507 417 489 l 268 542 q 176 585 218 560 q 109 658 135 610 q 83 775 83 706 q 109 897 83 846 q 178 972 135 947 q 265 1006 222 996 q 357 1015 308 1015 q 508 992 440 1015 q 576 943 576 968 q 568 923 576 933 q 551 913 560 913 q 522 926 546 913 q 455 952 499 939 q 356 965 411 965 q 251 951 297 965 q 169 894 204 938 q 133 779 133 850 q 159 678 133 719 q 226 617 185 638 q 317 579 268 596 q 417 542 367 563 q 508 493 467 522 q 576 408 550 464 q 601 271 601 351 q 527 60 601 129 q 326 -8 453 -8 q 210 8 264 -8 q 125 48 157 25 q 76 94 93 71 q 58 132 58 117 m 160 1332 q 149 1354 149 1346 q 155 1369 149 1363 q 169 1375 161 1375 q 192 1364 182 1375 l 328 1221 l 464 1364 q 486 1375 474 1375 q 501 1369 494 1375 q 507 1354 507 1363 q 496 1332 507 1346 l 357 1192 q 328 1176 342 1176 q 299 1192 311 1176 l 160 1332 z "},"š":{"ha":518,"x_min":53,"x_max":465,"o":"m 53 82 q 59 99 53 92 q 72 106 65 106 q 93 94 79 106 l 122 72 q 174 51 139 61 q 254 40 210 40 q 376 72 336 40 q 417 156 417 104 q 381 249 417 215 q 293 299 344 283 l 190 331 q 103 383 139 346 q 67 483 67 421 q 119 609 67 554 q 272 664 172 664 q 388 644 333 664 q 442 606 442 625 q 434 588 442 597 q 418 578 426 578 q 370 597 417 578 q 274 615 324 615 q 154 574 193 615 q 115 485 115 533 q 151 406 115 435 q 239 363 188 376 q 342 332 290 349 q 429 272 393 315 q 465 158 465 229 q 410 36 465 81 q 256 -8 354 -8 q 111 22 169 -8 q 53 82 53 53 m 82 972 q 71 994 71 986 q 77 1009 71 1003 q 92 1015 83 1015 q 114 1004 104 1015 l 250 861 l 386 1004 q 408 1015 396 1015 q 423 1009 417 1015 q 429 994 429 1003 q 418 972 429 986 l 279 832 q 250 817 264 817 q 221 832 233 817 l 82 972 z "},"Ţ":{"ha":632,"x_min":19,"x_max":613,"o":"m 26 973 q 23 977 26 973 q 19 990 19 981 q 26 1008 19 1000 q 44 1015 33 1015 l 588 1015 q 613 992 613 1015 q 588 965 613 965 l 342 965 l 342 25 q 317 0 342 0 q 292 25 292 0 l 292 965 l 44 965 q 26 973 33 965 m 224 -171 q 235 -153 224 -158 l 376 -69 q 386 -67 382 -67 q 408 -92 408 -67 q 394 -117 408 -108 l 263 -192 q 250 -196 256 -196 q 231 -188 239 -196 q 224 -171 224 -181 z "},"ţ":{"ha":378,"x_min":86,"x_max":351,"o":"m 86 -171 q 97 -153 86 -158 l 239 -69 q 249 -67 244 -67 q 271 -92 271 -67 q 257 -117 271 -108 l 125 -192 q 113 -196 119 -196 q 94 -188 101 -196 q 86 -171 86 -181 m 92 193 l 92 953 q 99 969 92 963 q 115 976 107 976 q 133 969 125 976 q 140 953 140 963 l 140 656 l 328 656 q 344 648 338 656 q 351 631 351 640 q 344 614 351 621 q 328 607 338 607 l 140 607 l 140 193 q 175 81 140 114 q 294 49 210 49 l 326 49 q 343 42 336 49 q 350 25 350 35 q 343 8 350 15 q 326 0 336 0 l 294 0 q 92 193 92 0 z "},"Ť":{"ha":632,"x_min":19,"x_max":613,"o":"m 26 973 q 23 977 26 973 q 19 990 19 981 q 26 1008 19 1000 q 44 1015 33 1015 l 588 1015 q 613 992 613 1015 q 588 965 613 965 l 342 965 l 342 25 q 317 0 342 0 q 292 25 292 0 l 292 965 l 44 965 q 26 973 33 965 m 146 1332 q 135 1354 135 1346 q 141 1369 135 1363 q 156 1375 147 1375 q 178 1364 168 1375 l 314 1221 l 450 1364 q 472 1375 460 1375 q 487 1369 481 1375 q 493 1354 493 1363 q 482 1332 493 1346 l 343 1192 q 314 1176 328 1176 q 285 1192 297 1176 l 146 1332 z "},"ť":{"ha":378,"x_min":92,"x_max":351,"o":"m 92 193 l 92 953 q 99 969 92 963 q 115 976 107 976 q 133 969 125 976 q 140 953 140 963 l 140 656 l 328 656 q 344 648 338 656 q 351 631 351 640 q 344 614 351 621 q 328 607 338 607 l 140 607 l 140 193 q 175 81 140 114 q 294 49 210 49 l 326 49 q 343 42 336 49 q 350 25 350 35 q 343 8 350 15 q 326 0 336 0 l 294 0 q 92 193 92 0 m 244 979 q 258 1015 244 1000 q 294 1029 272 1029 q 328 1015 314 1029 q 343 979 343 1000 q 297 844 343 936 q 278 831 290 831 q 256 851 256 831 q 257 860 256 857 l 282 931 q 244 979 244 940 z "},"Ŧ":{"ha":638,"x_min":22,"x_max":615,"o":"m 29 973 q 26 977 29 973 q 22 990 22 981 q 29 1008 22 1000 q 47 1015 36 1015 l 590 1015 q 615 992 615 1015 q 590 965 615 965 l 344 965 l 344 532 l 549 532 q 574 508 574 532 q 549 482 574 482 l 344 482 l 344 25 q 319 0 344 0 q 294 25 294 0 l 294 482 l 89 482 q 71 490 78 482 q 64 507 64 497 q 71 524 64 517 q 89 532 78 532 l 294 532 l 294 965 l 47 965 q 29 973 36 965 z "},"ŧ":{"ha":383,"x_min":92,"x_max":351,"o":"m 92 193 l 92 953 q 99 969 92 963 q 115 976 107 976 q 133 969 125 976 q 140 953 140 963 l 140 656 l 328 656 q 344 648 338 656 q 351 631 351 640 q 344 614 351 621 q 328 607 338 607 l 140 607 l 140 447 l 328 447 q 344 440 338 447 q 351 422 351 432 q 344 406 351 413 q 328 399 338 399 l 140 399 l 140 193 q 175 81 140 114 q 294 49 210 49 l 326 49 q 343 42 336 49 q 350 25 350 35 q 343 8 350 15 q 326 0 336 0 l 294 0 q 92 193 92 0 z "},"Ũ":{"ha":763,"x_min":110,"x_max":653,"o":"m 110 278 l 110 992 q 135 1015 110 1015 q 160 992 160 1015 l 160 278 q 217 101 160 160 q 381 42 274 42 q 545 101 488 42 q 603 278 603 160 l 603 992 q 628 1015 603 1015 q 653 992 653 1015 l 653 278 q 578 60 653 129 q 381 -8 504 -8 q 183 60 257 -8 q 110 278 110 129 m 176 1246 q 219 1295 176 1272 q 300 1318 261 1318 q 387 1292 333 1318 q 476 1267 440 1267 q 522 1278 504 1267 q 549 1300 539 1289 q 567 1311 558 1311 q 586 1290 586 1311 q 547 1240 586 1261 q 469 1219 507 1219 q 384 1245 438 1219 q 290 1271 331 1271 q 244 1259 264 1271 q 213 1235 225 1247 q 194 1222 201 1222 q 176 1246 176 1222 z "},"ũ":{"ha":671,"x_min":89,"x_max":582,"o":"m 89 242 l 89 631 q 97 648 89 640 q 114 656 104 656 q 131 648 124 656 q 138 631 138 640 l 138 242 q 196 101 138 163 q 336 40 254 40 q 475 101 417 40 q 533 242 533 163 l 533 632 q 541 649 533 642 q 558 656 549 656 q 575 649 568 656 q 582 632 582 642 l 582 242 q 509 67 582 142 q 336 -8 436 -8 q 162 67 235 -8 q 89 242 89 142 m 131 886 q 173 935 131 913 q 254 958 215 958 q 341 933 288 958 q 431 907 394 907 q 476 918 458 907 q 503 940 493 929 q 521 951 513 951 q 540 931 540 951 q 501 881 540 901 q 424 860 461 860 q 338 885 392 860 q 244 911 285 911 q 199 899 218 911 q 167 874 179 886 q 149 863 156 863 q 131 886 131 863 z "},"Ū":{"ha":763,"x_min":110,"x_max":653,"o":"m 110 278 l 110 992 q 135 1015 110 1015 q 160 992 160 1015 l 160 278 q 217 101 160 160 q 381 42 274 42 q 545 101 488 42 q 603 278 603 160 l 603 992 q 628 1015 603 1015 q 653 992 653 1015 l 653 278 q 578 60 653 129 q 381 -8 504 -8 q 183 60 257 -8 q 110 278 110 129 m 204 1282 q 228 1307 204 1307 l 533 1307 q 551 1299 543 1307 q 558 1282 558 1292 q 551 1265 558 1272 q 533 1258 543 1258 l 228 1258 q 204 1282 204 1258 z "},"ū":{"ha":671,"x_min":89,"x_max":582,"o":"m 89 242 l 89 631 q 97 648 89 640 q 114 656 104 656 q 131 648 124 656 q 138 631 138 640 l 138 242 q 196 101 138 163 q 336 40 254 40 q 475 101 417 40 q 533 242 533 163 l 533 632 q 541 649 533 642 q 558 656 549 656 q 575 649 568 656 q 582 632 582 642 l 582 242 q 509 67 582 142 q 336 -8 436 -8 q 162 67 235 -8 q 89 242 89 142 m 158 922 q 182 947 158 947 l 488 947 q 505 940 497 947 q 513 922 513 932 q 505 906 513 913 q 488 899 497 899 l 182 899 q 158 922 158 899 z "},"Ŭ":{"ha":763,"x_min":110,"x_max":653,"o":"m 110 278 l 110 992 q 135 1015 110 1015 q 160 992 160 1015 l 160 278 q 217 101 160 160 q 381 42 274 42 q 545 101 488 42 q 603 278 603 160 l 603 992 q 628 1015 603 1015 q 653 992 653 1015 l 653 278 q 578 60 653 129 q 381 -8 504 -8 q 183 60 257 -8 q 110 278 110 129 m 229 1346 l 274 1346 q 305 1265 274 1299 q 381 1231 336 1231 q 455 1265 424 1231 q 486 1346 486 1299 l 532 1346 q 486 1240 532 1285 q 381 1194 440 1194 q 274 1240 319 1194 q 229 1346 229 1285 z "},"ŭ":{"ha":671,"x_min":89,"x_max":582,"o":"m 89 242 l 89 631 q 97 648 89 640 q 114 656 104 656 q 131 648 124 656 q 138 631 138 640 l 138 242 q 196 101 138 163 q 336 40 254 40 q 475 101 417 40 q 533 242 533 163 l 533 632 q 541 649 533 642 q 558 656 549 656 q 575 649 568 656 q 582 632 582 642 l 582 242 q 509 67 582 142 q 336 -8 436 -8 q 162 67 235 -8 q 89 242 89 142 m 183 986 l 228 986 q 259 905 228 939 q 335 871 290 871 q 409 905 378 871 q 440 986 440 939 l 486 986 q 440 880 486 925 q 335 835 394 835 q 228 880 274 835 q 183 986 183 925 z "},"Ů":{"ha":763,"x_min":110,"x_max":653,"o":"m 110 278 l 110 992 q 135 1015 110 1015 q 160 992 160 1015 l 160 278 q 217 101 160 160 q 381 42 274 42 q 545 101 488 42 q 603 278 603 160 l 603 992 q 628 1015 603 1015 q 653 992 653 1015 l 653 278 q 578 60 653 129 q 381 -8 504 -8 q 183 60 257 -8 q 110 278 110 129 m 256 1300 q 292 1388 256 1350 q 381 1426 329 1426 q 467 1388 429 1426 q 506 1300 506 1350 q 467 1210 506 1249 q 381 1171 429 1171 q 292 1210 329 1171 q 256 1300 256 1249 m 289 1300 q 317 1233 289 1263 q 381 1203 344 1203 q 444 1233 417 1203 q 471 1300 471 1263 q 444 1362 471 1333 q 381 1390 417 1390 q 316 1362 343 1390 q 289 1300 289 1333 z "},"ů":{"ha":671,"x_min":89,"x_max":582,"o":"m 89 242 l 89 631 q 97 648 89 640 q 114 656 104 656 q 131 648 124 656 q 138 631 138 640 l 138 242 q 196 101 138 163 q 336 40 254 40 q 475 101 417 40 q 533 242 533 163 l 533 632 q 541 649 533 642 q 558 656 549 656 q 575 649 568 656 q 582 632 582 642 l 582 242 q 509 67 582 142 q 336 -8 436 -8 q 162 67 235 -8 q 89 242 89 142 m 210 940 q 247 1028 210 990 q 335 1067 283 1067 q 422 1028 383 1067 q 460 940 460 990 q 422 850 460 889 q 335 811 383 811 q 247 850 283 811 q 210 940 210 889 m 243 940 q 270 873 243 903 q 335 843 297 843 q 398 873 371 843 q 425 940 425 903 q 398 1002 425 974 q 335 1031 371 1031 q 270 1002 297 1031 q 243 940 243 974 z "},"Ű":{"ha":763,"x_min":110,"x_max":653,"o":"m 110 278 l 110 992 q 135 1015 110 1015 q 160 992 160 1015 l 160 278 q 217 101 160 160 q 381 42 274 42 q 545 101 488 42 q 603 278 603 160 l 603 992 q 628 1015 603 1015 q 653 992 653 1015 l 653 278 q 578 60 653 129 q 381 -8 504 -8 q 183 60 257 -8 q 110 278 110 129 m 257 1219 q 268 1238 257 1232 l 410 1321 q 419 1324 415 1324 q 442 1299 442 1324 q 428 1274 442 1282 l 296 1199 q 283 1194 289 1194 q 265 1202 272 1194 q 257 1219 257 1210 m 461 1219 q 472 1238 461 1232 l 614 1321 q 624 1324 619 1324 q 646 1299 646 1324 q 632 1274 646 1282 l 500 1199 q 488 1194 494 1194 q 469 1202 476 1194 q 461 1219 461 1210 z "},"ű":{"ha":671,"x_min":89,"x_max":583,"o":"m 89 242 l 89 631 q 97 648 89 640 q 114 656 104 656 q 131 648 124 656 q 138 631 138 640 l 138 242 q 196 101 138 163 q 336 40 254 40 q 475 101 417 40 q 533 242 533 163 l 533 632 q 541 649 533 642 q 558 656 549 656 q 575 649 568 656 q 582 632 582 642 l 582 242 q 509 67 582 142 q 336 -8 436 -8 q 162 67 235 -8 q 89 242 89 142 m 194 860 q 206 878 194 872 l 347 961 q 357 964 353 964 q 379 939 379 964 q 365 914 379 922 l 233 839 q 221 835 228 835 q 202 842 210 835 q 194 860 194 850 m 399 860 q 410 878 399 872 l 551 961 q 561 964 557 964 q 583 939 583 964 q 569 914 583 922 l 438 839 q 425 835 431 835 q 406 842 414 835 q 399 860 399 850 z "},"Ų":{"ha":763,"x_min":110,"x_max":653,"o":"m 110 278 l 110 992 q 135 1015 110 1015 q 160 992 160 1015 l 160 278 q 217 101 160 160 q 381 42 274 42 q 545 101 488 42 q 603 278 603 160 l 603 992 q 628 1015 603 1015 q 653 992 653 1015 l 653 278 q 472 3 653 50 q 397 -85 422 -46 q 372 -175 372 -125 q 460 -235 372 -235 q 485 -253 485 -235 q 453 -271 485 -271 q 369 -249 406 -271 q 332 -178 332 -228 q 404 -7 332 -89 q 381 -8 396 -8 q 183 60 257 -8 q 110 278 110 129 z "},"ų":{"ha":671,"x_min":89,"x_max":582,"o":"m 89 242 l 89 631 q 97 648 89 640 q 114 656 104 656 q 131 648 124 656 q 138 631 138 640 l 138 242 q 196 101 138 163 q 336 40 254 40 q 475 101 417 40 q 533 242 533 163 l 533 632 q 541 649 533 642 q 558 656 549 656 q 575 649 568 656 q 582 632 582 642 l 582 242 q 532 94 582 161 q 406 3 482 26 q 331 -85 356 -46 q 306 -175 306 -125 q 393 -235 306 -235 q 418 -253 418 -235 q 386 -271 418 -271 q 302 -249 339 -271 q 265 -178 265 -228 q 336 -8 265 -89 q 162 67 235 -8 q 89 242 89 142 z "},"Ŵ":{"ha":1026,"x_min":36,"x_max":990,"o":"m 36 993 q 60 1015 36 1015 q 86 997 82 1015 l 336 97 l 483 632 q 514 656 490 656 q 542 632 535 656 l 692 97 l 940 997 q 967 1015 944 1015 q 990 993 990 1015 q 989 985 990 989 l 718 11 q 692 -8 711 -8 q 667 11 671 -8 l 514 556 l 363 11 q 336 -8 356 -8 q 311 11 315 -8 l 38 985 q 36 993 36 989 m 332 1219 q 344 1239 332 1233 l 489 1317 q 513 1324 500 1324 q 536 1317 525 1324 l 681 1240 q 693 1217 693 1233 q 686 1201 693 1207 q 669 1194 679 1194 l 657 1199 l 513 1275 l 368 1197 q 363 1195 367 1197 q 357 1193 358 1193 q 340 1201 347 1193 q 332 1219 332 1208 z "},"ŵ":{"ha":908,"x_min":26,"x_max":882,"o":"m 26 631 q 34 649 26 642 q 51 656 42 656 q 75 640 68 656 l 271 97 l 431 600 q 456 618 438 618 q 481 600 474 618 l 635 90 l 835 640 q 857 656 839 656 q 882 632 882 656 q 876 613 882 624 l 658 8 q 638 -8 653 -8 q 618 7 625 -8 l 456 528 l 296 15 q 272 -8 288 -8 q 258 -4 263 -8 q 249 15 254 0 l 32 613 q 26 631 26 624 m 274 860 q 286 879 274 872 l 431 957 q 454 964 442 964 q 478 957 467 964 l 622 881 q 635 857 635 875 q 628 841 635 847 q 611 835 621 835 l 599 839 l 454 915 l 310 838 q 304 835 308 838 q 299 833 300 833 q 281 841 289 833 q 274 860 274 849 z "},"Ŷ":{"ha":707,"x_min":31,"x_max":675,"o":"m 31 993 q 49 1015 31 1015 q 76 992 64 1015 l 353 435 l 631 992 q 658 1015 642 1015 q 675 993 675 1015 q 668 965 675 979 l 379 388 q 378 379 378 385 l 378 25 q 353 0 378 0 q 328 25 328 0 l 328 379 q 326 388 328 385 l 39 965 q 31 993 31 982 m 172 1219 q 185 1239 172 1233 l 329 1317 q 353 1324 340 1324 q 376 1317 365 1324 l 521 1240 q 533 1217 533 1233 q 526 1201 533 1207 q 510 1194 519 1194 l 497 1199 l 353 1275 l 208 1197 q 203 1195 207 1197 q 197 1193 199 1193 q 180 1201 188 1193 q 172 1219 172 1208 z "},"ŷ":{"ha":549,"x_min":25,"x_max":522,"o":"m 25 640 q 33 657 25 650 q 51 664 40 664 q 74 649 69 664 l 275 93 l 475 649 q 497 664 482 664 q 522 640 522 664 q 521 632 522 635 l 299 18 l 271 -58 q 241 -132 263 -81 q 202 -210 219 -183 q 160 -268 185 -236 q 108 -315 136 -300 q 50 -329 81 -329 q 33 -322 40 -329 q 26 -306 26 -315 q 47 -281 26 -281 q 93 -269 71 -281 q 135 -231 115 -258 q 167 -183 154 -204 q 199 -117 181 -162 q 225 -53 218 -71 l 250 18 l 28 632 q 25 640 25 638 m 93 860 q 106 879 93 872 l 250 957 q 274 964 261 964 q 297 957 286 964 l 442 881 q 454 857 454 875 q 447 841 454 847 q 431 835 440 835 l 418 839 l 274 915 l 129 838 q 124 835 128 838 q 118 833 119 833 q 101 841 108 833 q 93 860 93 849 z "},"Ÿ":{"ha":707,"x_min":31,"x_max":675,"o":"m 31 993 q 49 1015 31 1015 q 76 992 64 1015 l 353 435 l 631 992 q 658 1015 642 1015 q 675 993 675 1015 q 668 965 675 979 l 379 388 q 378 379 378 385 l 378 25 q 353 0 378 0 q 328 25 328 0 l 328 379 q 326 388 328 385 l 39 965 q 31 993 31 982 m 247 1205 q 241 1211 247 1205 q 235 1235 235 1217 q 247 1264 235 1253 q 276 1275 258 1275 q 306 1264 294 1275 q 317 1235 317 1253 q 306 1205 317 1217 q 276 1193 294 1193 q 247 1205 258 1193 m 401 1205 q 395 1211 401 1205 q 389 1235 389 1217 q 401 1264 389 1253 q 431 1275 413 1275 q 460 1264 449 1275 q 471 1235 471 1253 q 460 1205 471 1217 q 431 1193 449 1193 q 401 1205 413 1193 z "},"Ź":{"ha":644,"x_min":38,"x_max":608,"o":"m 38 24 q 42 40 38 32 l 528 965 l 76 965 q 51 990 51 965 q 76 1015 51 1015 l 569 1015 q 594 994 594 1015 q 588 972 594 983 l 103 50 l 583 50 q 608 25 608 50 q 583 0 608 0 l 63 0 q 38 24 38 0 m 217 1219 q 228 1238 217 1232 l 369 1321 q 379 1324 375 1324 q 401 1299 401 1324 q 388 1274 401 1282 l 256 1199 q 243 1194 250 1194 q 224 1202 232 1194 q 217 1219 217 1210 z "},"ź":{"ha":535,"x_min":36,"x_max":499,"o":"m 36 22 q 42 39 36 33 l 413 607 l 75 607 q 58 614 65 607 q 50 631 50 621 q 57 649 50 642 q 75 656 64 656 l 460 656 q 477 649 469 656 q 485 631 485 642 q 481 617 485 622 l 108 49 l 474 49 q 491 41 483 49 q 499 24 499 33 q 491 7 499 14 q 474 0 483 0 l 61 0 q 36 22 36 0 m 168 860 q 179 878 168 872 l 321 961 q 331 964 326 964 q 353 939 353 964 q 339 914 353 922 l 207 839 q 194 835 200 835 q 176 842 183 835 q 168 860 168 850 z "},"Ż":{"ha":644,"x_min":38,"x_max":608,"o":"m 38 24 q 42 40 38 32 l 528 965 l 76 965 q 51 990 51 965 q 76 1015 51 1015 l 569 1015 q 594 994 594 1015 q 588 972 594 983 l 103 50 l 583 50 q 608 25 608 50 q 583 0 608 0 l 63 0 q 38 24 38 0 m 280 1205 q 274 1211 280 1205 q 268 1235 268 1217 q 280 1264 268 1253 q 310 1275 292 1275 q 339 1264 328 1275 q 350 1235 350 1253 q 339 1205 350 1217 q 310 1193 328 1193 q 280 1205 292 1193 z "},"ż":{"ha":535,"x_min":36,"x_max":499,"o":"m 36 22 q 42 39 36 33 l 413 607 l 75 607 q 58 614 65 607 q 50 631 50 621 q 57 649 50 642 q 75 656 64 656 l 460 656 q 477 649 469 656 q 485 631 485 642 q 481 617 485 622 l 108 49 l 474 49 q 491 41 483 49 q 499 24 499 33 q 491 7 499 14 q 474 0 483 0 l 61 0 q 36 22 36 0 m 231 845 q 225 851 231 845 q 219 875 219 857 q 231 904 219 893 q 261 915 243 915 q 290 904 279 915 q 301 875 301 893 q 290 845 301 857 q 261 833 279 833 q 231 845 243 833 z "},"Ž":{"ha":644,"x_min":38,"x_max":608,"o":"m 38 24 q 42 40 38 32 l 528 965 l 76 965 q 51 990 51 965 q 76 1015 51 1015 l 569 1015 q 594 994 594 1015 q 588 972 594 983 l 103 50 l 583 50 q 608 25 608 50 q 583 0 608 0 l 63 0 q 38 24 38 0 m 139 1332 q 128 1354 128 1346 q 134 1369 128 1363 q 149 1375 140 1375 q 171 1364 161 1375 l 307 1221 l 443 1364 q 465 1375 453 1375 q 480 1369 474 1375 q 486 1354 486 1363 q 475 1332 486 1346 l 336 1192 q 307 1176 321 1176 q 278 1192 290 1176 l 139 1332 z "},"ž":{"ha":535,"x_min":36,"x_max":499,"o":"m 36 22 q 42 39 36 33 l 413 607 l 75 607 q 58 614 65 607 q 50 631 50 621 q 57 649 50 642 q 75 656 64 656 l 460 656 q 477 649 469 656 q 485 631 485 642 q 481 617 485 622 l 108 49 l 474 49 q 491 41 483 49 q 499 24 499 33 q 491 7 499 14 q 474 0 483 0 l 61 0 q 36 22 36 0 m 90 972 q 79 994 79 986 q 85 1009 79 1003 q 100 1015 92 1015 q 122 1004 113 1015 l 258 861 l 394 1004 q 417 1015 404 1015 q 431 1009 425 1015 q 438 994 438 1003 q 426 972 438 986 l 288 832 q 258 817 272 817 q 229 832 242 817 l 90 972 z "},"ƒ":{"ha":450,"x_min":-107,"x_max":486,"o":"m -107 -168 q -98 -149 -107 -157 q -78 -142 -89 -142 l -50 -142 q 72 72 42 -142 l 178 819 q 276 993 192 919 q 460 1067 360 1067 l 465 1067 q 486 1044 486 1067 q 478 1026 486 1033 q 458 1018 469 1018 l 453 1018 q 304 958 371 1018 q 226 819 238 899 l 189 558 l 401 558 q 424 538 424 558 q 415 518 424 526 q 394 510 406 510 l 182 510 l 121 72 q -57 -190 83 -190 l -85 -190 q -107 -168 -107 -190 z "},"Ǽ":{"ha":944,"x_min":110,"x_max":906,"o":"m 110 32 l 110 729 q 184 947 110 878 q 382 1015 258 1015 l 882 1015 q 906 992 906 1015 q 882 965 906 965 l 553 965 l 553 533 l 775 533 q 799 507 799 533 q 775 483 799 483 l 553 483 l 553 50 l 882 50 q 906 24 906 50 q 882 0 906 0 l 528 0 q 503 25 503 0 l 503 483 l 160 483 l 160 32 q 135 0 160 0 q 110 32 110 0 m 160 533 l 503 533 l 503 965 l 382 965 q 217 906 275 965 q 160 729 160 847 l 160 533 m 382 1219 q 393 1238 382 1232 l 535 1321 q 544 1324 540 1324 q 567 1299 567 1324 q 553 1274 567 1282 l 421 1199 q 408 1194 414 1194 q 390 1202 397 1194 q 382 1219 382 1210 z "},"ǽ":{"ha":999,"x_min":49,"x_max":943,"o":"m 49 174 q 130 318 49 278 q 369 358 211 358 l 447 358 l 447 399 q 401 553 447 489 q 260 617 356 617 q 165 597 213 617 l 118 579 q 102 589 110 579 q 94 607 94 599 q 149 647 94 628 q 267 665 204 665 q 476 525 425 665 q 567 625 508 586 q 696 664 625 664 q 778 649 738 664 q 858 605 819 635 q 919 520 896 575 q 943 394 943 465 q 922 326 943 342 q 828 310 900 310 l 501 310 l 501 244 q 566 96 501 151 q 731 40 631 40 q 816 55 781 40 q 870 83 851 69 q 897 97 889 97 q 914 90 906 97 q 922 72 922 83 q 853 17 922 43 q 714 -8 783 -8 q 570 30 636 -8 q 474 136 504 68 q 369 26 433 61 q 238 -8 306 -8 q 103 38 157 -8 q 49 174 49 85 m 97 172 q 137 74 97 108 q 239 40 176 40 q 383 93 319 40 q 447 193 447 146 l 447 310 l 371 310 q 265 306 307 310 q 181 288 222 301 q 118 246 139 275 q 97 172 97 217 m 407 860 q 418 878 407 872 l 560 961 q 569 964 565 964 q 592 939 592 964 q 578 914 592 922 l 446 839 q 433 835 439 835 q 415 842 422 835 q 407 860 407 850 m 501 358 l 811 358 q 879 368 864 358 q 894 407 894 378 q 839 552 894 489 q 697 615 783 615 q 558 557 614 615 q 501 419 501 499 l 501 358 z "},"Ǿ":{"ha":754,"x_min":82,"x_max":671,"o":"m 82 -7 q 85 6 82 1 l 140 113 q 106 278 106 179 l 106 729 q 179 947 106 878 q 376 1015 253 1015 q 572 947 500 1015 l 628 1056 q 646 1067 633 1067 q 663 1059 654 1067 q 671 1040 671 1051 q 667 1025 671 1033 l 606 907 q 649 729 649 835 l 649 278 q 574 60 649 129 q 376 -8 500 -8 q 171 69 239 -8 l 128 -12 q 104 -28 119 -28 q 82 -7 82 -28 m 156 278 q 171 172 156 218 l 547 899 q 376 965 489 965 q 213 906 269 965 q 156 729 156 847 l 156 278 m 196 119 q 376 42 251 42 q 541 101 483 42 q 599 278 599 160 l 599 729 q 576 851 599 803 l 196 119 m 285 1219 q 296 1238 285 1232 l 438 1321 q 447 1324 443 1324 q 469 1299 469 1324 q 456 1274 469 1282 l 324 1199 q 311 1194 317 1194 q 292 1202 300 1194 q 285 1219 285 1210 z "},"ǿ":{"ha":632,"x_min":69,"x_max":563,"o":"m 69 244 l 69 414 q 142 589 69 514 q 315 664 215 664 q 439 629 381 664 l 474 696 q 492 707 479 707 q 508 699 500 707 q 517 681 517 692 q 513 665 517 674 l 478 600 q 563 414 563 525 l 563 244 q 488 68 563 144 q 315 -8 414 -8 q 186 32 247 -8 l 154 -29 q 131 -44 147 -44 q 108 -24 108 -44 q 111 -11 108 -15 l 149 63 q 69 244 69 139 m 118 244 q 171 107 118 167 l 417 585 q 315 615 371 615 q 176 553 233 615 q 118 414 118 492 l 118 244 m 207 75 q 315 40 254 40 q 455 103 396 40 q 514 244 514 165 l 514 414 q 454 554 514 494 l 207 75 m 224 860 q 235 878 224 872 l 376 961 q 386 964 382 964 q 408 939 408 964 q 394 914 408 922 l 263 839 q 250 835 256 835 q 231 842 239 835 q 224 860 224 850 z "},"Ș":{"ha":668,"x_min":58,"x_max":601,"o":"m 58 132 q 67 151 58 142 q 82 161 75 161 q 104 142 89 161 q 140 101 119 124 q 208 60 160 79 q 319 42 256 42 q 492 99 433 42 q 551 267 551 157 q 526 388 551 339 q 458 463 500 438 q 367 507 417 489 l 268 542 q 176 585 218 560 q 109 658 135 610 q 83 775 83 706 q 109 897 83 846 q 178 972 135 947 q 265 1006 222 996 q 357 1015 308 1015 q 508 992 440 1015 q 576 943 576 968 q 568 923 576 933 q 551 913 560 913 q 522 926 546 913 q 455 952 499 939 q 356 965 411 965 q 251 951 297 965 q 169 894 204 938 q 133 779 133 850 q 159 678 133 719 q 226 617 185 638 q 317 579 268 596 q 417 542 367 563 q 508 493 467 522 q 576 408 550 464 q 601 271 601 351 q 527 60 601 129 q 326 -8 453 -8 q 210 8 264 -8 q 125 48 157 25 q 76 94 93 71 q 58 132 58 117 m 257 -171 q 268 -153 257 -158 l 410 -69 q 419 -67 415 -67 q 442 -92 442 -67 q 428 -117 442 -108 l 296 -192 q 283 -196 289 -196 q 265 -188 272 -196 q 257 -171 257 -181 z "},"ș":{"ha":518,"x_min":53,"x_max":465,"o":"m 53 82 q 59 99 53 92 q 72 106 65 106 q 93 94 79 106 l 122 72 q 174 51 139 61 q 254 40 210 40 q 376 72 336 40 q 417 156 417 104 q 381 249 417 215 q 293 299 344 283 l 190 331 q 103 383 139 346 q 67 483 67 421 q 119 609 67 554 q 272 664 172 664 q 388 644 333 664 q 442 606 442 625 q 434 588 442 597 q 418 578 426 578 q 370 597 417 578 q 274 615 324 615 q 154 574 193 615 q 115 485 115 533 q 151 406 115 435 q 239 363 188 376 q 342 332 290 349 q 429 272 393 315 q 465 158 465 229 q 410 36 465 81 q 256 -8 354 -8 q 111 22 169 -8 q 53 82 53 53 m 168 -171 q 179 -153 168 -158 l 321 -69 q 331 -67 326 -67 q 353 -92 353 -67 q 339 -117 353 -108 l 207 -192 q 194 -196 200 -196 q 176 -188 183 -196 q 168 -171 168 -181 z "},"ȷ":{"ha":240,"x_min":-50,"x_max":144,"o":"m -50 -304 q -25 -281 -50 -281 q 72 -227 49 -281 q 96 -67 96 -174 l 96 632 q 119 656 96 656 q 144 632 144 656 l 144 -67 q -25 -329 144 -329 q -42 -322 -35 -329 q -50 -304 -50 -314 z "},"ə":{"ha":618,"x_min":54,"x_max":547,"o":"m 54 242 q 63 300 54 278 q 90 332 71 322 q 126 344 110 342 q 169 346 142 346 l 499 346 l 499 411 q 433 560 499 504 q 264 615 368 615 q 178 601 213 615 q 126 572 143 586 q 100 558 108 558 q 83 567 90 558 q 75 583 75 575 q 97 616 75 597 q 165 649 119 635 q 267 664 211 664 q 469 594 390 664 q 547 411 547 524 l 547 238 q 474 65 547 138 q 300 -8 401 -8 q 127 63 200 -8 q 54 242 54 135 m 103 246 q 158 103 103 167 q 300 40 214 40 q 441 99 383 40 q 499 238 499 158 l 499 297 l 186 297 q 119 288 135 297 q 103 246 103 278 z "},"ˆ":{"ha":361,"x_min":0,"x_max":361,"o":"m 0 860 q 13 879 0 872 l 157 957 q 181 964 168 964 q 204 957 193 964 l 349 881 q 361 857 361 875 q 354 841 361 847 q 338 835 347 835 l 325 839 l 181 915 l 36 838 q 31 835 35 838 q 25 833 26 833 q 8 841 15 833 q 0 860 0 849 z "},"ˇ":{"ha":389,"x_min":15,"x_max":374,"o":"m 26 972 q 15 994 15 986 q 22 1009 15 1003 q 36 1015 28 1015 q 58 1004 49 1015 l 194 861 l 331 1004 q 353 1015 340 1015 q 367 1009 361 1015 q 374 994 374 1003 q 363 972 374 986 l 224 832 q 194 817 208 817 q 165 832 178 817 l 26 972 z "},"˘":{"ha":303,"x_min":0,"x_max":303,"o":"m 0 986 l 44 986 q 76 905 44 939 q 151 871 107 871 q 226 905 194 871 q 257 986 257 939 l 303 986 q 257 880 303 925 q 151 835 211 835 q 45 880 90 835 q 0 986 0 925 z "},"˙":{"ha":288,"x_min":111,"x_max":193,"o":"m 123 845 q 117 851 123 845 q 111 875 111 857 q 123 904 111 893 q 153 915 135 915 q 182 904 171 915 q 193 875 193 893 q 182 845 193 857 q 153 833 171 833 q 123 845 135 833 z "},"˚":{"ha":250,"x_min":0,"x_max":250,"o":"m 0 940 q 37 1028 0 990 q 125 1067 74 1067 q 212 1028 174 1067 q 250 940 250 990 q 212 850 250 889 q 125 811 174 811 q 37 850 74 811 q 0 940 0 889 m 33 940 q 61 873 33 903 q 125 843 89 843 q 188 873 161 843 q 215 940 215 903 q 188 1002 215 974 q 125 1031 161 1031 q 60 1002 88 1031 q 33 940 33 974 z "},"˛":{"ha":153,"x_min":0,"x_max":153,"o":"m 0 -178 q 104 25 0 -75 l 140 3 q 65 -85 90 -46 q 40 -175 40 -125 q 128 -235 40 -235 q 153 -253 153 -235 q 121 -271 153 -271 q 37 -249 74 -271 q 0 -178 0 -228 z "},"˜":{"ha":410,"x_min":0,"x_max":410,"o":"m 0 886 q 42 935 0 913 q 124 958 85 958 q 210 933 157 958 q 300 907 264 907 q 345 918 328 907 q 372 940 363 929 q 390 951 382 951 q 410 931 410 951 q 370 881 410 901 q 293 860 331 860 q 208 885 261 860 q 114 911 154 911 q 68 899 88 911 q 37 874 49 886 q 18 863 25 863 q 0 886 0 863 z "},"˝":{"ha":389,"x_min":0,"x_max":389,"o":"m 0 860 q 11 878 0 872 l 153 961 q 163 964 158 964 q 185 939 185 964 q 171 914 185 922 l 39 839 q 26 835 33 835 q 8 842 15 835 q 0 860 0 850 m 204 860 q 215 878 204 872 l 357 961 q 367 964 363 964 q 389 939 389 964 q 375 914 389 922 l 243 839 q 231 835 236 835 q 212 842 219 835 q 204 860 204 850 z "},"π":{"ha":649,"x_min":94,"x_max":554,"o":"m 94 24 l 94 631 q 119 656 94 656 l 529 656 q 554 631 554 656 l 554 24 q 529 0 554 0 q 504 24 504 0 l 504 606 l 144 606 l 144 24 q 119 0 144 0 q 94 24 94 0 z "},"Ẁ":{"ha":1026,"x_min":36,"x_max":990,"o":"m 36 993 q 60 1015 36 1015 q 86 997 82 1015 l 336 97 l 483 632 q 514 656 490 656 q 542 632 535 656 l 692 97 l 940 997 q 967 1015 944 1015 q 990 993 990 1015 q 989 985 990 989 l 718 11 q 692 -8 711 -8 q 667 11 671 -8 l 514 556 l 363 11 q 336 -8 356 -8 q 311 11 315 -8 l 38 985 q 36 993 36 989 m 421 1299 q 443 1324 421 1324 q 453 1321 447 1324 l 594 1238 q 606 1219 606 1232 q 598 1202 606 1210 q 579 1194 590 1194 q 567 1199 572 1194 l 435 1274 q 421 1299 421 1282 z "},"ẁ":{"ha":908,"x_min":26,"x_max":882,"o":"m 26 631 q 34 649 26 642 q 51 656 42 656 q 75 640 68 656 l 271 97 l 431 600 q 456 618 438 618 q 481 600 474 618 l 635 90 l 835 640 q 857 656 839 656 q 882 632 882 656 q 876 613 882 624 l 658 8 q 638 -8 653 -8 q 618 7 625 -8 l 456 528 l 296 15 q 272 -8 288 -8 q 258 -4 263 -8 q 249 15 254 0 l 32 613 q 26 631 26 624 m 361 939 q 383 964 361 964 q 393 961 388 964 l 535 878 q 546 860 546 872 q 538 842 546 850 q 519 835 531 835 q 507 839 514 835 l 375 914 q 361 939 361 922 z "},"Ẃ":{"ha":1026,"x_min":36,"x_max":990,"o":"m 36 993 q 60 1015 36 1015 q 86 997 82 1015 l 336 97 l 483 632 q 514 656 490 656 q 542 632 535 656 l 692 97 l 940 997 q 967 1015 944 1015 q 990 993 990 1015 q 989 985 990 989 l 718 11 q 692 -8 711 -8 q 667 11 671 -8 l 514 556 l 363 11 q 336 -8 356 -8 q 311 11 315 -8 l 38 985 q 36 993 36 989 m 421 1219 q 432 1238 421 1232 l 574 1321 q 583 1324 579 1324 q 606 1299 606 1324 q 592 1274 606 1282 l 460 1199 q 447 1194 453 1194 q 428 1202 436 1194 q 421 1219 421 1210 z "},"ẃ":{"ha":908,"x_min":26,"x_max":882,"o":"m 26 631 q 34 649 26 642 q 51 656 42 656 q 75 640 68 656 l 271 97 l 431 600 q 456 618 438 618 q 481 600 474 618 l 635 90 l 835 640 q 857 656 839 656 q 882 632 882 656 q 876 613 882 624 l 658 8 q 638 -8 653 -8 q 618 7 625 -8 l 456 528 l 296 15 q 272 -8 288 -8 q 258 -4 263 -8 q 249 15 254 0 l 32 613 q 26 631 26 624 m 361 860 q 372 878 361 872 l 514 961 q 524 964 519 964 q 546 939 546 964 q 532 914 546 922 l 400 839 q 388 835 394 835 q 369 842 376 835 q 361 860 361 850 z "},"Ẅ":{"ha":1026,"x_min":36,"x_max":990,"o":"m 36 993 q 60 1015 36 1015 q 86 997 82 1015 l 336 97 l 483 632 q 514 656 490 656 q 542 632 535 656 l 692 97 l 940 997 q 967 1015 944 1015 q 990 993 990 1015 q 989 985 990 989 l 718 11 q 692 -8 711 -8 q 667 11 671 -8 l 514 556 l 363 11 q 336 -8 356 -8 q 311 11 315 -8 l 38 985 q 36 993 36 989 m 406 1205 q 400 1211 406 1205 q 394 1235 394 1217 q 406 1264 394 1253 q 436 1275 418 1275 q 465 1264 454 1275 q 476 1235 476 1253 q 465 1205 476 1217 q 436 1193 454 1193 q 406 1205 418 1193 m 560 1205 q 555 1211 560 1205 q 549 1235 549 1217 q 560 1264 549 1253 q 590 1275 572 1275 q 619 1264 608 1275 q 631 1235 631 1253 q 619 1205 631 1217 q 590 1193 608 1193 q 560 1205 572 1193 z "},"ẅ":{"ha":908,"x_min":26,"x_max":882,"o":"m 26 631 q 34 649 26 642 q 51 656 42 656 q 75 640 68 656 l 271 97 l 431 600 q 456 618 438 618 q 481 600 474 618 l 635 90 l 835 640 q 857 656 839 656 q 882 632 882 656 q 876 613 882 624 l 658 8 q 638 -8 653 -8 q 618 7 625 -8 l 456 528 l 296 15 q 272 -8 288 -8 q 258 -4 263 -8 q 249 15 254 0 l 32 613 q 26 631 26 624 m 348 845 q 342 851 348 845 q 336 875 336 857 q 348 904 336 893 q 378 915 360 915 q 407 904 396 915 q 418 875 418 893 q 407 845 418 857 q 378 833 396 833 q 348 845 360 833 m 502 845 q 496 851 502 845 q 490 875 490 857 q 502 904 490 893 q 532 915 514 915 q 561 904 550 915 q 572 875 572 893 q 561 845 572 857 q 532 833 550 833 q 502 845 514 833 z "},"Ỳ":{"ha":707,"x_min":31,"x_max":675,"o":"m 31 993 q 49 1015 31 1015 q 76 992 64 1015 l 353 435 l 631 992 q 658 1015 642 1015 q 675 993 675 1015 q 668 965 675 979 l 379 388 q 378 379 378 385 l 378 25 q 353 0 378 0 q 328 25 328 0 l 328 379 q 326 388 328 385 l 39 965 q 31 993 31 982 m 261 1299 q 283 1324 261 1324 q 293 1321 288 1324 l 435 1238 q 446 1219 446 1232 q 438 1202 446 1210 q 419 1194 431 1194 q 407 1199 414 1194 l 275 1274 q 261 1299 261 1282 z "},"ỳ":{"ha":549,"x_min":25,"x_max":522,"o":"m 25 640 q 33 657 25 650 q 51 664 40 664 q 74 649 69 664 l 275 93 l 475 649 q 497 664 482 664 q 522 640 522 664 q 521 632 522 635 l 299 18 l 271 -58 q 241 -132 263 -81 q 202 -210 219 -183 q 160 -268 185 -236 q 108 -315 136 -300 q 50 -329 81 -329 q 33 -322 40 -329 q 26 -306 26 -315 q 47 -281 26 -281 q 93 -269 71 -281 q 135 -231 115 -258 q 167 -183 154 -204 q 199 -117 181 -162 q 225 -53 218 -71 l 250 18 l 28 632 q 25 640 25 638 m 181 939 q 203 964 181 964 q 213 961 207 964 l 354 878 q 365 860 365 872 q 358 842 365 850 q 339 835 350 835 q 326 839 333 835 l 194 914 q 181 939 181 922 z "},"–":{"ha":632,"x_min":69,"x_max":563,"o":"m 69 333 q 93 358 69 358 l 538 358 q 555 351 547 358 q 563 333 563 343 q 555 317 563 324 q 538 310 547 310 l 93 310 q 69 333 69 310 z "},"—":{"ha":1021,"x_min":69,"x_max":951,"o":"m 69 333 q 93 358 69 358 l 926 358 q 944 351 936 358 q 951 333 951 343 q 944 317 951 324 q 926 310 936 310 l 93 310 q 69 333 69 310 z "},"‘":{"ha":208,"x_min":54,"x_max":153,"o":"m 54 881 q 100 1015 54 924 q 119 1029 107 1029 q 142 1008 142 1029 q 140 1000 142 1003 l 115 929 q 153 881 153 919 q 139 845 153 860 q 103 831 125 831 q 69 845 83 831 q 54 881 54 860 z "},"’":{"ha":206,"x_min":57,"x_max":156,"o":"m 57 979 q 71 1015 57 1000 q 107 1029 85 1029 q 141 1015 126 1029 q 156 979 156 1000 q 110 844 156 936 q 90 831 103 831 q 68 851 68 831 q 69 860 68 857 l 94 931 q 57 979 57 940 z "},"‚":{"ha":225,"x_min":63,"x_max":161,"o":"m 63 42 q 76 77 63 63 q 113 92 90 92 q 147 77 132 92 q 161 42 161 63 q 115 -93 161 -1 q 96 -107 108 -107 q 74 -86 74 -107 q 75 -78 74 -81 l 100 -7 q 63 42 63 3 z "},"“":{"ha":394,"x_min":54,"x_max":339,"o":"m 54 881 q 100 1015 54 924 q 119 1029 107 1029 q 142 1008 142 1029 q 140 1000 142 1003 l 115 929 q 153 881 153 919 q 139 845 153 860 q 103 831 125 831 q 69 845 83 831 q 54 881 54 860 m 240 881 q 286 1015 240 924 q 306 1029 293 1029 q 328 1008 328 1029 q 326 1000 328 1003 l 301 929 q 339 881 339 919 q 325 845 339 860 q 289 831 311 831 q 255 845 269 831 q 240 881 240 860 z "},"”":{"ha":392,"x_min":57,"x_max":342,"o":"m 57 979 q 71 1015 57 1000 q 107 1029 85 1029 q 141 1015 126 1029 q 156 979 156 1000 q 110 844 156 936 q 90 831 103 831 q 68 851 68 831 q 69 860 68 857 l 94 931 q 57 979 57 940 m 243 979 q 257 1015 243 1000 q 293 1029 271 1029 q 327 1015 313 1029 q 342 979 342 1000 q 296 844 342 936 q 276 831 289 831 q 254 851 254 831 q 256 860 254 857 l 281 931 q 243 979 243 940 z "},"„":{"ha":411,"x_min":63,"x_max":347,"o":"m 63 42 q 76 77 63 63 q 113 92 90 92 q 147 77 132 92 q 161 42 161 63 q 115 -93 161 -1 q 96 -107 108 -107 q 74 -86 74 -107 q 75 -78 74 -81 l 100 -7 q 63 42 63 3 m 249 42 q 263 77 249 63 q 299 92 276 92 q 333 77 318 92 q 347 42 347 63 q 301 -93 347 -1 q 282 -107 294 -107 q 260 -86 260 -107 q 261 -78 260 -81 l 286 -7 q 249 42 249 3 z "},"†":{"ha":560,"x_min":33,"x_max":526,"o":"m 33 631 q 57 656 33 656 l 254 647 l 254 992 q 262 1008 254 1001 q 279 1015 269 1015 q 297 1008 289 1015 q 304 992 304 1001 l 304 647 l 501 656 q 519 648 511 656 q 526 631 526 640 q 519 614 526 621 q 501 607 511 607 l 304 615 l 304 -6 q 297 -22 304 -15 q 279 -29 289 -29 q 262 -22 269 -29 q 254 -6 254 -15 l 254 615 l 57 607 q 33 631 33 607 z "},"‡":{"ha":607,"x_min":57,"x_max":550,"o":"m 57 335 q 81 358 57 358 l 278 350 l 278 615 l 81 607 q 57 631 57 607 q 81 656 57 656 l 278 647 l 278 992 q 285 1008 278 1001 q 303 1015 293 1015 q 320 1008 313 1015 q 328 992 328 1001 l 328 647 l 525 656 q 542 648 535 656 q 550 631 550 640 q 542 614 550 621 q 525 607 535 607 l 328 615 l 328 350 l 525 358 q 542 351 535 358 q 550 335 550 344 q 542 317 550 325 q 525 310 535 310 l 328 318 l 328 -6 q 320 -22 328 -15 q 303 -29 313 -29 q 285 -22 293 -29 q 278 -6 278 -15 l 278 318 l 81 310 q 57 335 57 310 z "},"•":{"ha":422,"x_min":78,"x_max":343,"o":"m 78 417 q 117 507 78 468 q 211 546 157 546 q 303 507 264 546 q 343 417 343 468 q 303 325 343 364 q 211 286 264 286 q 117 325 157 286 q 78 417 78 364 z "},"…":{"ha":714,"x_min":63,"x_max":651,"o":"m 77 6 q 70 14 77 6 q 63 42 63 21 q 76 77 63 63 q 113 92 90 92 q 147 77 132 92 q 161 42 161 63 q 147 7 161 22 q 113 -8 132 -8 q 77 6 92 -8 m 323 6 q 316 14 323 6 q 308 42 308 21 q 322 77 308 63 q 358 92 336 92 q 392 77 378 92 q 407 42 407 63 q 392 7 407 22 q 358 -8 378 -8 q 323 6 338 -8 m 567 6 q 560 14 567 6 q 553 42 553 21 q 567 77 553 63 q 603 92 581 92 q 637 77 622 92 q 651 42 651 63 q 637 7 651 22 q 603 -8 622 -8 q 567 6 582 -8 z "},"‰":{"ha":1440,"x_min":64,"x_max":1381,"o":"m 64 651 l 64 867 q 108 979 64 943 q 224 1015 151 1015 q 340 979 296 1015 q 383 867 383 943 l 383 651 q 340 539 383 575 q 224 503 296 503 q 108 539 151 503 q 64 651 64 575 m 111 651 q 224 546 111 546 q 338 651 338 546 l 338 867 q 224 972 338 972 q 111 867 111 972 l 111 651 m 226 -7 q 229 6 226 1 l 772 1056 q 790 1067 778 1067 q 807 1059 799 1067 q 815 1040 815 1051 q 811 1025 815 1033 l 272 -12 q 249 -28 264 -28 q 226 -7 226 -28 m 646 144 l 646 360 q 690 472 646 436 q 806 508 733 508 q 922 472 878 508 q 965 360 965 436 l 965 144 q 922 32 965 68 q 806 -4 878 -4 q 690 32 733 -4 q 646 144 646 68 m 693 144 q 806 39 693 39 q 919 144 919 39 l 919 360 q 806 465 919 465 q 693 360 693 465 l 693 144 m 1061 144 l 1061 360 q 1105 472 1061 436 q 1221 508 1149 508 q 1337 472 1293 508 q 1381 360 1381 436 l 1381 144 q 1337 32 1381 68 q 1221 -4 1293 -4 q 1105 32 1149 -4 q 1061 144 1061 68 m 1108 144 q 1221 39 1108 39 q 1335 144 1335 39 l 1335 360 q 1221 465 1335 465 q 1108 360 1108 465 l 1108 144 z "},"‹":{"ha":299,"x_min":56,"x_max":242,"o":"m 63 361 q 56 385 56 372 q 63 408 56 397 l 196 656 q 219 668 203 668 q 235 661 229 668 q 242 644 242 654 q 238 632 242 639 l 104 385 l 238 139 q 242 126 242 133 q 234 110 242 117 q 217 103 226 103 q 196 115 203 103 l 63 361 z "},"›":{"ha":299,"x_min":57,"x_max":243,"o":"m 57 126 q 61 139 57 133 l 194 385 l 61 632 q 57 644 57 639 q 63 661 57 654 q 79 668 69 668 q 103 656 97 668 l 236 408 q 243 385 243 397 q 236 361 243 372 l 103 115 q 82 103 96 103 q 65 110 72 103 q 57 126 57 117 z "},"⁄":{"ha":181,"x_min":-199,"x_max":390,"o":"m -199 -7 q -196 6 -199 1 l 347 1056 q 365 1067 353 1067 q 382 1059 374 1067 q 390 1040 390 1051 q 386 1025 390 1033 l -153 -12 q -176 -28 -161 -28 q -199 -7 -199 -28 z "},"⁰":{"ha":461,"x_min":71,"x_max":390,"o":"m 71 651 l 71 867 q 115 979 71 943 q 231 1015 158 1015 q 347 979 303 1015 q 390 867 390 943 l 390 651 q 347 539 390 575 q 231 503 303 503 q 115 539 158 503 q 71 651 71 575 m 118 651 q 231 546 118 546 q 344 651 344 546 l 344 867 q 231 972 344 972 q 118 867 118 972 l 118 651 z "},"⁴":{"ha":381,"x_min":25,"x_max":351,"o":"m 25 646 q 28 657 25 649 l 224 1000 q 246 1015 232 1015 q 262 1010 254 1015 q 269 996 269 1004 q 267 986 269 992 l 85 671 l 243 671 l 243 804 q 265 821 243 821 q 289 804 289 821 l 289 671 l 332 671 q 351 649 351 671 q 346 633 351 640 q 332 626 340 626 l 289 626 l 289 525 q 265 507 289 507 q 243 525 243 507 l 243 626 l 43 626 q 25 646 25 626 z "},"⁵":{"ha":414,"x_min":46,"x_max":365,"o":"m 46 617 q 69 644 46 644 q 93 624 93 644 q 200 546 96 546 q 318 650 318 546 l 318 664 q 206 765 318 765 l 99 765 q 74 782 74 765 q 75 813 74 800 l 90 997 q 106 1015 93 1015 l 321 1015 q 338 993 338 1015 q 321 972 338 972 l 132 972 l 118 806 l 206 806 q 322 772 278 806 q 365 664 365 738 l 365 650 q 322 538 365 574 q 207 503 278 503 q 90 537 133 503 q 46 617 46 571 z "},"⁶":{"ha":447,"x_min":69,"x_max":389,"o":"m 69 685 l 69 867 q 114 979 69 943 q 231 1015 158 1015 q 347 980 304 1015 q 389 896 389 944 q 367 874 389 874 q 343 894 343 874 q 310 951 343 929 q 229 972 278 972 q 117 867 117 972 l 117 760 q 235 807 154 807 q 389 668 389 807 l 389 651 q 345 539 389 575 q 229 503 301 503 q 108 544 146 503 q 69 685 69 586 m 117 649 q 229 544 117 544 q 343 649 343 544 l 343 665 q 229 767 343 767 q 117 672 117 767 l 117 649 z "},"⁷":{"ha":392,"x_min":43,"x_max":363,"o":"m 43 892 l 43 997 q 50 1010 43 1004 q 65 1015 57 1015 l 340 1015 q 355 1009 347 1015 q 363 997 363 1003 l 363 938 q 357 917 363 928 l 122 515 q 106 506 117 506 q 78 528 78 506 q 81 538 78 529 l 317 935 l 317 972 l 90 972 l 90 892 q 83 879 90 885 q 67 874 75 874 q 43 892 43 874 z "},"⁸":{"ha":436,"x_min":58,"x_max":378,"o":"m 58 646 l 58 654 q 142 783 58 753 q 74 893 74 810 q 218 1015 74 1015 q 363 893 363 1015 q 294 783 363 808 q 378 654 378 753 l 378 646 q 334 538 378 572 q 218 503 290 503 q 102 538 146 503 q 58 646 58 572 m 106 649 q 219 543 106 543 q 332 649 332 543 l 332 660 q 218 763 332 763 q 106 660 106 763 l 106 649 m 218 974 q 169 974 218 974 q 119 889 119 974 q 218 804 119 804 q 317 889 317 804 q 218 974 317 974 z "},"⁹":{"ha":449,"x_min":58,"x_max":378,"o":"m 58 621 q 81 643 58 643 q 104 624 104 643 q 137 567 104 589 q 218 546 169 546 q 332 651 332 546 l 332 757 q 213 711 292 711 q 58 850 58 711 l 58 867 q 102 979 58 943 q 218 1015 146 1015 q 334 979 290 1015 q 378 867 378 943 l 378 651 q 217 503 378 503 q 101 538 143 503 q 58 621 58 572 m 106 851 q 218 751 106 751 q 332 846 332 751 l 332 868 q 218 974 332 974 q 106 868 106 974 l 106 851 z "},"₀":{"ha":461,"x_min":71,"x_max":390,"o":"m 71 144 l 71 360 q 115 472 71 436 q 231 508 158 508 q 347 472 303 508 q 390 360 390 436 l 390 144 q 347 32 390 68 q 231 -4 303 -4 q 115 32 158 -4 q 71 144 71 68 m 118 144 q 231 39 118 39 q 344 144 344 39 l 344 360 q 231 465 344 465 q 118 360 118 465 l 118 144 z "},"₁":{"ha":219,"x_min":32,"x_max":143,"o":"m 32 396 q 42 417 32 407 l 104 499 q 124 508 111 508 q 143 490 143 508 l 143 18 q 121 0 143 0 q 97 18 97 0 l 97 429 l 65 385 q 51 376 60 376 q 38 383 43 376 q 32 396 32 389 z "},"₂":{"ha":415,"x_min":51,"x_max":368,"o":"m 51 18 l 51 85 q 78 147 51 117 q 144 201 106 176 l 222 251 q 288 308 261 276 q 315 372 315 339 q 287 436 315 408 q 207 464 258 464 q 138 443 164 464 q 111 382 111 422 q 86 364 111 364 q 64 392 64 364 q 105 476 64 443 q 208 508 146 508 q 318 469 275 508 q 361 374 361 431 q 320 279 361 324 q 230 208 279 235 q 140 149 181 182 q 99 85 99 115 l 99 43 l 350 43 q 368 22 368 43 q 363 7 368 14 q 350 0 357 0 l 74 0 q 51 18 51 0 z "},"₃":{"ha":424,"x_min":47,"x_max":367,"o":"m 47 111 q 68 135 47 135 q 93 115 93 135 q 119 63 93 88 q 206 39 146 39 q 321 143 321 39 l 321 156 q 207 247 321 247 q 188 267 188 247 q 207 288 188 288 q 281 308 257 288 q 306 376 306 328 q 210 465 306 465 q 130 443 153 465 q 107 392 107 421 q 85 369 107 369 q 66 375 71 369 q 61 396 61 381 q 95 472 61 436 q 211 508 129 508 q 351 386 351 508 q 288 268 351 294 q 367 156 367 239 l 367 143 q 323 31 367 67 q 207 -4 279 -4 q 90 31 132 -4 q 47 111 47 67 z "},"₄":{"ha":381,"x_min":25,"x_max":351,"o":"m 25 139 q 28 150 25 142 l 224 493 q 246 508 232 508 q 262 503 254 508 q 269 489 269 497 q 267 479 269 485 l 85 164 l 243 164 l 243 297 q 265 314 243 314 q 289 297 289 314 l 289 164 l 332 164 q 351 142 351 164 q 346 126 351 133 q 332 119 340 119 l 289 119 l 289 18 q 265 0 289 0 q 243 18 243 0 l 243 119 l 43 119 q 25 139 25 119 z "},"₅":{"ha":414,"x_min":46,"x_max":365,"o":"m 46 110 q 69 138 46 138 q 93 117 93 138 q 200 39 96 39 q 318 143 318 39 l 318 157 q 206 258 318 258 l 99 258 q 74 275 74 258 q 75 306 74 293 l 90 490 q 106 508 93 508 l 321 508 q 338 486 338 508 q 321 465 338 465 l 132 465 l 118 299 l 206 299 q 322 265 278 299 q 365 157 365 231 l 365 143 q 322 31 365 67 q 207 -4 278 -4 q 90 30 133 -4 q 46 110 46 64 z "},"₆":{"ha":447,"x_min":69,"x_max":389,"o":"m 69 178 l 69 360 q 114 472 69 436 q 231 508 158 508 q 347 473 304 508 q 389 389 389 438 q 367 367 389 367 q 343 388 343 367 q 310 444 343 422 q 229 465 278 465 q 117 360 117 465 l 117 253 q 235 300 154 300 q 389 161 389 300 l 389 144 q 345 32 389 68 q 229 -4 301 -4 q 108 38 146 -4 q 69 178 69 79 m 117 142 q 229 38 117 38 q 343 142 343 38 l 343 158 q 229 260 343 260 q 117 165 117 260 l 117 142 z "},"₇":{"ha":393,"x_min":43,"x_max":363,"o":"m 43 385 l 43 490 q 50 503 43 497 q 65 508 57 508 l 340 508 q 355 502 347 508 q 363 490 363 496 l 363 431 q 357 410 363 421 l 122 8 q 106 -1 117 -1 q 78 21 78 -1 q 81 31 78 22 l 317 428 l 317 465 l 90 465 l 90 385 q 83 372 90 378 q 67 367 75 367 q 43 385 43 367 z "},"₈":{"ha":433,"x_min":57,"x_max":376,"o":"m 57 139 l 57 147 q 140 276 57 246 q 72 386 72 303 q 217 508 72 508 q 361 386 361 508 q 293 276 361 301 q 376 147 376 246 l 376 139 q 333 31 376 65 q 217 -4 289 -4 q 101 31 144 -4 q 57 139 57 65 m 104 142 q 218 36 104 36 q 331 142 331 36 l 331 153 q 217 256 331 256 q 104 153 104 256 l 104 142 m 217 467 q 167 467 217 467 q 118 382 118 467 q 217 297 118 297 q 315 382 315 297 q 217 467 315 467 z "},"₉":{"ha":449,"x_min":58,"x_max":378,"o":"m 58 114 q 81 136 58 136 q 104 117 104 136 q 137 60 104 82 q 218 39 169 39 q 332 144 332 39 l 332 250 q 213 204 292 204 q 58 343 58 204 l 58 360 q 102 472 58 436 q 218 508 146 508 q 334 472 290 508 q 378 360 378 436 l 378 144 q 217 -4 378 -4 q 101 31 143 -4 q 58 114 58 65 m 106 344 q 218 244 106 244 q 332 339 332 244 l 332 361 q 218 467 332 467 q 106 361 106 467 l 106 344 z "},"€":{"ha":788,"x_min":51,"x_max":715,"o":"m 51 390 q 75 415 51 415 l 172 415 l 172 565 l 75 565 q 51 589 51 565 q 75 614 51 614 l 172 614 l 172 729 q 246 947 172 878 q 443 1015 319 1015 q 642 950 568 1015 q 715 786 715 885 q 690 758 715 758 q 665 783 665 758 q 603 919 665 872 q 443 965 540 965 q 279 906 336 965 q 222 729 222 847 l 222 614 l 506 614 q 523 606 515 614 q 531 589 531 599 q 523 572 531 579 q 506 565 515 565 l 222 565 l 222 415 l 506 415 q 523 408 515 415 q 531 390 531 400 q 523 374 531 381 q 506 367 515 367 l 222 367 l 222 278 q 279 101 222 160 q 443 42 336 42 q 603 88 540 42 q 665 224 665 135 q 690 249 665 249 q 715 221 715 249 q 642 57 715 122 q 443 -8 568 -8 q 246 60 319 -8 q 172 278 172 129 l 172 367 l 75 367 q 51 390 51 367 z "},"™":{"ha":842,"x_min":47,"x_max":722,"o":"m 47 1043 q 65 1067 47 1067 l 325 1067 q 343 1043 343 1067 q 325 1018 343 1018 l 221 1018 l 221 675 q 196 656 221 656 q 169 675 169 656 l 169 1018 l 65 1018 q 47 1043 47 1018 m 385 675 l 385 1042 q 410 1067 385 1067 q 449 1031 433 1067 l 553 785 l 658 1031 q 697 1067 672 1067 q 722 1042 722 1067 l 722 675 q 697 656 722 656 q 672 675 672 656 l 672 957 l 572 724 q 553 707 565 707 q 535 724 540 707 l 435 960 l 435 675 q 410 656 435 656 q 385 675 385 656 z "},"Ω":{"ha":742,"x_min":83,"x_max":658,"o":"m 83 25 q 90 42 83 35 q 107 49 97 49 l 256 49 l 256 104 q 100 372 100 160 l 100 729 q 174 947 100 878 q 371 1015 247 1015 q 568 947 494 1015 q 642 729 642 878 l 642 372 q 486 104 642 161 l 486 49 l 635 49 q 651 42 644 49 q 658 25 658 35 q 635 0 658 0 l 438 0 l 438 143 q 592 372 592 178 l 592 729 q 535 906 592 847 q 371 965 478 965 q 207 906 264 965 q 150 729 150 847 l 150 372 q 304 143 150 178 l 304 0 l 107 0 q 83 25 83 0 z "},"℮":{"ha":743,"x_min":82,"x_max":672,"o":"m 82 286 l 82 376 q 172 578 82 492 q 385 664 263 664 q 587 592 501 664 q 672 414 672 521 q 663 356 672 378 q 635 324 654 333 q 601 312 617 314 q 557 310 585 310 l 200 310 l 200 244 q 263 96 200 151 q 421 40 325 40 q 528 55 485 40 q 594 83 572 69 q 626 97 615 97 q 644 89 636 97 q 651 72 651 81 q 625 40 651 58 q 542 7 599 22 q 418 -8 486 -8 q 176 73 269 -8 q 82 286 82 154 m 200 358 l 485 358 q 552 368 536 358 q 568 410 568 378 q 516 552 568 489 q 385 615 464 615 q 254 556 308 615 q 200 418 200 497 l 200 358 z "},"⅓":{"ha":860,"x_min":54,"x_max":804,"o":"m 54 903 q 64 924 54 914 l 126 1006 q 146 1015 133 1015 q 165 997 165 1015 l 165 525 q 143 507 165 507 q 119 525 119 507 l 119 936 l 88 892 q 74 883 82 883 q 60 890 65 883 q 54 903 54 896 m 79 -7 q 82 6 79 1 l 625 1056 q 643 1067 631 1067 q 660 1059 651 1067 q 668 1040 668 1051 q 664 1025 668 1033 l 125 -12 q 101 -28 117 -28 q 79 -7 79 -28 m 485 111 q 506 135 485 135 q 531 115 531 135 q 557 63 531 88 q 643 39 583 39 q 758 143 758 39 l 758 156 q 644 247 758 247 q 625 267 625 247 q 644 288 625 288 q 719 308 694 288 q 743 376 743 328 q 647 465 743 465 q 567 443 590 465 q 544 392 544 421 q 522 369 544 369 q 503 375 508 369 q 499 396 499 381 q 533 472 499 436 q 649 508 567 508 q 789 386 789 508 q 725 268 789 294 q 804 156 804 239 l 804 143 q 760 31 804 67 q 644 -4 717 -4 q 527 31 569 -4 q 485 111 485 67 z "},"⅔":{"ha":1011,"x_min":57,"x_max":954,"o":"m 57 525 l 57 592 q 84 653 57 624 q 150 708 111 683 l 228 758 q 294 815 267 783 q 321 879 321 846 q 292 943 321 915 q 213 971 264 971 q 143 950 169 971 q 117 889 117 929 q 92 871 117 871 q 69 899 69 871 q 110 983 69 950 q 214 1015 151 1015 q 324 976 281 1015 q 367 881 367 938 q 326 786 367 831 q 235 715 285 742 q 145 656 186 689 q 104 592 104 622 l 104 550 l 356 550 q 374 529 374 550 q 368 514 374 521 q 356 507 363 507 l 79 507 q 57 525 57 507 m 242 -7 q 244 6 242 1 l 788 1056 q 806 1067 793 1067 q 822 1059 814 1067 q 831 1040 831 1051 q 826 1025 831 1033 l 288 -12 q 264 -28 281 -28 q 242 -7 242 -28 m 635 111 q 656 135 635 135 q 681 115 681 135 q 707 63 681 88 q 793 39 733 39 q 908 143 908 39 l 908 156 q 794 247 908 247 q 775 267 775 247 q 794 288 775 288 q 869 308 844 288 q 893 376 893 328 q 797 465 893 465 q 717 443 740 465 q 694 392 694 421 q 672 369 694 369 q 653 375 658 369 q 649 396 649 381 q 683 472 649 436 q 799 508 717 508 q 939 386 939 508 q 875 268 939 294 q 954 156 954 239 l 954 143 q 910 31 954 67 q 794 -4 867 -4 q 677 31 719 -4 q 635 111 635 67 z "},"⅛":{"ha":860,"x_min":54,"x_max":804,"o":"m 54 903 q 64 924 54 914 l 126 1006 q 146 1015 133 1015 q 165 997 165 1015 l 165 525 q 143 507 165 507 q 119 525 119 507 l 119 936 l 88 892 q 74 883 82 883 q 60 890 65 883 q 54 903 54 896 m 79 -7 q 82 6 79 1 l 625 1056 q 643 1067 631 1067 q 660 1059 651 1067 q 668 1040 668 1051 q 664 1025 668 1033 l 125 -12 q 101 -28 117 -28 q 79 -7 79 -28 m 485 139 l 485 147 q 568 276 485 246 q 500 386 500 303 q 644 508 500 508 q 789 386 789 508 q 721 276 789 301 q 804 147 804 246 l 804 139 q 760 31 804 65 q 644 -4 717 -4 q 528 31 572 -4 q 485 139 485 65 m 532 142 q 646 36 532 36 q 758 142 758 36 l 758 153 q 644 256 758 256 q 532 153 532 256 l 532 142 m 644 467 q 595 467 644 467 q 546 382 546 467 q 644 297 546 297 q 743 382 743 297 q 644 467 743 467 z "},"⅜":{"ha":1019,"x_min":50,"x_max":964,"o":"m 50 618 q 71 642 50 642 q 96 622 96 642 q 122 570 96 594 q 208 546 149 546 q 324 650 324 546 l 324 663 q 210 754 324 754 q 190 774 190 754 q 210 794 190 794 q 284 815 260 794 q 308 883 308 835 q 213 972 308 972 q 133 950 156 972 q 110 899 110 928 q 88 876 110 876 q 69 882 74 876 q 64 903 64 888 q 98 979 64 943 q 214 1015 132 1015 q 354 893 354 1015 q 290 775 354 801 q 369 663 369 746 l 369 650 q 326 538 369 574 q 210 503 282 503 q 92 538 135 503 q 50 618 50 574 m 239 -7 q 242 6 239 1 l 785 1056 q 803 1067 790 1067 q 819 1059 811 1067 q 828 1040 828 1051 q 824 1025 828 1033 l 285 -12 q 261 -28 278 -28 q 239 -7 239 -28 m 644 139 l 644 147 q 728 276 644 246 q 660 386 660 303 q 804 508 660 508 q 949 386 949 508 q 881 276 949 301 q 964 147 964 246 l 964 139 q 920 31 964 65 q 804 -4 876 -4 q 688 31 732 -4 q 644 139 644 65 m 692 142 q 806 36 692 36 q 918 142 918 36 l 918 153 q 804 256 918 256 q 692 153 692 256 l 692 142 m 804 467 q 755 467 804 467 q 706 382 706 467 q 804 297 706 297 q 903 382 903 297 q 804 467 903 467 z "},"⅝":{"ha":1018,"x_min":49,"x_max":963,"o":"m 49 617 q 72 644 49 644 q 96 624 96 644 q 203 546 99 546 q 321 650 321 546 l 321 664 q 208 765 321 765 l 101 765 q 76 782 76 765 q 78 813 76 800 l 93 997 q 108 1015 96 1015 l 324 1015 q 340 993 340 1015 q 324 972 340 972 l 135 972 l 121 806 l 208 806 q 324 772 281 806 q 368 664 368 738 l 368 650 q 324 538 368 574 q 210 503 281 503 q 92 537 136 503 q 49 617 49 571 m 238 -7 q 240 6 238 1 l 783 1056 q 801 1067 789 1067 q 818 1059 810 1067 q 826 1040 826 1051 q 822 1025 826 1033 l 283 -12 q 260 -28 275 -28 q 238 -7 238 -28 m 643 139 l 643 147 q 726 276 643 246 q 658 386 658 303 q 803 508 658 508 q 947 386 947 508 q 879 276 947 301 q 963 147 963 246 l 963 139 q 919 31 963 65 q 803 -4 875 -4 q 687 31 731 -4 q 643 139 643 65 m 690 142 q 804 36 690 36 q 917 142 917 36 l 917 153 q 803 256 917 256 q 690 153 690 256 l 690 142 m 803 467 q 753 467 803 467 q 704 382 704 467 q 803 297 704 297 q 901 382 901 297 q 803 467 901 467 z "},"⅞":{"ha":1017,"x_min":51,"x_max":964,"o":"m 51 892 l 51 997 q 58 1010 51 1004 q 74 1015 65 1015 l 349 1015 q 363 1009 356 1015 q 371 997 371 1003 l 371 938 q 365 917 371 928 l 131 515 q 114 506 125 506 q 86 528 86 506 q 89 538 86 529 l 325 935 l 325 972 l 99 972 l 99 892 q 91 879 99 885 q 75 874 83 874 q 51 892 51 874 m 169 -7 q 172 6 169 1 l 715 1056 q 733 1067 721 1067 q 750 1059 742 1067 q 758 1040 758 1051 q 754 1025 758 1033 l 215 -12 q 192 -28 208 -28 q 169 -7 169 -28 m 644 139 l 644 147 q 728 276 644 246 q 660 386 660 303 q 804 508 660 508 q 949 386 949 508 q 881 276 949 301 q 964 147 964 246 l 964 139 q 920 31 964 65 q 804 -4 876 -4 q 688 31 732 -4 q 644 139 644 65 m 692 142 q 806 36 692 36 q 918 142 918 36 l 918 153 q 804 256 918 256 q 692 153 692 256 l 692 142 m 804 467 q 755 467 804 467 q 706 382 706 467 q 804 297 706 297 q 903 382 903 297 q 804 467 903 467 z "},"←":{"ha":1071,"x_min":97,"x_max":974,"o":"m 97 333 q 110 358 97 346 l 408 656 q 426 663 418 663 q 443 655 436 663 q 450 638 450 647 q 443 621 450 628 l 179 358 l 950 358 q 974 333 974 358 q 950 310 974 310 l 179 310 l 443 47 q 450 31 450 42 q 426 6 450 6 q 408 13 415 6 l 110 310 q 97 333 97 322 z "},"↑":{"ha":1071,"x_min":207,"x_max":864,"o":"m 207 443 q 214 461 207 454 l 511 760 q 535 772 524 772 q 560 760 547 772 l 857 461 q 864 443 864 451 q 856 426 864 433 q 839 419 849 419 q 822 426 829 419 l 560 690 l 560 -81 q 535 -104 560 -104 q 511 -81 511 -104 l 511 690 l 249 426 q 232 419 243 419 q 207 443 207 419 z "},"→":{"ha":1071,"x_min":97,"x_max":974,"o":"m 97 333 q 121 358 97 358 l 892 358 l 628 621 q 621 638 621 628 q 628 655 621 647 q 644 663 635 663 q 663 656 653 663 l 961 358 q 974 333 974 346 q 961 310 974 322 l 663 13 q 644 6 656 6 q 621 31 621 6 q 628 47 621 42 l 892 310 l 121 310 q 97 333 97 310 z "}}}
